<svg width="53" height="95" viewBox="0 0 53 95" fill="none" xmlns="http://www.w3.org/2000/svg">
<rect width="53" height="82.9091" fill="#D92222"/>
<path d="M0 87.2272V82.2181H4.38923V87.2272V95C1.00325 91.6836 0 88.4363 0 87.2272Z" fill="#D92222"/>
<path d="M8.77844 87.2272V82.2181H4.38921V87.2272V95C7.77519 91.6836 8.77844 88.4363 8.77844 87.2272Z" fill="#D92222"/>
<path d="M33.2484 87.2272V82.2181H37.6376V87.2272V95C34.2517 91.6836 33.2484 88.4363 33.2484 87.2272Z" fill="#D92222"/>
<path d="M42.0269 87.2272V82.2181H37.6376V87.2272V95C41.0236 91.6836 42.0269 88.4363 42.0269 87.2272Z" fill="#D92222"/>
<path d="M44.441 87.2272V82.2181H48.8303V87.2272V95C45.4443 91.6836 44.441 88.4363 44.441 87.2272Z" fill="#D92222"/>
<path d="M53 87.2272V82.2181H48.7205V87.2272V95C52.0218 91.6836 53 88.4363 53 87.2272Z" fill="#D92222"/>
<path d="M22.1656 87.2272V82.2181H26.5549V87.2272V95C23.1689 91.6836 22.1656 88.4363 22.1656 87.2272Z" fill="#D92222"/>
<path d="M30.9441 87.2272V82.2181H26.5549V87.2272V95C29.9408 91.6836 30.9441 88.4363 30.9441 87.2272Z" fill="#D92222"/>
<path d="M11.0828 87.2272V82.2181H15.472V87.2272V95C12.086 91.6836 11.0828 88.4363 11.0828 87.2272Z" fill="#D92222"/>
<path d="M19.8612 87.2272V82.2181H15.472V87.2272V95C18.858 91.6836 19.8612 88.4363 19.8612 87.2272Z" fill="#D92222"/>
<path d="M24.1666 21.2454C24.8333 21.5218 25.3333 22.1091 25.5 22.4545H28.6666C28.8 21.9018 29.5 21.2454 29.8333 20.9C29.3 19.9327 27.6111 18.8848 26.8333 18.4818C25.3666 19.3109 24.4444 20.6697 24.1666 21.2454Z" fill="#EEEEEE" stroke="black"/>
<path d="M19.8334 29.8818C20.9 29.3291 22.6112 29.4212 23.3334 29.5363L27.1667 26.4272C28.1 27.6709 30.1667 29.0181 31 29.5363C32.2 29.26 33.7223 29.6515 34.3334 29.8818C34.5 28.1545 33.5 22.6272 27 22.4545C21.8 22.3163 20.0556 27.3484 19.8334 29.8818Z" fill="#D9D9D9" stroke="black"/>
<path d="M19.5 31.4363C21.9 30.7454 25.6111 27.9242 27.1667 26.6C27.9667 27.9818 32.3889 30.4 34.5 31.4363C33.9667 35.0291 35.0556 37.4242 35.6667 38.1727C34.6 41.6272 30.3889 46.9242 28.6667 48.7091C28.6667 48.7091 29.8333 41.9727 29.8333 41.1091C30 39.7272 29.8333 37.3091 29.8333 37.3091C29.8333 36.6182 29.8667 35.8927 31.3333 35.7545C32.8 35.6163 32.8333 33.8545 33.1667 32.6454C29.6667 32.3 28.3333 33.3363 28.1667 33.8545C27.5 38 28.5 38.3454 28.5 38.8636C28.3667 40.2454 27.4444 40.9363 27 41.1091C26 40.4182 25.5 39.2091 25.6667 38.8636C26.5503 36.6527 26.0348 34.2576 25.6667 33.3363C24.0667 32.3691 21.7778 32.5879 20.8333 32.8182C21.2333 35.0291 23.3333 36.2727 24.3333 36.6182C23.6667 40.7636 23.8333 43.1818 25.3333 48.7091C21.8667 46.7745 19.6111 40.5909 19 38.1727C20.3333 35.8236 19.8889 32.703 19.5 31.4363Z" fill="#D9D9D9" stroke="black"/>
<path d="M20.5 16.7545C22.2333 17.86 24 19.9212 24.6667 20.7272L26.8333 18.6545L29.5 20.5545C29.7667 20.0018 32.1111 17.906 33.3333 16.7545C32.5 16.0636 30.7778 11.6303 29.3333 9.6727C29.3333 10.0182 29 10.7091 29 10.7091C29 10.7091 28.4444 9.44239 28.3333 9.15452C27.9333 8.60179 27.2778 7.71512 26.8333 7.25452C27 8.11815 27.5 11.7454 27.1667 13.4727C26.6667 12.2636 25.6667 8.46361 25.6667 8.46361C25.6667 8.46361 24.8333 10.2484 24.5 10.7091C25.1667 11.9181 25.1667 13.8181 25.1667 13.8181C25.1667 13.8181 24.1111 12.3788 23.6667 11.9181L22 14.5091C22.5 15.1424 22.6667 15.3727 23.1667 15.8909C22.5 15.7182 21.9444 15.1424 21.6667 15.0272L20.5 16.7545Z" fill="#D9D9D9" stroke="black"/>
<path d="M29 21.7636C26.8667 20.6581 25.3889 21.303 24.8334 21.7636L25.5 22.4545C25.7667 22.3163 27.5556 22.3969 28.5 22.4545L29 21.7636Z" fill="#D9D9D9" stroke="black"/>
</svg>
