<svg width="111" height="179" viewBox="0 0 111 179" fill="none" xmlns="http://www.w3.org/2000/svg">
<rect width="111" height="156.218" fill="#D92222"/>
<path d="M0 164.355V154.916H9.19255V164.355V179C2.10115 172.751 0 166.633 0 164.355Z" fill="#D92222"/>
<path d="M18.3851 164.355V154.916H9.19259V164.355V179C16.284 172.751 18.3851 166.633 18.3851 164.355Z" fill="#D92222"/>
<path d="M69.6335 164.355V154.916H78.8261V164.355V179C71.7347 172.751 69.6335 166.633 69.6335 164.355Z" fill="#D92222"/>
<path d="M88.0187 164.355V154.916H78.8261V164.355V179C85.9175 172.751 88.0187 166.633 88.0187 164.355Z" fill="#D92222"/>
<path d="M93.0746 164.355V154.916H102.267V164.355V179C95.1757 172.751 93.0746 166.633 93.0746 164.355Z" fill="#D92222"/>
<path d="M111 164.355V154.916H102.037V164.355V179C108.951 172.751 111 166.633 111 164.355Z" fill="#D92222"/>
<path d="M46.4224 164.355V154.916H55.6149V164.355V179C48.5235 172.751 46.4224 166.633 46.4224 164.355Z" fill="#D92222"/>
<path d="M64.8075 164.355V154.916H55.615V164.355V179C62.7063 172.751 64.8075 166.633 64.8075 164.355Z" fill="#D92222"/>
<path d="M23.2112 164.355V154.916H32.4037V164.355V179C25.3123 172.751 23.2112 166.633 23.2112 164.355Z" fill="#D92222"/>
<path d="M41.5963 164.355V154.916H32.4038V164.355V179C39.4952 172.751 41.5963 166.633 41.5963 164.355Z" fill="#D92222"/>
<path d="M50.6133 40.0309C52.0095 40.5516 53.0567 41.6582 53.4057 42.3091H60.0378C60.3171 41.2676 61.7831 40.0309 62.4812 39.38C61.3642 37.5575 57.8271 35.583 56.1982 34.8236C53.1265 36.3858 51.195 38.9461 50.6133 40.0309Z" fill="#EEEEEE" stroke="black"/>
<path d="M41.5377 56.3037C43.7717 55.2622 47.3553 55.4358 48.8679 55.6528L56.8962 49.7946C58.8509 52.1378 63.1792 54.6764 64.9245 55.6528C67.4377 55.132 70.6258 55.8697 71.9056 56.3037C72.2547 53.0491 70.1604 42.6346 56.5472 42.3091C45.6566 42.0488 42.0031 51.5303 41.5377 56.3037Z" fill="#D9D9D9" stroke="black"/>
<path d="M40.8397 59.2327C45.8661 57.9309 53.6384 52.6151 56.8963 50.12C58.5717 52.7236 67.8334 57.28 72.2547 59.2327C71.1378 66.0022 73.4183 70.5151 74.6981 71.9255C72.4642 78.4345 63.6447 88.4151 60.0378 91.7782C60.0378 91.7782 62.4812 79.0855 62.4812 77.4582C62.8302 74.8545 62.4812 70.2982 62.4812 70.2982C62.4812 68.9964 62.551 67.6294 65.6227 67.3691C68.6944 67.1087 68.7642 63.7891 69.4623 61.5109C62.1321 60.86 59.3396 62.8127 58.9906 63.7891C57.5944 71.6 59.6887 72.2509 59.6887 73.2273C59.4095 75.8309 57.478 77.1327 56.5472 77.4582C54.4529 76.1564 53.4057 73.8782 53.7547 73.2273C55.6053 69.0615 54.5258 64.5485 53.7547 62.8127C50.4038 60.9902 45.6101 61.4024 43.6321 61.8364C44.4698 66.0022 48.868 68.3455 50.9623 68.9964C49.5661 76.8073 49.9151 81.3636 53.0566 91.7782C45.7963 88.1331 41.0724 76.4818 39.7925 71.9255C42.5849 67.4993 41.6541 61.6194 40.8397 59.2327Z" fill="#D9D9D9" stroke="black"/>
<path d="M42.934 31.5691C46.5641 33.652 50.2641 37.5358 51.6604 39.0546L56.1981 35.1491L61.783 38.7291C62.3415 37.6876 67.2516 33.7388 69.8113 31.5691C68.066 30.2673 64.4591 21.9139 61.434 18.2255C61.434 18.8764 60.7358 20.1782 60.7358 20.1782C60.7358 20.1782 59.5723 17.7915 59.3396 17.2491C58.5019 16.2076 57.1289 14.537 56.1981 13.6691C56.5472 15.2964 57.5943 22.1309 56.8962 25.3855C55.849 23.1073 53.7547 15.9473 53.7547 15.9473C53.7547 15.9473 52.0094 19.3103 51.3113 20.1782C52.7075 22.4564 52.7075 26.0364 52.7075 26.0364C52.7075 26.0364 50.4969 23.3242 49.566 22.4564L46.0755 27.3382C47.1226 28.5315 47.4717 28.9655 48.5189 29.9418C47.1226 29.6164 45.9591 28.5315 45.3774 28.3145L42.934 31.5691Z" fill="#D9D9D9" stroke="black"/>
<path d="M60.7359 41.0073C56.268 38.9244 53.173 40.1394 52.0095 41.0073L53.4057 42.3091C53.9642 42.0487 57.7108 42.2006 59.6888 42.3091L60.7359 41.0073Z" fill="#D9D9D9" stroke="black"/>
<rect x="33.9696" y="98.9382" width="11.1063" height="10.3554" rx="3" fill="#D9D9D9"/>
<path d="M43.9653 99.4559L42.2993 101.009V107.481L43.9653 108.776C44.2429 109.035 44.5206 108.172 44.5206 107.999V100.491C44.5206 99.8701 44.1504 99.5422 43.9653 99.4559Z" fill="#8B8B8B"/>
<path d="M35.0803 99.4559L36.7462 101.001V107.44L35.0803 108.728C34.8026 108.986 34.5249 108.127 34.5249 107.955V100.486C34.5249 99.868 34.8952 99.5418 35.0803 99.4559Z" fill="#F9F9F9"/>
<rect x="35.6355" y="100.491" width="7.77444" height="7.24876" rx="3" fill="#BDBDBD"/>
<rect x="34.4696" y="99.4382" width="10.1063" height="9.35538" rx="2.5" stroke="black"/>
<path d="M41.2336 102.189V102.852H39.9286V106.527H39.1216V102.852H37.8106V102.189H41.2336Z" fill="black"/>
<rect x="16.7548" y="111.365" width="11.1063" height="10.3554" rx="3" fill="#D9D9D9"/>
<path d="M26.7504 111.882L25.0845 113.436V119.908L26.7504 121.202C27.0281 121.461 27.3057 120.598 27.3057 120.426V112.918C27.3057 112.297 26.9355 111.969 26.7504 111.882Z" fill="#8B8B8B"/>
<path d="M17.8654 111.882L19.5314 113.428V119.867L17.8654 121.154C17.5878 121.412 17.3101 120.553 17.3101 120.382V112.913C17.3101 112.294 17.6803 111.968 17.8654 111.882Z" fill="#F9F9F9"/>
<rect x="18.4207" y="112.918" width="7.77444" height="7.24876" rx="3" fill="#BDBDBD"/>
<rect x="17.2548" y="111.865" width="10.1063" height="9.35537" rx="2.5" stroke="black"/>
<path d="M19.2034 114.615H19.8814C19.9514 114.615 20.0094 114.632 20.0554 114.666C20.1034 114.698 20.1354 114.742 20.1514 114.798L20.8894 117.393C20.9074 117.457 20.9234 117.527 20.9374 117.603C20.9534 117.677 20.9684 117.756 20.9824 117.84C20.9984 117.756 21.0154 117.677 21.0334 117.603C21.0534 117.527 21.0744 117.457 21.0964 117.393L21.9484 114.798C21.9644 114.752 21.9954 114.71 22.0414 114.672C22.0894 114.634 22.1474 114.615 22.2154 114.615H22.4524C22.5224 114.615 22.5804 114.632 22.6264 114.666C22.6724 114.698 22.7044 114.742 22.7224 114.798L23.5684 117.393C23.6124 117.521 23.6504 117.663 23.6824 117.819C23.6964 117.741 23.7104 117.666 23.7244 117.594C23.7404 117.522 23.7564 117.455 23.7724 117.393L24.5104 114.798C24.5244 114.748 24.5554 114.705 24.6034 114.669C24.6514 114.633 24.7094 114.615 24.7774 114.615H25.4104L24.0634 118.953H23.3344L22.3864 115.989C22.3744 115.951 22.3614 115.91 22.3474 115.866C22.3354 115.822 22.3234 115.775 22.3114 115.725C22.2994 115.775 22.2864 115.822 22.2724 115.866C22.2604 115.91 22.2484 115.951 22.2364 115.989L21.2794 118.953H20.5504L19.2034 114.615Z" fill="black"/>
<rect x="63.4015" y="111.365" width="11.1063" height="10.3554" rx="3" fill="#D9D9D9"/>
<path d="M73.3972 111.882L71.7312 113.436V119.908L73.3972 121.202C73.6748 121.461 73.9525 120.598 73.9525 120.426V112.918C73.9525 112.297 73.5823 111.969 73.3972 111.882Z" fill="#8B8B8B"/>
<path d="M64.5121 111.882L66.1781 113.428V119.867L64.5121 121.154C64.2345 121.412 63.9568 120.553 63.9568 120.382V112.913C63.9568 112.294 64.327 111.968 64.5121 111.882Z" fill="#F9F9F9"/>
<rect x="65.0674" y="112.918" width="7.77444" height="7.24876" rx="3" fill="#BDBDBD"/>
<rect x="63.9015" y="111.865" width="10.1063" height="9.35537" rx="2.5" stroke="black"/>
<path d="M69.3583 118.953H68.5483V114.615H69.3583V118.953Z" fill="black"/>
<rect x="45.6312" y="98.9382" width="11.1063" height="10.3554" rx="3" fill="#D9D9D9"/>
<path d="M55.6269 99.4559L53.9609 101.009V107.481L55.6269 108.776C55.9045 109.035 56.1822 108.172 56.1822 107.999V100.491C56.1822 99.8701 55.812 99.5422 55.6269 99.4559Z" fill="#8B8B8B"/>
<path d="M46.7419 99.4559L48.4078 101.001V107.44L46.7419 108.728C46.4642 108.986 46.1866 108.127 46.1866 107.955V100.486C46.1866 99.868 46.5568 99.5418 46.7419 99.4559Z" fill="#F9F9F9"/>
<rect x="47.2971" y="100.491" width="7.77444" height="7.24876" rx="3" fill="#BDBDBD"/>
<rect x="46.1312" y="99.4382" width="10.1063" height="9.35538" rx="2.5" stroke="black"/>
<path d="M51.5886 104.841V106.527H50.7816V104.841L49.2006 102.189H49.9116C49.9816 102.189 50.0366 102.206 50.0766 102.24C50.1186 102.274 50.1536 102.317 50.1816 102.369L50.9766 103.818C51.0226 103.904 51.0626 103.986 51.0966 104.064C51.1306 104.14 51.1616 104.215 51.1896 104.289C51.2156 104.213 51.2446 104.137 51.2766 104.061C51.3106 103.983 51.3506 103.902 51.3966 103.818L52.1856 102.369C52.2076 102.325 52.2406 102.284 52.2846 102.246C52.3286 102.208 52.3846 102.189 52.4526 102.189H53.1666L51.5886 104.841Z" fill="black"/>
<rect x="28.4164" y="111.365" width="11.1063" height="10.3554" rx="3" fill="#D9D9D9"/>
<path d="M38.412 111.882L36.7461 113.436V119.908L38.412 121.202C38.6897 121.461 38.9674 120.598 38.9674 120.426V112.918C38.9674 112.297 38.5972 111.969 38.412 111.882Z" fill="#8B8B8B"/>
<path d="M29.527 111.882L31.193 113.428V119.867L29.527 121.154C29.2494 121.412 28.9717 120.553 28.9717 120.382V112.913C28.9717 112.294 29.3419 111.968 29.527 111.882Z" fill="#F9F9F9"/>
<rect x="30.0823" y="112.918" width="7.77444" height="7.24876" rx="3" fill="#BDBDBD"/>
<rect x="28.9164" y="111.865" width="10.1063" height="9.35537" rx="2.5" stroke="black"/>
<path d="M36.0907 118.953H35.4667C35.3967 118.953 35.3387 118.936 35.2927 118.902C35.2487 118.866 35.2167 118.822 35.1967 118.77L34.8727 117.885H33.0757L32.7517 118.77C32.7357 118.816 32.7037 118.858 32.6557 118.896C32.6097 118.934 32.5527 118.953 32.4847 118.953H31.8577L33.5617 114.615H34.3867L36.0907 118.953ZM33.2827 117.315H34.6657L34.1377 115.872C34.1137 115.808 34.0867 115.733 34.0567 115.647C34.0287 115.559 34.0007 115.464 33.9727 115.362C33.9447 115.464 33.9167 115.559 33.8887 115.647C33.8627 115.735 33.8367 115.812 33.8107 115.878L33.2827 117.315Z" fill="black"/>
<rect x="75.063" y="111.365" width="11.1063" height="10.3554" rx="3" fill="#D9D9D9"/>
<path d="M85.0587 111.882L83.3927 113.436V119.908L85.0587 121.202C85.3363 121.461 85.614 120.598 85.614 120.426V112.918C85.614 112.297 85.2438 111.969 85.0587 111.882Z" fill="#8B8B8B"/>
<path d="M76.1736 111.882L77.8396 113.428V119.867L76.1736 121.154C75.896 121.412 75.6183 120.553 75.6183 120.382V112.913C75.6183 112.294 75.9885 111.968 76.1736 111.882Z" fill="#F9F9F9"/>
<rect x="76.7289" y="112.918" width="7.77444" height="7.24876" rx="3" fill="#BDBDBD"/>
<rect x="75.563" y="111.865" width="10.1063" height="9.35537" rx="2.5" stroke="black"/>
<path d="M82.8158 116.784C82.8158 117.102 82.7628 117.397 82.6568 117.669C82.5508 117.939 82.4018 118.173 82.2098 118.371C82.0178 118.569 81.7868 118.724 81.5168 118.836C81.2468 118.946 80.9478 119.001 80.6198 119.001C80.2918 119.001 79.9918 118.946 79.7198 118.836C79.4498 118.724 79.2178 118.569 79.0238 118.371C78.8318 118.173 78.6828 117.939 78.5768 117.669C78.4708 117.397 78.4178 117.102 78.4178 116.784C78.4178 116.466 78.4708 116.172 78.5768 115.902C78.6828 115.63 78.8318 115.395 79.0238 115.197C79.2178 114.999 79.4498 114.845 79.7198 114.735C79.9918 114.623 80.2918 114.567 80.6198 114.567C80.9478 114.567 81.2468 114.623 81.5168 114.735C81.7868 114.847 82.0178 115.002 82.2098 115.2C82.4018 115.396 82.5508 115.63 82.6568 115.902C82.7628 116.172 82.8158 116.466 82.8158 116.784ZM81.9878 116.784C81.9878 116.546 81.9558 116.333 81.8918 116.145C81.8298 115.955 81.7398 115.794 81.6218 115.662C81.5038 115.53 81.3598 115.429 81.1898 115.359C81.0218 115.289 80.8318 115.254 80.6198 115.254C80.4078 115.254 80.2168 115.289 80.0468 115.359C79.8768 115.429 79.7318 115.53 79.6118 115.662C79.4938 115.794 79.4028 115.955 79.3388 116.145C79.2748 116.333 79.2428 116.546 79.2428 116.784C79.2428 117.022 79.2748 117.236 79.3388 117.426C79.4028 117.614 79.4938 117.774 79.6118 117.906C79.7318 118.036 79.8768 118.136 80.0468 118.206C80.2168 118.276 80.4078 118.311 80.6198 118.311C80.8318 118.311 81.0218 118.276 81.1898 118.206C81.3598 118.136 81.5038 118.036 81.6218 117.906C81.7398 117.774 81.8298 117.614 81.8918 117.426C81.9558 117.236 81.9878 117.022 81.9878 116.784Z" fill="black"/>
<rect x="57.293" y="98.9382" width="11.1063" height="10.3554" rx="3" fill="#D9D9D9"/>
<path d="M67.2886 99.4559L65.6227 101.009V107.481L67.2886 108.776C67.5663 109.035 67.8439 108.172 67.8439 107.999V100.491C67.8439 99.8701 67.4737 99.5422 67.2886 99.4559Z" fill="#8B8B8B"/>
<path d="M58.4036 99.4559L60.0696 101.001V107.44L58.4036 108.728C58.126 108.986 57.8483 108.127 57.8483 107.955V100.486C57.8483 99.868 58.2185 99.5418 58.4036 99.4559Z" fill="#F9F9F9"/>
<rect x="58.9589" y="100.491" width="7.77444" height="7.24876" rx="3" fill="#BDBDBD"/>
<rect x="57.793" y="99.4382" width="10.1063" height="9.35538" rx="2.5" stroke="black"/>
<path d="M62.2432 105V106.527H61.4362V102.189H62.8492C63.1392 102.189 63.3902 102.223 63.6022 102.291C63.8142 102.359 63.9892 102.454 64.1272 102.576C64.2652 102.698 64.3672 102.844 64.4332 103.014C64.4992 103.184 64.5322 103.37 64.5322 103.572C64.5322 103.782 64.4972 103.975 64.4272 104.151C64.3572 104.325 64.2522 104.475 64.1122 104.601C63.9722 104.727 63.7972 104.825 63.5872 104.895C63.3772 104.965 63.1312 105 62.8492 105H62.2432ZM62.2432 104.37H62.8492C62.9972 104.37 63.1262 104.352 63.2362 104.316C63.3462 104.278 63.4372 104.225 63.5092 104.157C63.5812 104.087 63.6352 104.003 63.6712 103.905C63.7072 103.805 63.7252 103.694 63.7252 103.572C63.7252 103.456 63.7072 103.351 63.6712 103.257C63.6352 103.163 63.5812 103.083 63.5092 103.017C63.4372 102.951 63.3462 102.901 63.2362 102.867C63.1262 102.831 62.9972 102.813 62.8492 102.813H62.2432V104.37Z" fill="black"/>
<rect x="40.0781" y="111.365" width="11.1063" height="10.3554" rx="3" fill="#D9D9D9"/>
<path d="M50.0738 111.882L48.4078 113.436V119.908L50.0738 121.202C50.3514 121.461 50.6291 120.598 50.6291 120.426V112.918C50.6291 112.297 50.2589 111.969 50.0738 111.882Z" fill="#8B8B8B"/>
<path d="M41.1888 111.882L42.8547 113.428V119.867L41.1888 121.154C40.9111 121.412 40.6335 120.553 40.6335 120.382V112.913C40.6335 112.294 41.0037 111.968 41.1888 111.882Z" fill="#F9F9F9"/>
<rect x="41.744" y="112.918" width="7.77444" height="7.24876" rx="3" fill="#BDBDBD"/>
<rect x="40.5781" y="111.865" width="10.1063" height="9.35537" rx="2.5" stroke="black"/>
<path d="M44.9375 117.258V118.953H44.1305V114.615H45.4535C45.7495 114.615 46.0025 114.646 46.2125 114.708C46.4245 114.768 46.5975 114.853 46.7315 114.963C46.8675 115.073 46.9665 115.205 47.0285 115.359C47.0925 115.511 47.1245 115.679 47.1245 115.863C47.1245 116.009 47.1025 116.147 47.0585 116.277C47.0165 116.407 46.9545 116.525 46.8725 116.631C46.7925 116.737 46.6925 116.83 46.5725 116.91C46.4545 116.99 46.3195 117.054 46.1675 117.102C46.2695 117.16 46.3575 117.243 46.4315 117.351L47.5175 118.953H46.7915C46.7215 118.953 46.6615 118.939 46.6115 118.911C46.5635 118.883 46.5225 118.843 46.4885 118.791L45.5765 117.402C45.5425 117.35 45.5045 117.313 45.4625 117.291C45.4225 117.269 45.3625 117.258 45.2825 117.258H44.9375ZM44.9375 116.679H45.4415C45.5935 116.679 45.7255 116.66 45.8375 116.622C45.9515 116.584 46.0445 116.532 46.1165 116.466C46.1905 116.398 46.2455 116.318 46.2815 116.226C46.3175 116.134 46.3355 116.033 46.3355 115.923C46.3355 115.703 46.2625 115.534 46.1165 115.416C45.9725 115.298 45.7515 115.239 45.4535 115.239H44.9375V116.679Z" fill="black"/>
<rect x="86.7247" y="111.365" width="11.1063" height="10.3554" rx="3" fill="#D9D9D9"/>
<path d="M96.7204 111.882L95.0544 113.436V119.908L96.7204 121.202C96.9981 121.461 97.2757 120.598 97.2757 120.426V112.918C97.2757 112.297 96.9055 111.969 96.7204 111.882Z" fill="#8B8B8B"/>
<path d="M87.8354 111.882L89.5013 113.428V119.867L87.8354 121.154C87.5577 121.412 87.2801 120.553 87.2801 120.382V112.913C87.2801 112.294 87.6503 111.968 87.8354 111.882Z" fill="#F9F9F9"/>
<rect x="88.3906" y="112.918" width="7.77444" height="7.24876" rx="3" fill="#BDBDBD"/>
<rect x="87.2247" y="111.865" width="10.1063" height="9.35537" rx="2.5" stroke="black"/>
<path d="M91.5841 117.258V118.953H90.7771V114.615H92.1001C92.3961 114.615 92.6491 114.646 92.8591 114.708C93.0711 114.768 93.2441 114.853 93.3781 114.963C93.5141 115.073 93.6131 115.205 93.6751 115.359C93.7391 115.511 93.7711 115.679 93.7711 115.863C93.7711 116.009 93.7491 116.147 93.7051 116.277C93.6631 116.407 93.6011 116.525 93.5191 116.631C93.4391 116.737 93.3391 116.83 93.2191 116.91C93.1011 116.99 92.9661 117.054 92.8141 117.102C92.9161 117.16 93.0041 117.243 93.0781 117.351L94.1641 118.953H93.4381C93.3681 118.953 93.3081 118.939 93.2581 118.911C93.2101 118.883 93.1691 118.843 93.1351 118.791L92.2231 117.402C92.1891 117.35 92.1511 117.313 92.1091 117.291C92.0691 117.269 92.0091 117.258 91.9291 117.258H91.5841ZM91.5841 116.679H92.0881C92.2401 116.679 92.3721 116.66 92.4841 116.622C92.5981 116.584 92.6911 116.532 92.7631 116.466C92.8371 116.398 92.8921 116.318 92.9281 116.226C92.9641 116.134 92.9821 116.033 92.9821 115.923C92.9821 115.703 92.9091 115.534 92.7631 115.416C92.6191 115.298 92.3981 115.239 92.1001 115.239H91.5841V116.679Z" fill="black"/>
<rect x="68.9546" y="98.9382" width="11.1063" height="10.3554" rx="3" fill="#D9D9D9"/>
<path d="M78.9503 99.4559L77.2843 101.009V107.481L78.9503 108.776C79.2279 109.035 79.5056 108.172 79.5056 107.999V100.491C79.5056 99.8701 79.1354 99.5422 78.9503 99.4559Z" fill="#8B8B8B"/>
<path d="M70.0653 99.4559L71.7312 101.001V107.44L70.0653 108.728C69.7876 108.986 69.5099 108.127 69.5099 107.955V100.486C69.5099 99.868 69.8801 99.5418 70.0653 99.4559Z" fill="#F9F9F9"/>
<rect x="70.6205" y="100.491" width="7.77444" height="7.24876" rx="3" fill="#BDBDBD"/>
<rect x="69.4546" y="99.4382" width="10.1063" height="9.35538" rx="2.5" stroke="black"/>
<path d="M75.965 102.189V102.831H74.042V104.034H75.557V104.655H74.042V105.882H75.965V106.527H73.229V102.189H75.965Z" fill="black"/>
<rect x="51.7397" y="111.365" width="11.1063" height="10.3554" rx="3" fill="#D9D9D9"/>
<path d="M61.7354 111.882L60.0695 113.436V119.908L61.7354 121.202C62.0131 121.461 62.2907 120.598 62.2907 120.426V112.918C62.2907 112.297 61.9205 111.969 61.7354 111.882Z" fill="#8B8B8B"/>
<path d="M52.8504 111.882L54.5164 113.428V119.867L52.8504 121.154C52.5727 121.412 52.2951 120.553 52.2951 120.382V112.913C52.2951 112.294 52.6653 111.968 52.8504 111.882Z" fill="#F9F9F9"/>
<rect x="53.4056" y="112.918" width="7.77444" height="7.24876" rx="3" fill="#BDBDBD"/>
<rect x="52.2397" y="111.865" width="10.1063" height="9.35537" rx="2.5" stroke="black"/>
<path d="M56.5991 117.258V118.953H55.7921V114.615H57.1151C57.4111 114.615 57.6641 114.646 57.8741 114.708C58.0861 114.768 58.2591 114.853 58.3931 114.963C58.5291 115.073 58.6281 115.205 58.6901 115.359C58.7541 115.511 58.7861 115.679 58.7861 115.863C58.7861 116.009 58.7641 116.147 58.7201 116.277C58.6781 116.407 58.6161 116.525 58.5341 116.631C58.4541 116.737 58.3541 116.83 58.2341 116.91C58.1161 116.99 57.9811 117.054 57.8291 117.102C57.9311 117.16 58.0191 117.243 58.0931 117.351L59.1791 118.953H58.4531C58.3831 118.953 58.3231 118.939 58.2731 118.911C58.2251 118.883 58.1841 118.843 58.1501 118.791L57.2381 117.402C57.2041 117.35 57.1661 117.313 57.1241 117.291C57.0841 117.269 57.0241 117.258 56.9441 117.258H56.5991ZM56.5991 116.679H57.1031C57.2551 116.679 57.3871 116.66 57.4991 116.622C57.6131 116.584 57.7061 116.532 57.7781 116.466C57.8521 116.398 57.9071 116.318 57.9431 116.226C57.9791 116.134 57.9971 116.033 57.9971 115.923C57.9971 115.703 57.9241 115.534 57.7781 115.416C57.6341 115.298 57.4131 115.239 57.1151 115.239H56.5991V116.679Z" fill="black"/>
</svg>
