<svg width="356" height="356" viewBox="0 0 356 356" fill="none" xmlns="http://www.w3.org/2000/svg">
<circle cx="178" cy="178" r="178" fill="#D92222"/>
<path d="M155.481 134.312C160.317 136.115 163.944 139.948 165.153 142.203H188.125C189.093 138.595 194.171 134.312 196.589 132.057C192.72 125.744 180.468 118.905 174.826 116.275C164.186 121.686 157.496 130.554 155.481 134.312Z" fill="#EEEEEE" stroke="black"/>
<path d="M124.046 190.677C131.783 187.07 144.196 187.671 149.436 188.422L177.244 168.131C184.015 176.247 199.007 185.04 205.052 188.422C213.758 186.619 224.8 189.174 229.233 190.677C230.443 179.404 223.188 143.33 176.035 142.203C138.312 141.301 125.658 174.143 124.046 190.677Z" fill="#D9D9D9" stroke="black"/>
<path d="M121.627 200.823C139.038 196.313 165.959 177.901 177.244 169.258C183.047 178.277 215.128 194.059 230.442 200.823C226.573 224.271 234.472 239.903 238.906 244.788C231.168 267.334 200.619 301.904 188.125 313.553C188.125 313.553 196.589 269.588 196.589 263.952C197.798 254.933 196.589 239.151 196.589 239.151C196.589 234.642 196.83 229.907 207.47 229.005C218.11 228.103 218.352 216.605 220.77 208.714C195.38 206.459 185.707 213.223 184.498 216.605C179.662 243.66 186.916 245.915 186.916 249.297C185.949 258.315 179.259 262.824 176.035 263.952C168.78 259.443 165.153 251.551 166.362 249.297C172.772 234.867 169.033 219.235 166.362 213.223C154.755 206.91 138.151 208.338 131.3 209.841C134.201 224.271 149.435 232.387 156.69 234.642C151.854 261.697 153.063 277.479 163.944 313.553C138.796 300.927 122.433 260.57 118 244.788C127.672 229.456 124.448 209.09 121.627 200.823Z" fill="#D9D9D9" stroke="black"/>
<path d="M128.882 105.002C141.456 112.216 154.272 125.669 159.108 130.93L174.826 117.402L194.171 129.802C196.105 126.195 213.113 112.517 221.979 105.002C215.934 100.492 203.44 71.5584 192.962 58.7823C192.962 61.0369 190.544 65.546 190.544 65.546C190.544 65.546 186.514 57.2792 185.707 55.4003C182.806 51.793 178.05 46.0061 174.826 43C176.035 48.6365 179.662 72.31 177.244 83.583C173.617 75.6919 166.363 50.8911 166.363 50.8911C166.363 50.8911 160.317 62.5399 157.899 65.546C162.735 73.4372 162.735 85.8375 162.735 85.8375C162.735 85.8375 155.078 76.4433 151.854 73.4372L139.763 90.3467C143.391 94.4802 144.6 95.9833 148.227 99.3652C143.391 98.238 139.36 94.4802 137.345 93.7287L128.882 105.002Z" fill="#D9D9D9" stroke="black"/>
<path d="M190.544 137.694C175.068 130.479 164.347 134.687 160.317 137.694L165.153 142.203C167.088 141.301 180.065 141.827 186.916 142.203L190.544 137.694Z" fill="#D9D9D9" stroke="black"/>
</svg>
