<svg xmlns="http://www.w3.org/2000/svg" viewBox="0 0 44.26 25.73"><defs><style>.cls-1{fill:#272525;}</style></defs><g id="Слой_2" data-name="Слой 2"><g id="Layer_1" data-name="Layer 1"><path class="cls-1" d="M6.07,13.9a1.81,1.81,0,0,0-1.42,1.75A1.77,1.77,0,0,0,5,16.74l-.75,4.42a.67.67,0,0,0,.14.53.66.66,0,0,0,.5.23H8a.64.64,0,0,0,.49-.22.65.65,0,0,0,.16-.52L8,16.57a1.84,1.84,0,0,0,.25-.92,1.77,1.77,0,0,0-.86-1.52v-2.4l4,1.75v10a2.25,2.25,0,0,0,2.24,2.24H32a2.24,2.24,0,0,0,2.24-2.24V12.87l9.6-4.16a.66.66,0,0,0,.39-.63.64.64,0,0,0-.44-.59L22,0a.66.66,0,0,0-.44,0C14.07,2.87,1.79,7.39.65,7.46A.65.65,0,0,0,0,8a.67.67,0,0,0,.38.73l5.68,2.46Zm-.39,6.72.68-4A.65.65,0,0,0,6.13,16,.5.5,0,0,1,6,15.65a.49.49,0,0,1,1,0,.5.5,0,0,1-.12.32.67.67,0,0,0-.16.52l.57,4.13ZM33,23.49a.94.94,0,0,1-.94.93H13.64a.93.93,0,0,1-.93-.93V14.05l9.16,4a.8.8,0,0,0,.26,0,.75.75,0,0,0,.26,0L33,13.44ZM2.63,8.26C7.35,6.78,18.69,2.52,21.79,1.35l20,6.83L22.13,16.72l-13-5.64,11-1.45a3.89,3.89,0,0,0,2,.48c1.51,0,2.66-.6,2.66-1.4s-1.15-1.4-2.66-1.4c-1.3,0-2.33.45-2.59,1.08L6.81,10.07Zm17.5.45c0-.31.78-.75,2-.75s2,.44,2,.75-.78.75-2,.75S20.13,9,20.13,8.71Z"/></g></g></svg>