<svg xmlns="http://www.w3.org/2000/svg" viewBox="0 0 38.43 36.56"><defs><style>.cls-1{fill:#272525;}</style></defs><g id="Слой_2" data-name="Слой 2"><g id="Layer_1" data-name="Layer 1"><path class="cls-1" d="M15.54,12.65a.58.58,0,0,0,.37.42.59.59,0,0,0,.56-.09L18,11.76V19.3H16.08a.55.55,0,0,0-.41.17.6.6,0,0,0-.18.42v1.89a.63.63,0,0,0,.17.42.59.59,0,0,0,.42.17h8a.58.58,0,0,0,.41-.17.59.59,0,0,0,.17-.42V19.89a.59.59,0,0,0-.17-.42A.57.57,0,0,0,24,19.3H22.1V7.9a.57.57,0,0,0-.17-.41.59.59,0,0,0-.42-.17H19a.59.59,0,0,0-.34.1l-3.4,2.36a.57.57,0,0,0-.24.6ZM19,8h2.41V20H24v1.77H16.15V20h2.52V10.41l-2.52,2-.46-2.11Z"/><path class="cls-1" d="M0,30.06a.56.56,0,0,0,.49.39l5,.4.15,4.61A.55.55,0,0,0,6,36a.54.54,0,0,0,.22,0,.53.53,0,0,0,.37-.15l9.26-8.34.44,1.22a1.29,1.29,0,0,0,1.18.94,1.41,1.41,0,0,0,1.06-.56l1.64-2a.72.72,0,0,1,.54-.26.68.68,0,0,1,.48.19l1.92,1.74a1.43,1.43,0,0,0,1,.42,1.11,1.11,0,0,0,.69-.24l6.69,7.42a.57.57,0,0,0,.42.19.47.47,0,0,0,.17,0,.57.57,0,0,0,.39-.47L33,31.54l4.95-.45a.57.57,0,0,0,.48-.36.58.58,0,0,0-.11-.58L30.05,21l0-.06a.71.71,0,0,1,.45-.32l2.53-.59a1.23,1.23,0,0,0,.65-2.18L31.91,16a.7.7,0,0,1-.2-.52A.71.71,0,0,1,32,15l2-1.7A1.32,1.32,0,0,0,34.44,12a1.36,1.36,0,0,0-1-1L31,10.23a.67.67,0,0,1-.42-.37.68.68,0,0,1,0-.56l.95-2.41a1.35,1.35,0,0,0-.08-1.29,1.27,1.27,0,0,0-1.34-.48l-2.57.42a.7.7,0,0,1-.81-.62l-.28-2.58a1.23,1.23,0,0,0-1.19-1.23,1.49,1.49,0,0,0-.89.33L22.3,3a.71.71,0,0,1-1-.18L19.84.67A1.35,1.35,0,0,0,18.74,0a1.31,1.31,0,0,0-1.16.84L16.47,3.18a.71.71,0,0,1-1,.32L13.21,2.27a1.27,1.27,0,0,0-1.57.13,1.42,1.42,0,0,0-.35,1.07l.1,2.59a.69.69,0,0,1-.71.73l-2.62,0a1.33,1.33,0,0,0-1.2.6,1.32,1.32,0,0,0,.08,1.36L8.23,11a.67.67,0,0,1,.07.55.7.7,0,0,1-.36.43L5.63,13.12a1.39,1.39,0,0,0-.81,1.1,1.34,1.34,0,0,0,.7,1.17l2.2,1.39a.72.72,0,0,1,.32.46.74.74,0,0,1-.12.54L6.41,19.9a1.23,1.23,0,0,0,1,2.06l1,.08L.19,29.47A.55.55,0,0,0,0,30.06Zm30.2-4.46.09-.12a1.16,1.16,0,0,0,.26-.23A1.39,1.39,0,0,0,30.74,24l-.23-.8,6.18,6.86-4.29.39a.58.58,0,0,0-.51.5l-.43,3.73L25.3,27.87l.48-2.34a.63.63,0,0,1,.09-.24.67.67,0,0,1,.5-.05l2.51.65h0A1.37,1.37,0,0,0,30.23,25.6ZM7.46,20.86a.48.48,0,0,1-.25-.08v0h0a.62.62,0,0,1,.1-.22l1.51-2.12A2,2,0,0,0,9,18.1a1.79,1.79,0,0,0-.69-2.25l-2.2-1.39L6,14.34H6l0-.06s0-.09.2-.17l1.19-.61,1.12-.57a1.8,1.8,0,0,0,.92-1.1,1.77,1.77,0,0,0-.14-1.35l0-.06L7.89,8.17a.6.6,0,0,1-.08-.23v0l0,0a.61.61,0,0,1,.23,0h.67l1.95,0A1.77,1.77,0,0,0,12,7.34a1.72,1.72,0,0,0,.39-.61l0-.06A1.8,1.8,0,0,0,12.49,6l-.1-2.6c0-.17,0-.25.07-.26a.52.52,0,0,1,.23.08l1.87,1,.41.22.09,0a1.75,1.75,0,0,0,.78.18,1.79,1.79,0,0,0,1.62-1l1.12-2.35.06-.11.08-.09h0l0,0,0,0a.79.79,0,0,1,.12.13l1,1.47.47.69a1.83,1.83,0,0,0,.4.43,1.77,1.77,0,0,0,1.09.37,2,2,0,0,0,.35,0A2.05,2.05,0,0,0,23,3.88l.85-.64L25,2.32a.41.41,0,0,1,.22-.11h0a.48.48,0,0,1,.08.25L25.64,5a1.76,1.76,0,0,0,.44,1,1.5,1.5,0,0,0,.29.27,1.78,1.78,0,0,0,1.36.33l2.56-.42a.78.78,0,0,1,.26,0v0a.64.64,0,0,1,0,.25l-1,2.41-.06.18h0v0a1.89,1.89,0,0,0,0,1,1.8,1.8,0,0,0,.08.21c0,.08.09.16.14.24a1.79,1.79,0,0,0,.93.71l1.84.61.62.21a.55.55,0,0,1,.2.11l0,0a.4.4,0,0,1-.06.11.31.31,0,0,1-.1.1L32,13.51l-.73.63a1.8,1.8,0,0,0-.13,2.62l1.8,1.87a.44.44,0,0,1,.14.23h0a.6.6,0,0,1-.22.09l-2.53.59a1.81,1.81,0,0,0-1.15.85,2.59,2.59,0,0,0-.14.29h0a1.87,1.87,0,0,0-.08.32h0a1.21,1.21,0,0,0-.23,1l.72,2.49h0l-2.48-.64a1.54,1.54,0,0,0-.31-.05h-.15l-.28,0h-.06l-.24.06-.09,0-.14.06-.18.11,0,0a2.43,2.43,0,0,0-.25.2h0a1.79,1.79,0,0,0-.76,1.13L24,27.73a.5.5,0,0,0,0,.34h0l-.07,0h0L23.84,28l-1.92-1.75a1.5,1.5,0,0,0-.48-.3,1.71,1.71,0,0,0-.74-.17,1.74,1.74,0,0,0-.87.23,1.51,1.51,0,0,0-.26.18,1.07,1.07,0,0,0-.26.26l-1.65,2-.06.07-.07.05h0l-.06,0h0a.4.4,0,0,1-.12-.2l-.6-1.64a.58.58,0,0,0,.13-.59L16.8,26a1.78,1.78,0,0,0-1-1.05,1.63,1.63,0,0,0-.48-.13h0a1.38,1.38,0,0,0-.29-.08h0a1.53,1.53,0,0,0-.3,0,1.5,1.5,0,0,0-.37,0h0a1.57,1.57,0,0,0-.35.11h0l-2.29,1v-.06l.35-2.58h0a1.81,1.81,0,0,0-1.56-2h0l-.19-.05a.87.87,0,0,0-.28-.05L9.18,21Zm2.28,1.5.57-.07a.64.64,0,0,1,.15.13.69.69,0,0,1,.14.54l-.34,2.58a1.42,1.42,0,0,0,.28,1.13,1.13,1.13,0,0,0,.69.36,1.39,1.39,0,0,0,1.21,0l2.38-1A.74.74,0,0,1,15.1,26a.72.72,0,0,1,.29.35l0,.08L6.73,34.21l-.13-3.9a.55.55,0,0,0-.52-.54l-4.17-.34Z"/></g></g></svg>