<svg xmlns="http://www.w3.org/2000/svg" viewBox="0 0 40.77 31.38"><defs><style>.cls-1{fill:#272525;}</style></defs><g id="Слой_2" data-name="Слой 2"><g id="Layer_1" data-name="Layer 1"><path class="cls-1" d="M5.41,10.75H22.28a.51.51,0,0,0,0-1H5.41a.51.51,0,0,0,0,1Z"/><path class="cls-1" d="M22.28,23.55H5.41a.51.51,0,0,0,0,1H22.28a.51.51,0,0,0,0-1Z"/><path class="cls-1" d="M39.86,1.15l0,0a2.94,2.94,0,0,0-2.14-1,3.16,3.16,0,0,0-2.1.9L29.07,7.55a.47.47,0,0,0-.15.35.51.51,0,0,0,0,.13l-.39.39-.18-.18-.68.69V0H0V31.38H27.69V17.51l5-5-.18-.18.39-.39L33,12a.51.51,0,0,0,.36-.15l6.42-6.42a3.38,3.38,0,0,0,1-2.19A2.88,2.88,0,0,0,39.86,1.15ZM26.69,18.51V30.38H1V1H26.69V9.93l-5.6,5.59.41.4-.14.78H5.41a.51.51,0,0,0,0,1H21.19l-.43,2.45L25,19.43l.39.38,1.3-1.3.5-.5Zm-4.62,1.15-.93.18h-.07l.18-1,.21.22.47-2.71L24.57,19l-2.71.47Zm3.32-1.26-2.88-2.88,5.86-5.86,2.88,2.88ZM32,12.18,28.73,9l.33-.33,3.23,3.23Zm7.12-7.47L33,10.78,30.13,7.9l6.16-6.15h0a2.28,2.28,0,0,1,1.4-.6,2,2,0,0,1,1.42.67s0,0,0,0a1.92,1.92,0,0,1,.64,1.37A2.46,2.46,0,0,1,39.08,4.71Z"/><path class="cls-1" d="M29.05,6.26a.42.42,0,0,0,.62,0l4.62-4.61a.45.45,0,0,0,0-.63h0a.42.42,0,0,0-.62,0L29,5.63a.45.45,0,0,0,0,.63Z"/></g></g></svg>