<svg xmlns="http://www.w3.org/2000/svg" viewBox="0 0 44.13 29.59"><defs><style>.cls-1{fill:#272525;}</style></defs><g id="Слой_2" data-name="Слой 2"><g id="Layer_1" data-name="Layer 1"><path class="cls-1" d="M22.48,10.33h5.64a.56.56,0,0,0,.56-.56V.56A.56.56,0,0,0,28.12,0H16a.56.56,0,0,0-.56.56V9.78a.56.56,0,0,0,.56.56h6.47Zm-5.9-1.11V1.13h11V9.22Z"/><path class="cls-1" d="M13.23,29V19.81a.56.56,0,0,0-.57-.56H.56a.56.56,0,0,0-.56.56V29a.56.56,0,0,0,.56.56h12.1A.56.56,0,0,0,13.23,29Zm-1.13-.57h-11V20.37h11Z"/><path class="cls-1" d="M16,19.25a.56.56,0,0,0-.56.56V29a.56.56,0,0,0,.56.56H28.12a.56.56,0,0,0,.56-.56V19.81a.56.56,0,0,0-.56-.56Zm11.54,9.21h-11V20.37h11Z"/><path class="cls-1" d="M31.46,19.25a.56.56,0,0,0-.56.56V29a.56.56,0,0,0,.56.56H43.57a.56.56,0,0,0,.56-.56V19.81a.56.56,0,0,0-.56-.56ZM43,28.46H32V20.37H43Z"/><polygon class="cls-1" points="6.94 18.46 7.76 18.46 7.76 15.39 21.65 15.39 21.65 18.46 22.48 18.46 22.48 15.39 36.37 15.39 36.37 18.46 37.19 18.46 37.19 14.57 22.48 14.57 22.48 10.35 22.48 10.32 21.65 10.32 21.65 10.35 21.65 14.57 6.94 14.57 6.94 18.46"/></g></g></svg>