<svg xmlns="http://www.w3.org/2000/svg" viewBox="0 0 37.57 27.33"><defs><style>.cls-1{fill:#272525;}</style></defs><g id="Слой_2" data-name="Слой 2"><g id="Layer_1" data-name="Layer 1"><path class="cls-1" d="M9.65,11.11,1.09,18a.74.74,0,0,0-.27.57v8a.74.74,0,0,0,.74.73h8.56a.73.73,0,0,0,.73-.73V11.69a.74.74,0,0,0-.42-.67A.76.76,0,0,0,9.65,11.11ZM9.38,25.86H2.29V18.94l7.09-5.72Z"/><path class="cls-1" d="M15.8,6.65,13.59,8a.73.73,0,0,0-.34.62v18a.73.73,0,0,0,.73.73h8.56a.74.74,0,0,0,.74-.73V13.9a.74.74,0,0,0-.21-.51L16.72,6.76A.73.73,0,0,0,15.8,6.65Zm6,19.21H14.72V9.06l1.35-.85,5.74,6Z"/><path class="cls-1" d="M31.5,8.26l-5.61,5.62a.48.48,0,0,0-.15.36V26.82a.51.51,0,0,0,.51.51h5.61a.51.51,0,0,0,.52-.51V8.63a.52.52,0,0,0-.88-.37Zm-.15,18H26.77V14.45l4.58-4.58Z"/><path class="cls-1" d="M36.32.16,24.18,9.09l-7.06-7.4a.89.89,0,0,0-1.05-.13L.38,12.47c-.9.63,0,2.13.88,1.49L16.39,3.44l7.08,7.4a.86.86,0,0,0,1.05.14L37.2,1.66C38.08,1,37.22-.5,36.32.16Z"/></g></g></svg>