<svg xmlns="http://www.w3.org/2000/svg" viewBox="0 0 34.28 21.53"><defs><style>.cls-1{fill:#272525;}</style></defs><g id="Слой_2" data-name="Слой 2"><g id="Layer_1" data-name="Layer 1"><path class="cls-1" d="M4,20l3.3-6.75,6.58,0L17.21,20a2.58,2.58,0,0,0,2.2,1.53,1.77,1.77,0,0,0,.77-.18,1.93,1.93,0,0,0,1-1.38,2.86,2.86,0,0,0-.26-1.8L12.78,1.53A2.85,2.85,0,0,0,11.49.21l-.06,0A1.61,1.61,0,0,0,10.7,0h-.13a1.64,1.64,0,0,0-.76.18l-.06,0A2.85,2.85,0,0,0,8.46,1.53L.31,18.17A2.86,2.86,0,0,0,.05,20a1.9,1.9,0,0,0,1,1.38A2.33,2.33,0,0,0,4,20Zm-2.82-.27a1.74,1.74,0,0,1,.16-1L9.52,2.05a1.66,1.66,0,0,1,.77-.78l0,0,0,0a.56.56,0,0,1,.23,0h.07a.46.46,0,0,1,.21,0l.08,0a1.66,1.66,0,0,1,.77.78L19.86,18.7a1.67,1.67,0,0,1,.17,1,.75.75,0,0,1-.37.55c-.43.22-1.07-.16-1.38-.81l-3.62-7.39-8.07,0L3,19.47c-.32.65-1,1-1.38.81A.75.75,0,0,1,1.21,19.73Z"/><path class="cls-1" d="M10.62,3.84,7.41,10.39l6.43,0Zm0,2.7,1.31,2.67H9.31Z"/><path class="cls-1" d="M32.27,8.09h0a1.84,1.84,0,0,0-2,1.6,6.19,6.19,0,1,0,.34,11.13,2.16,2.16,0,0,0,1.65.71h0a2.3,2.3,0,0,0,1.35-.42,1.55,1.55,0,0,0,.67-1.22l0-10.15a1.44,1.44,0,0,0-.44-1.05A2.25,2.25,0,0,0,32.27,8.09Zm.8,11.79a.37.37,0,0,1-.18.27,1.1,1.1,0,0,1-.66.19c-.45,0-.8-.23-.82-.44a.61.61,0,0,0-.35-.46.69.69,0,0,0-.24-.05.64.64,0,0,0-.33.1,5,5,0,0,1-2.79.85,5,5,0,1,1,2.8-9.16.58.58,0,0,0,.61,0,.61.61,0,0,0,.31-.53v-1c0-.19.33-.46.84-.46h0a1,1,0,0,1,.73.26.31.31,0,0,1,.11.21Z"/><path class="cls-1" d="M27.7,11.63a3.71,3.71,0,1,0,3.71,3.71A3.71,3.71,0,0,0,27.7,11.63Zm0,6.23a2.53,2.53,0,1,1,2.52-2.52A2.52,2.52,0,0,1,27.7,17.86Z"/></g></g></svg>