<svg width="750" height="374" viewBox="0 0 750 374" fill="none" xmlns="http://www.w3.org/2000/svg">
<rect x="72" y="6" width="585" height="318" fill="white"/>
<path d="M71 6.5V325.5H685.5M71 6.5L56.5 45.5M71 6.5L86 45.5M685.5 325.5L646 305M685.5 325.5L646 342" stroke="black" stroke-width="4"/>
<path d="M10.94 8.5L13.08 18.56L14.9 8.5H18.32L15.04 23H11.36L9.16 12.78L6.98 23H3.32L0 8.5H3.46L5.44 18.52L7.4 8.5H10.94ZM19.6403 8.5H25.2203C26.2203 8.5 27.0936 8.57333 27.8403 8.72C28.6003 8.85333 29.287 9.09333 29.9003 9.44C30.527 9.77333 31.0003 10.26 31.3203 10.9C31.6403 11.5267 31.8003 12.3 31.8003 13.22C31.8003 14.14 31.6403 14.92 31.3203 15.56C31.0003 16.2 30.527 16.6933 29.9003 17.04C29.287 17.3867 28.6003 17.6333 27.8403 17.78C27.0936 17.9133 26.2203 17.98 25.2203 17.98H23.0603V23H19.6403V8.5ZM25.3203 11.38H23.0603V15.1H25.3203C26.2136 15.1 26.9136 14.9667 27.4203 14.7C27.927 14.42 28.1803 13.9267 28.1803 13.22C28.1803 12.5133 27.927 12.0333 27.4203 11.78C26.927 11.5133 26.227 11.38 25.3203 11.38ZM42.9755 23H39.7555L36.4955 11.4V23H33.1755V8.5H38.5755L41.3555 18.9L44.1955 8.5H49.5355V23H46.2155V11.38L42.9755 23Z" fill="#3E0808"/>
<path d="M666.74 366V354.5H662.1V351.5H674.84V354.5H670.18V366H666.74ZM676.129 355.24H679.449V366H676.129V355.24ZM676.129 351.5H679.429V354.14H676.129V351.5ZM685.113 360.4V366H681.813V355.24H685.113V356.66C685.379 356.207 685.799 355.82 686.373 355.5C686.959 355.167 687.626 355 688.373 355C689.999 355 691.066 355.607 691.573 356.82C692.399 355.607 693.626 355 695.253 355C696.586 355 697.519 355.373 698.053 356.12C698.599 356.867 698.873 358.007 698.873 359.54V366H695.573V360.36C695.573 359.987 695.566 359.687 695.553 359.46C695.539 359.233 695.499 358.987 695.433 358.72C695.379 358.453 695.293 358.247 695.173 358.1C695.066 357.94 694.906 357.813 694.693 357.72C694.479 357.613 694.219 357.56 693.913 357.56C693.246 357.56 692.759 357.793 692.453 358.26C692.146 358.713 691.993 359.427 691.993 360.4V366H688.693V360.36C688.693 359.987 688.686 359.687 688.673 359.46C688.659 359.233 688.619 358.987 688.553 358.72C688.499 358.453 688.413 358.247 688.293 358.1C688.186 357.94 688.026 357.813 687.813 357.72C687.599 357.613 687.339 357.56 687.033 357.56C686.366 357.56 685.879 357.793 685.573 358.26C685.266 358.713 685.113 359.427 685.113 360.4ZM708.612 362.62H711.652C711.198 363.82 710.478 364.727 709.492 365.34C708.505 365.953 707.438 366.26 706.292 366.26C704.518 366.26 703.092 365.753 702.012 364.74C700.932 363.713 700.392 362.32 700.392 360.56C700.392 358.88 700.945 357.52 702.052 356.48C703.172 355.44 704.538 354.92 706.152 354.92C707.925 354.92 709.318 355.527 710.332 356.74C711.345 357.953 711.798 359.527 711.692 361.46H703.712C703.765 362.18 704.025 362.733 704.492 363.12C704.972 363.507 705.538 363.7 706.192 363.7C707.378 363.7 708.185 363.34 708.612 362.62ZM706.152 357.44C705.525 357.44 704.985 357.607 704.532 357.94C704.092 358.273 703.832 358.78 703.752 359.46H708.412C708.385 358.807 708.165 358.307 707.752 357.96C707.338 357.613 706.805 357.44 706.152 357.44Z" fill="#3E0808"/>
<line x1="192.222" y1="115.72" x2="345.222" y2="172.72" stroke="#FF0000" stroke-width="7"/>
<line x1="341.985" y1="171.139" x2="456.985" y2="90.1385" stroke="#FF0000" stroke-width="7"/>
<line x1="455" y1="90.5" x2="657" y2="90.5" stroke="#FF0000" stroke-width="7"/>
<line x1="71.0999" y1="148.618" x2="195.1" y2="115.618" stroke="#FF0000" stroke-width="7"/>
</svg>
