<svg width="150" height="150" viewBox="0 0 150 150" fill="none" xmlns="http://www.w3.org/2000/svg">
<circle cx="75" cy="75" r="74" fill="#F3D468" stroke="black" stroke-width="2"/>
<path d="M75.7316 66.717H85.9508C86.2199 66.717 86.478 66.6101 86.6683 66.4198C86.8586 66.2295 86.9655 65.9714 86.9655 65.7023V49.0147C86.9655 48.7456 86.8586 48.4875 86.6683 48.2972C86.478 48.1069 86.2199 48 85.9508 48H63.9905C63.7214 48 63.4633 48.1069 63.273 48.2972C63.0827 48.4875 62.9758 48.7456 62.9758 49.0147V65.7204C62.9758 65.9895 63.0827 66.2476 63.273 66.4379C63.4633 66.6282 63.7214 66.7351 63.9905 66.7351H75.7135L75.7316 66.717ZM65.0414 64.7058V50.0475H84.9724V64.7058H65.0414Z" fill="#272525"/>
<path d="M58.9715 100.545V83.894C58.9715 83.7592 58.9447 83.6258 58.8926 83.5015C58.8405 83.3772 58.7641 83.2645 58.6679 83.17C58.5718 83.0756 58.4578 83.0012 58.3326 82.9513C58.2074 82.9014 58.0735 82.8769 57.9387 82.8793H36.0147C35.7456 82.8793 35.4875 82.9862 35.2972 83.1765C35.1069 83.3668 35 83.6249 35 83.894V100.545C35 100.814 35.1069 101.073 35.2972 101.263C35.4875 101.453 35.7456 101.56 36.0147 101.56H57.9387C58.0735 101.562 58.2074 101.538 58.3326 101.488C58.4578 101.438 58.5718 101.364 58.6679 101.269C58.7641 101.175 58.8405 101.062 58.8926 100.938C58.9447 100.814 58.9715 100.68 58.9715 100.545V100.545ZM56.9241 99.5126H36.9931V84.9086H56.9241V99.5126Z" fill="#272525"/>
<path d="M63.9905 82.8792C63.7214 82.8792 63.4633 82.9861 63.273 83.1763C63.0827 83.3666 62.9758 83.6247 62.9758 83.8938V100.545C62.9758 100.814 63.0827 101.072 63.273 101.263C63.4633 101.453 63.7214 101.56 63.9905 101.56H85.9508C86.2199 101.56 86.478 101.453 86.6683 101.263C86.8586 101.072 86.9655 100.814 86.9655 100.545V83.8938C86.9655 83.6247 86.8586 83.3666 86.6683 83.1763C86.478 82.9861 86.2199 82.8792 85.9508 82.8792H63.9905ZM84.8999 99.5668H64.9689V84.9085H84.8999V99.5668Z" fill="#272525"/>
<path d="M92.0026 82.8792C91.7335 82.8792 91.4754 82.9861 91.2851 83.1763C91.0948 83.3666 90.9879 83.6247 90.9879 83.8938V100.545C90.9879 100.814 91.0948 101.072 91.2851 101.263C91.4754 101.453 91.7335 101.56 92.0026 101.56H113.945C114.214 101.56 114.472 101.453 114.662 101.263C114.853 101.072 114.959 100.814 114.959 100.545V83.8938C114.959 83.6247 114.853 83.3666 114.662 83.1763C114.472 82.9861 114.214 82.8792 113.945 82.8792H92.0026ZM112.912 99.5668H92.981V84.9085H112.912V99.5668Z" fill="#272525"/>
<path d="M47.5746 81.4479H49.0604V75.8853H74.2278V81.4479H75.7317V75.8853H100.899V81.4479H102.385V74.3996H75.7317V66.7533V66.699H74.2278V66.7533V74.3996H47.5746V81.4479Z" fill="#272525"/>
</svg>
