<svg id="Слой_1" data-name="Слой 1" xmlns="http://www.w3.org/2000/svg" viewBox="0 0 2762.12 1653.64"><defs><style>.cls-1{fill:#ebf3fa;}.cls-2{fill:#233862;}.cls-3{fill:#2a4e96;}.cls-4{fill:#aec3ff;}.cls-5{fill:#ffb27d;}.cls-6{fill:#ed7d2b;}.cls-7{fill:#f99746;}.cls-8{fill:#fff;}.cls-9{fill:#e2915a;}.cls-10{fill:#db6516;}.cls-11{fill:#9db0f4;}.cls-12{fill:#163560;}.cls-13{fill:#ed975d;}.cls-14{fill:#2b478b;}.cls-15{fill:#6bb7bf;}.cls-16{fill:#86d1cd;}.cls-17{fill:#f1a34f;}.cls-18{fill:#db7714;}.cls-19{fill:#5685d8;}.cls-20{fill:#739af0;}.cls-21{fill:#a9453d;}.cls-22{fill:#2e3552;}</style></defs><path class="cls-1" d="M386.28,1808.06l852.19-4.46,227.15-.07,75.26,0,227.58-.07,1039.77-.28s237.82-307.78-16.22-600.1C2528.62,900,2400.55,1146.8,2319.59,720.17,2115.79-353.7,100.92,271.32,629.4,1185.14,819.69,1514.18,254.83,1339.29,386.28,1808.06Z" transform="translate(-215.1 -154.42)"/><path class="cls-2" d="M1372,1756.32s3.24,37.45-4.68,41.35l-101.31-.21s0-11.69,16.27-14.29,44.86-12.13,49.7-33.35S1372,1756.32,1372,1756.32Z" transform="translate(-215.1 -154.42)"/><path class="cls-2" d="M1662.75,1741.82s3,52-4.87,55.85l-101.31-.21s0-11.69,16.27-14.29,44.86-12.13,49.7-33.35S1662.75,1741.82,1662.75,1741.82Z" transform="translate(-215.1 -154.42)"/><path class="cls-3" d="M1666.2,1748.21s-20.11,10.37-28.72,12.25c-9.56,2.11-27.53.77-27.53.77-34.46-92.38-141.33-467.91-141.33-467.91-4.64,103.84-23.39,207.4-42.86,290.65-.51,2.23-1,4.44-1.56,6.64v0c-.47,2-1,4-1.42,5.95a1.47,1.47,0,0,0-.06.27c-23.64,98.24-47.34,165.14-47.34,165.14s-6.12,7.74-23.16,4.2c-19.53-4-26-12.63-26-12.63,12.64-400.14,19.69-625.77,19.69-625.77s169.15-91.38,215.1-13.27S1666.2,1748.21,1666.2,1748.21Z" transform="translate(-215.1 -154.42)"/><path class="cls-4" d="M1598,1168.49c-21.93-78.4-25.53-152.84-25.36-214.47.23-87.72,8.11-149.5-18.29-159.91,0,0-81.56-23.71-137.7-34.16-8.94-4.92-18.87-10.08-26.4-13.14-17.72-7.19-86.83-107.65-98.55-131.7s-31.11-128.84-31.11-128.84l-26.93,8.58s-8.09,117.63-4.21,148.29,89.45,162.48,96.55,174h0c30.46,111.35,0,292.55,13.92,332.95,7.16,20.78,140,58.86,212.66,54.07,3.62-.24,7.1-.59,10.4-1h0c17.2-2.39,29.71-7.88,34.29-17.52C1599.58,1180.92,1599.94,1175.25,1598,1168.49Z" transform="translate(-215.1 -154.42)"/><path class="cls-5" d="M1260.63,486.27s15.22-44.22,4.09-45.5-39.06-1.15-42.5,6.32,11.48,47.76,11.48,47.76Z" transform="translate(-215.1 -154.42)"/><path class="cls-6" d="M970.93,596.42,881.1,542.1a27.9,27.9,0,0,1,38.32-9.43,12.3,12.3,0,0,0,16.88-4.17l24.31-40.19,21,12.72-24.31,40.19a12.29,12.29,0,0,0,4.16,16.89,27.91,27.91,0,0,1,9.44,38.31Z" transform="translate(-215.1 -154.42)"/><path class="cls-7" d="M970.93,596.42l-59.72-36.11c-13.83-11.54-7.07-21.43-.13-23.13a27.81,27.81,0,0,1,21.12,3.22,12.3,12.3,0,0,0,16.88-4.17L973.39,496l8.25,5-24.31,40.19a12.29,12.29,0,0,0,4.16,16.89,27.91,27.91,0,0,1,9.44,38.31Z" transform="translate(-215.1 -154.42)"/><path class="cls-7" d="M1233.7,334.55,1161,426.19C1135.73,468,1092,488,1050.16,489.7h0a137.14,137.14,0,0,1-41.35-4.54c-10.76-2.94-23.16,2.86-30,14.11l-1.42,2.36c-4.23,7-7.76,12.81-7.76,12.81l-15.31-9.26s3.56-5.91,7.81-12.93c7.46-12.38,7.06-27.49-1.13-36.65-35-39.14-48.11-103.89-14.65-159.22l49.22-105.83Z" transform="translate(-215.1 -154.42)"/><path class="cls-6" d="M929.6,370.75c5.94-34.33-10.66-53-28.24-72.84-14.06-15.84-28.59-32.21-31.72-56.59-3.47-27,9.12-54.62,31.32-68.66,16.88-10.67,35.53-11,51.19-1,22.24,14.28,30.51,41.93,23.91,80a227.84,227.84,0,0,1-15.76,51.19l-13.95-6.47c.39-.85,38.81-85.19-2.51-111.74-14.25-9.17-27.84-3.29-34.66,1-17,10.73-27,32.81-24.28,53.7,2.52,19.66,14.88,33.58,28,48.32,18.33,20.65,39.1,44.05,31.9,85.69Z" transform="translate(-215.1 -154.42)"/><path class="cls-7" d="M1102.91,475.56c27.65-21.21,51.93-15.19,77.63-8.82,20.56,5.09,41.81,10.36,64.85,1.81,25.55-9.49,44.14-33.45,46.26-59.62,1.6-19.91-6.76-36.58-22.92-45.79-23-13.06-51.31-7.54-81.92,16a228.15,228.15,0,0,0-38,37.74l12.21,9.35c.57-.74,57.42-73.94,100.12-49.68,14.74,8.37,15.84,23.13,15.19,31.18-1.62,20-16.54,39.11-36.28,46.44-18.59,6.9-36.65,2.42-55.78-2.32-26.8-6.64-57.17-14.17-90.7,11.54Z" transform="translate(-215.1 -154.42)"/><path class="cls-6" d="M1050.14,489.7a137.14,137.14,0,0,1-41.35-4.54c-10.76-2.94-23.16,2.86-30,14.11l-1.42,2.36c-5.35,2.76-9.4,6.24-11.31,10.66l-11.76-7.11s3.56-5.91,7.81-12.93c7.46-12.38,7.06-27.49-1.13-36.65-35-39.14-48.11-103.89-14.65-159.22l49.22-105.83,39.37,23.8S875.11,430.93,1050.14,489.7Z" transform="translate(-215.1 -154.42)"/><path class="cls-7" d="M979.29,523.75,940.07,500a11.34,11.34,0,0,1-3.82-15.53h0a11.35,11.35,0,0,1,15.53-3.83L991,504.39a11.34,11.34,0,0,1,3.82,15.53h0A11.34,11.34,0,0,1,979.29,523.75Z" transform="translate(-215.1 -154.42)"/><path class="cls-8" d="M991.29,392l4.21-7c20,10.78,22.52,9.5,30.71-4l41.18-68.1c5.8-9.59,2.87-12.39-4.28-18L1058,290.5l3.75-6.21c15.51,7.07,34,13.09,47.45,15.85l-58,95.94c-8.42,13.92-8.32,16.3,10.3,28.84l-4.21,7Z" transform="translate(-215.1 -154.42)"/><path class="cls-5" d="M1222.22,447.09s-1.44,15.22,3.44,18.09,6.61-18.09,6.61-18.09.28,17.19,4,18.36,6-19.8,6-19.8.4,16.66,2.93,16.08,4.25-16.08,4.25-16.08,1.15,12.09,4.59,9.92,6.72-15.14,6.72-15.14Z" transform="translate(-215.1 -154.42)"/><path class="cls-5" d="M1260.63,486.27s10.41-8.17,12.7-15.63,9.05-20,5.46-21.54-14.07,14.64-14.07,14.64Z" transform="translate(-215.1 -154.42)"/><path class="cls-5" d="M1441,747.92l-1.3,6.8s-6.06,20.89,19.5,29.17,47.09,12.12,49.63-4.42c.15-13.16-.17-33.71,1.73-44.25a75.7,75.7,0,0,1,3.45-12.54l-50.51-11-15.42-.52Z" transform="translate(-215.1 -154.42)"/><path class="cls-9" d="M1448.09,711.12l-4.7,24.8c48,12.71,69-8.71,70.63-13.24l-50.51-11Z" transform="translate(-215.1 -154.42)"/><path class="cls-5" d="M1521.42,712.39c-14.88,30.25-55.77,17.64-73,10.64-4.85-2-7.82-3.48-7.82-3.48-5.22-3.09-5.88-12.87-4.07-24.93,3.56-23.87,16.73-56.69,23-64.25,9.52-11.38,24.51-22.37,63.13-.57S1540.5,673.64,1521.42,712.39Z" transform="translate(-215.1 -154.42)"/><path class="cls-2" d="M1455.38,596.42a142.43,142.43,0,0,0,42.8.4c19.61-2.69,39.3,11.86,45.4,17.64a11.1,11.1,0,0,0-.54-4.8s2.58,3.18,2.16,6.5c.26.34.36.55.26.58s3.83.36,5.87,2.07c0,0-1.57-.7-2.45.19a1.17,1.17,0,0,1-.34.22c23.56,20.82,14,64.6,2.42,72.1-13.92,9-37.82,33.89-37.82,33.89a61.39,61.39,0,0,1,5.72-19.09c4.88-10-4.23-12.57-14.4-20.6s3.2-18.76-4.58-29.75-46.07-16.54-43.84-22.65C1443.73,624.28,1455,597.83,1455.38,596.42Z" transform="translate(-215.1 -154.42)"/><path class="cls-8" d="M1461.52,701.24s-2.49,3.74-12.46-.68c0,0-8.36-3.7-6.43-8.11C1442.63,692.45,1452.12,692.32,1461.52,701.24Z" transform="translate(-215.1 -154.42)"/><path class="cls-6" d="M1450.3,803.49s-23,152.87-195.35,259l-16.08,46.72h62.2s154.33-129.43,164.68-301.35Z" transform="translate(-215.1 -154.42)"/><polygon class="cls-10" points="1235.2 649.07 1235.2 625.89 1263.61 633.93 1250.65 653.46 1235.2 649.07"/><path class="cls-11" d="M1441,747.92l-16.62,14.21S1419.8,782,1431,803.49l33.5-19.15S1444.71,774.78,1441,747.92Z" transform="translate(-215.1 -154.42)"/><path class="cls-11" d="M1464.5,784.34s3.32,18,12,26.89c0,0,37.74-6.6,48.22-24.69L1509,761.84S1505.18,778.69,1464.5,784.34Z" transform="translate(-215.1 -154.42)"/><path class="cls-5" d="M1690.64,1180.56s.07,34.23-3.08,41-17.28,29-23.79,33.72,1.41-27.41-.64-33.29-4.55,11.6-7.56,12.32-3.83-14.69-4.53-20.25,12.84-20.91,16.87-33.34S1690.64,1180.56,1690.64,1180.56Z" transform="translate(-215.1 -154.42)"/><path class="cls-4" d="M1553.86,794.1s33.18,9,55.67,58.53c23.59,51.9,86.71,167.17,89,183.08s-4.18,164.48-4.18,164.48-27.62,1.07-36.15-12c0,0-9.62-130.43-13.87-137.52s-113-136.72-103.8-169.61S1553.86,794.1,1553.86,794.1Z" transform="translate(-215.1 -154.42)"/><path class="cls-11" d="M1597.34,1185.6c-8.22,7.06-19.33,13.2-34.29,17.52h0a27.35,27.35,0,0,1-10.4,1c-60.74-6.26-51.4-242.26-22-259.69,31-18.38,42,9.53,42,9.53-.17,61.63,3.43,136.07,25.36,214.47C1599.94,1175.25,1599.58,1180.92,1597.34,1185.6Z" transform="translate(-215.1 -154.42)"/><path class="cls-2" d="M1422.78,1596.59q.6-2.76,1.42-5.95C1423.73,1592.64,1423.25,1594.63,1422.78,1596.59Z" transform="translate(-215.1 -154.42)"/><path class="cls-2" d="M1425.76,1584c18.59-88-1.45-323.7,7.5-328.18,9.19-4.59,35.36,37.53,35.36,37.53C1464,1397.16,1445.23,1500.72,1425.76,1584Z" transform="translate(-215.1 -154.42)"/><polygon class="cls-5" points="756.19 1609.21 750.83 1570.63 773.34 1551.82 780.43 1602.91 756.19 1609.21"/><path class="cls-2" d="M1046,1798.11H954.27s-2.2-14,2.6-24.6c4.59-10.18,11.73-16.46,12.39-24.26,5.83,6,13,9.87,26.26,8.08,1.63,2.64,10.49,16.74,15.92,20.64C1017.44,1782.28,1044.17,1780.74,1046,1798.11Z" transform="translate(-215.1 -154.42)"/><path class="cls-7" d="M1027.59,1242.6c-6,48.27-10.91,93.77-14.91,136.18-21.35,226-17.16,364.08-17.16,364.08S994,1747,980.74,1747a75.65,75.65,0,0,1-14.81-1.6s-47.8-147.55-44.11-231.52a127.78,127.78,0,0,1,3.73-27.18c11.46-43-42.44-207.26,16.16-268.44S1030.35,1220.45,1027.59,1242.6Z" transform="translate(-215.1 -154.42)"/><path class="cls-6" d="M1027.59,1242.6c-6,48.27-10.91,93.77-14.91,136.18l-90.86,135.11a127.78,127.78,0,0,1,3.73-27.18c11.46-43-42.44-207.26,16.16-268.44S1030.35,1220.45,1027.59,1242.6Z" transform="translate(-215.1 -154.42)"/><path class="cls-5" d="M1099.79,782.22s-2.21-11-4.7-19.44c-1.1-3.72,6.58-28.18,11.9-31.19s19.15,13.46,15.24,26.11c-2,6.49-5.32,27.63-5.32,27.63Z" transform="translate(-215.1 -154.42)"/><path class="cls-5" d="M1099.79,782.22s-2.89-6.39-5.49-7.43-5.41-11.49-7.33-15.63c0,0,1.85-2.71,5.09.77,2,2.13,6.38,8.37,6.38,8.37Z" transform="translate(-215.1 -154.42)"/><path class="cls-5" d="M721.05,819.32c-.56,1.16-1.34,3.23-2,5.18,0-.53,0-1.06,0-1.57,0-3.89-14.54-25-20.5-26.35s-14.38,18.48-6.94,29.43c3.83,5.62,13.18,24.87,13.18,24.87l15.45-8s.89-7,3.09-8.72,1.8-12.57,2.42-17.09C725.69,817.09,723.13,815,721.05,819.32Z" transform="translate(-215.1 -154.42)"/><path class="cls-5" d="M817.42,1752.07c-1.3-12.37-1.62-44.9-1.62-44.9s33.16-10.6,31.94-3.33c-6,35.78-4.37,53.49-4.37,53.49l-13.41,8Z" transform="translate(-215.1 -154.42)"/><path class="cls-7" d="M999.9,1240.3s-128.09,351.11-153.3,503.41c0,0-5.85,4-16.74,2.68-12.36-1.51-15.75-10.09-15.75-10.09S791,1553.76,837,1490.39c31.59-43.54-13.63-234.75,60-250.09S999.9,1240.3,999.9,1240.3Z" transform="translate(-215.1 -154.42)"/><path class="cls-12" d="M977.15,902.56h0a2.36,2.36,0,0,0-.1-.46c-.75-3.09-1.57-6.13-2.45-9.15h0a207,207,0,0,0-9.31-25.79,135.38,135.38,0,0,0-6.14-12.24c-.32-.57-.63-1.1-.93-1.64h0c-5-8.32-10-14.07-14.63-15.85-8.37-3.24-17.68-2.33-24.1-1,1.41-2,4.6-3.08,4.6-3.08-4.1,0-12.46,5.31-12.46,5.31-59-13.19-55.55,70.26-51.53,89.17s-15,28.11-41.78,47.46c-51.12,36.93-50.26,76.08-50.26,76.08.46.19,1,.41,1.48.68,2.06-5.07,6.42-14.65,11-16.68-.13.45-3.85,12.87-4.91,19.82,7.79,4.29,18.56,10.94,30.26,18.44h0c15.66,10,32.94,21.55,46.78,30.91-.66-3.81-1.31-9.24-.34-12.31l4.41,13.67.58,1.78c8.84,6,15.81,10.78,19.35,13.23l1,.67,1.58,1.1c-1.17-4.83,4-17.43,12.64-33.3.6-1.11,1.23-2.23,1.87-3.37,2.79-5,5.91-10.31,9.27-15.76,1.21-2,2.43-3.94,3.7-6h0c1-1.62,2-3.22,3.11-4.86h0q3.76-5.82,7.75-11.69c6.86-10.13,14.12-20.18,21.29-29.41,10.42-13.42,20.64-25.1,29.2-32.74.28-.58.55-1.16.79-1.76A58.53,58.53,0,0,0,972,973.71q.38-1.59.66-3.18a137.55,137.55,0,0,0,2.15-25,141.92,141.92,0,0,1-.31,25.21c-.17,1.36-.35,2.62-.55,3.78v0a51.86,51.86,0,0,1-1.55,6.63,34,34,0,0,0,3.72-5.73,38.71,38.71,0,0,0,1.94-4.28C985,953.51,983.13,927.22,977.15,902.56Z" transform="translate(-215.1 -154.42)"/><path class="cls-5" d="M966.06,987.1c.2.06-16.51,12.16-30.69,10.46-13.34-1.59-24.18-17-24-17,5.27-1.88,5.72-9.57.84-41.6l2.53.12,42.46,2s1,13.12,2.79,25.35C961.48,976.71,963.55,986.35,966.06,987.1Z" transform="translate(-215.1 -154.42)"/><path class="cls-13" d="M957.19,941.08s1,13.12,2.79,25.35c-23.18,2.79-38.52-16.46-45.25-27.38Z" transform="translate(-215.1 -154.42)"/><path class="cls-12" d="M909.8,935.19S894.86,917.87,889.52,902c-3.81-11.36-4.3-55.5,40.09-55.73a59.65,59.65,0,0,1,25.87,5.61c10.39,5,26,16.71,16.44,56.72l-2.06,13.33Z" transform="translate(-215.1 -154.42)"/><path class="cls-8" d="M1032.94,1233.56s-55.26,32.84-124.65,16c-.82-.2-57.13-9.19-57.13-9.19,1-2.65,8.24-46.15,9.2-48.58,12.31-31.77,34.8-204.17,53.6-212.67,4.8,5.22,18.51,8.8,30.25,7.76,13.52-1.2,18-7,16.93-13.32,15,7.07,26.45,13.65,26.45,13.65C1001.26,1007.66,1032.94,1233.56,1032.94,1233.56Z" transform="translate(-215.1 -154.42)"/><path class="cls-5" d="M966.62,951.51s-54.48,9-59.58-25-15.56-55.76,19-63,43.29,4.77,47.75,15.71S980.67,948.29,966.62,951.51Z" transform="translate(-215.1 -154.42)"/><path class="cls-12" d="M950.8,859s-9,42.14-31.09,51.45-32.94,4.65-32.94,4.65,15.52-16.6,15.55-41.56C902.32,873.57,936.7,841.71,950.8,859Z" transform="translate(-215.1 -154.42)"/><path class="cls-12" d="M947.58,862.82s12.49,7.25,16.5,15.51,7.89,25.91,13,24.53c0,0,7.23-28.81-7.71-42.27C953.52,846.31,947.58,862.82,947.58,862.82Z" transform="translate(-215.1 -154.42)"/><path class="cls-14" d="M1117.28,783c-2.22-.78-5.48-2.63-9.74-3a30.24,30.24,0,0,0-8.56.9s-15.37,95.55-16.51,100.61-65.94,78-83.4,77.76c-15.78-.27-34.46,11.91-37.93,14.25,0,0,36.73,77.68,38.56,92.27,2,15.88,21,260.37,21,260.37s-1.13,11.38,20.12,5.26,26.57-11.17,26.57-11.17-19.52-192.49-23.62-252.35a114.47,114.47,0,0,0-3.73-22.33,22.62,22.62,0,0,1,3.66-19.23c26.87-36.89,69.3-96.64,71.66-109.34C1118.85,898.33,1117.28,783,1117.28,783Z" transform="translate(-215.1 -154.42)"/><path class="cls-2" d="M893.87,1798.11H802.12s-2.2-14,2.59-24.6c4.59-10.18,11.74-16.46,12.39-24.26,5.83,6,13,9.87,26.27,8.08,1.62,2.64,10.49,16.74,15.92,20.64C865.28,1782.28,892,1780.74,893.87,1798.11Z" transform="translate(-215.1 -154.42)"/><path class="cls-14" d="M956.89,1073.33c-3.09-19-42.57-95.43-42.57-95.43s-25-7.46-41.38-1.51-101.41-42-104.14-46.45-48.24-89.24-48.24-89.24-3.78-2.18-9.82,1a11.06,11.06,0,0,0-6,9.21s35.13,106.79,44.47,123.31c5.64,10,53,44.65,89.76,70.62a23,23,0,0,1,9.55,21.91c-4.94,36.52-6.2,57.09-11.88,119.75-4.71,52-6.52,152.63-6.52,152.63s41.11,14.22,69.49,16.11,34.55-28,34.55-28S960.07,1092.9,956.89,1073.33Z" transform="translate(-215.1 -154.42)"/><path class="cls-8" d="M948.77,934.7a24.37,24.37,0,0,0,14.44,2.71c5.35-.8,6.56-7.15,6.56-7.15s-3.72-1.18-9.65,0A41.13,41.13,0,0,0,948.77,934.7Z" transform="translate(-215.1 -154.42)"/><path class="cls-12" d="M2010.06,927.57S2027,955.46,1995.17,973c0,0,24.46,8.82,33,5.49a18.35,18.35,0,0,1-3.71,3s23,7.3,34.44,3.31,36.14-115.28-31.71-121.15c0,0-53.52-19.17-64.84,40.56s-31.92,53.93-31.92,53.93,5,4.22,7.76,5c0,0,4.45-.29,5.83-2.13,0,0-1.71,3-3,3.76,0,0,21.7,8.2,35,3.58S2009.85,940.48,2010.06,927.57Z" transform="translate(-215.1 -154.42)"/><path class="cls-2" d="M1942,1806.24h86.56s2.07-13.19-2.45-23.2c-4.33-9.61-11.07-15.54-11.69-22.89-5.5,5.66-12.26,9.3-24.78,7.62-1.53,2.49-9.9,15.79-15,19.47C1968.92,1791.3,1943.69,1789.86,1942,1806.24Z" transform="translate(-215.1 -154.42)"/><path class="cls-14" d="M2013.48,1773.18a78.46,78.46,0,0,1-15.1,3.07c-13.63,1.22-15.62-2.84-15.62-2.84s-13.55-120.62-57.41-351.17c-6.32-33.3-8.82-51.73-11.11-81.32-.68-8.87-1.35-18.72-2.08-30.28-2-31.08,2.73-83.37,26-97.12,10.6-6.26,25-4.54,44.46,10.76,1.53,1.2,3.1,2.49,4.69,3.87,56.83,49.17,33.53,190.35,35.83,256.73.38,11,1.47,19.95,3.74,26.08,2.93,7.93,9.23,18.93,10.66,29.28C2049.52,1626.33,2013.48,1773.18,2013.48,1773.18Z" transform="translate(-215.1 -154.42)"/><path class="cls-2" d="M2023.19,1484.88l-109-144c-.68-8.87-1.35-18.72-2.08-30.28-2-31.08,2.73-83.37,26-97.12l44.46,10.76c1.53,1.2,3.1,2.49,4.69,3.87C2044.19,1277.32,2020.89,1418.5,2023.19,1484.88Z" transform="translate(-215.1 -154.42)"/><path class="cls-2" d="M2331.14,1624.07l-36-78.71s-12.86,3.6-20.08,11.88c-6.93,7.94-12,6.52-27.73-4.43,5.94,9.18,6.74,14.59,10.42,26.66,2.9.36,19.4,16.33,36.31,20.73C2300.77,1602,2315.51,1629.3,2331.14,1624.07Z" transform="translate(-215.1 -154.42)"/><path class="cls-14" d="M1953.41,1248.07s77.57,269.65,106,287,177.85,41.23,208.22,54.25c0,0,3.7-5.3,1.53-16.64-.48-2.51-4.77-11.57-4.77-11.57s-92.79-69.75-153.87-76.79c-15.15-1.75,30.86-233.21-71.56-242.46C1945.39,1233.42,1953.41,1248.07,1953.41,1248.07Z" transform="translate(-215.1 -154.42)"/><path class="cls-5" d="M1842.75,805.67s2.09-10.41,4.44-18.35c1-3.51-6.21-26.59-11.23-29.43s-18.07,12.7-14.38,24.64c1.9,6.13,5,26.07,5,26.07Z" transform="translate(-215.1 -154.42)"/><path class="cls-5" d="M1842.75,805.67s2.73-6,5.19-7,5.1-10.85,6.91-14.76c0,0-1.75-2.56-4.8.74-1.87,2-6,7.89-6,7.89Z" transform="translate(-215.1 -154.42)"/><path class="cls-5" d="M2200.09,840.66c.53,1.1,1.27,3.06,1.92,4.89l0-1.48c0-3.67,13.71-23.61,19.34-24.86s13.56,17.44,6.54,27.77c-3.61,5.3-12.43,23.46-12.43,23.46l-14.58-7.53s-.84-6.57-2.91-8.22-1.7-11.86-2.29-16.13C2195.71,838.56,2198.13,836.62,2200.09,840.66Z" transform="translate(-215.1 -154.42)"/><path class="cls-5" d="M1968.92,999c-.18.06,15.59,11.47,29,9.87,12.58-1.5,22.82-16,22.65-16.06-5-1.78-5.39-9-.79-39.26l-2.38.11-40.07,1.92s-.93,12.38-2.62,23.93C1973.25,989.16,1971.3,998.26,1968.92,999Z" transform="translate(-215.1 -154.42)"/><path class="cls-13" d="M1977.29,955.54s-.93,12.38-2.62,23.93c21.87,2.62,36.33-15.53,42.69-25.85Z" transform="translate(-215.1 -154.42)"/><path class="cls-12" d="M2022,950s14.1-16.34,19.13-31.35c3.59-10.72,4-52.36-37.83-52.59a56.26,56.26,0,0,0-24.4,5.3c-9.8,4.69-24.58,15.76-15.51,53.51l1.94,12.58Z" transform="translate(-215.1 -154.42)"/><path class="cls-5" d="M1918.67,1237.68s39.3,24.8,104.76,8.87c.77-.19,37.22-6,37.22-6-.91-2.5-39.22-65.78-40.11-68.08-11.62-30,15.28-173.05-2.46-181.08-4.53,4.93-17.47,8.31-28.54,7.33-12.76-1.13-17-6.64-16-12.57-14.11,6.67-25,12.88-25,12.88C1935.71,1018.36,1918.67,1237.68,1918.67,1237.68Z" transform="translate(-215.1 -154.42)"/><path class="cls-5" d="M1968.39,965.39s51.41,8.51,56.22-23.58,14.68-52.61-17.94-59.4-40.84,4.49-45.05,14.81S1955.15,962.34,1968.39,965.39Z" transform="translate(-215.1 -154.42)"/><path class="cls-12" d="M1983.32,878.13s8.51,39.76,29.33,48.54,31.08,4.39,31.08,4.39-14.64-15.67-14.66-39.21C2029.07,891.85,1996.63,861.79,1983.32,878.13Z" transform="translate(-215.1 -154.42)"/><path class="cls-12" d="M1986.36,881.71s-11.78,6.84-15.57,14.63-7.44,24.45-12.26,23.14c0,0-6.82-27.17,7.28-39.88C1980.76,866.13,1986.36,881.71,1986.36,881.71Z" transform="translate(-215.1 -154.42)"/><path class="cls-7" d="M2212.15,870.44s-33.15,100.76-42,116.34c-5.32,9.4-65,46.58-99.69,71.08a5.74,5.74,0,0,0-1.33,1.6l0,0c-8.65,13.38-35.54,96.18-29.11,111,27,62.46,45.55,86.62,52.29,104.14a16.64,16.64,0,0,1-10,21.67,284.37,284.37,0,0,1-46.77,12.24q-5.52,1-11.35,1.7c-53.27,6.76-89.34-5.74-107.65-15a24.39,24.39,0,0,1-13.35-23.14c1.1-19.76,11-39.32,15.44-86.84,3.37-36.06-27.74-90.94-26.42-110.13.52-7.59,6.49-16.67,9.72-22.55v0c5.72-10.42,8.86-19.83,5-25.06-25.35-34.79-80.09-82.77-82.33-94.75-3.27-17.61-1.79-126.42-1.79-126.42,2.09-.73,5.17-2.47,9.19-2.83a28.63,28.63,0,0,1,8.07.84s14.5,90.16,15.58,94.93S1918,973,1934.44,972.7c14.88-.25,35.86,11.24,39.13,13.45a158.08,158.08,0,0,0-16.69,55.65c-2.33,22.36,12.61,12.42,22-2.9,12.7-20.73,38.26-50.25,38.26-50.25s20.8-5.41,36.3.21,95.68-39.66,98.25-43.83,45.52-84.19,45.52-84.19,3.56-2.06,9.27.91A10.46,10.46,0,0,1,2212.15,870.44Z" transform="translate(-215.1 -154.42)"/><path class="cls-8" d="M1983.32,948s-2.2,4.44-5.15,4.52-10.47-.63-11-1.4a42.8,42.8,0,0,1-1.75-5.4S1977.85,945.18,1983.32,948Z" transform="translate(-215.1 -154.42)"/><path class="cls-6" d="M2082.35,1296.35a284.37,284.37,0,0,1-46.77,12.24c-18.38-25.34-49.49-57.22-41.48-115.87,8.27-60.62,67.87-124.42,75-133.22-8.65,13.38-35.54,96.18-29.11,111,27,62.46,45.55,86.62,52.29,104.14A16.64,16.64,0,0,1,2082.35,1296.35Z" transform="translate(-215.1 -154.42)"/><path class="cls-6" d="M1902,1052.63c5.72-10.42,8.86-19.83,5-25.06-25.35-34.79-80.09-82.77-82.33-94.75,5.43,13,71.72,51.92,90.36,68.64C1933.49,1018,1902.73,1051.82,1902,1052.63Z" transform="translate(-215.1 -154.42)"/><path class="cls-15" d="M789.24,572.8s12.42,17,11.09,36.43c-1,14.41-13.83,29-14.7,29.56L805.9,649.6s15-26.68,10-49c-1.55-6.83-8.74-17.76-14-22.64A19.51,19.51,0,0,0,789.24,572.8Z" transform="translate(-215.1 -154.42)"/><path class="cls-16" d="M747.8,574.61,735,546.23s59.91,2,79.76,50.84C814.72,597.07,772.8,567.17,747.8,574.61Z" transform="translate(-215.1 -154.42)"/><path class="cls-15" d="M521.5,1296.56s-14.28-10.78-18-26.89c-2.74-12,4.12-27,4.69-27.64l-19.14-3.82s-5.67,25.4,3.93,42.28c2.94,5.17,11.47,12.29,17,15A16.53,16.53,0,0,0,521.5,1296.56Z" transform="translate(-215.1 -154.42)"/><path class="cls-16" d="M554.75,1284.92l17.41,19.91s-49.2,13.07-77.33-21.74C494.83,1283.09,536.25,1297.1,554.75,1284.92Z" transform="translate(-215.1 -154.42)"/><path class="cls-17" d="M2711.25,1389.3s-1.25-18.71,33.88-27.77c15.74-4.06,50.8,3.16,28.58,37.65-23.12,35.87-43.73,22.92-43.73,22.92s48.21-37.73,28.92-55c-21.29-19-29.47,18.69-29.47,18.69A46.5,46.5,0,0,0,2711.25,1389.3Z" transform="translate(-215.1 -154.42)"/><path class="cls-18" d="M2723.72,1424.26s-13.14-7.11-7.93-22.9l18.88,3.28s-7.26,17.09,10.5,19.16C2745.17,1423.8,2728.08,1427.86,2723.72,1424.26Z" transform="translate(-215.1 -154.42)"/><path class="cls-19" d="M1491.8,420.63s19.63-28.27,49.73-8.25l18.33-17.53s-17.13-13-56.63,10.32C1477.38,420.42,1491.8,420.63,1491.8,420.63Z" transform="translate(-215.1 -154.42)"/><path class="cls-20" d="M1472.43,448.34s-3.88-32.45,50.43-52.69c0,0-19.63,9.52-25.69,41.86Z" transform="translate(-215.1 -154.42)"/><path class="cls-7" d="M1690.64,276.25s16-10.14,17.74-22.39c0,0,15.63.85,19,5.92,0,0-7.18,20.27-15.63,24.07C1711.76,283.85,1692.75,285.12,1690.64,276.25Z" transform="translate(-215.1 -154.42)"/><path class="cls-7" d="M1174.11,1432.89s-17.12-10.81-18.92-23.88c0,0-16.68.9-20.28,6.31,0,0,7.66,21.63,16.67,25.68C1151.58,1441,1171.86,1442.35,1174.11,1432.89Z" transform="translate(-215.1 -154.42)"/><path class="cls-16" d="M1877,595.64s17.2-10.87,19-24c0,0,16.74.9,20.36,6.34,0,0-7.69,21.72-16.74,25.79C1899.59,603.78,1879.22,605.14,1877,595.64Z" transform="translate(-215.1 -154.42)"/><path class="cls-5" d="M2211.67,1093.62s-9.94-12.06-15.29-13.76-15.69-9.7-17-6.4,6.95,8.39,6.51,12.16-26.4,9.83-26.24,13.82,6.11,13.64,16,12.54,35-7.07,40.18-4.5S2211.67,1093.62,2211.67,1093.62Z" transform="translate(-215.1 -154.42)"/><path class="cls-4" d="M2479.45,1034.93a212.58,212.58,0,0,1-49.46,47.51c-56.06,39-116.87,44.8-116.87,44.8-14.57-4.66-59.33-9.53-85.78-13.79h0c-11.54-1.86-19.58-3.6-20.12-5.15l.66-23s97.09-5.13,113.17-12.59c25.35-21.84,47.75-50.2,62.34-72.36,12.33-18.71,26.13-32.53,48.87-40.64C2465.15,947.94,2525,973.78,2479.45,1034.93Z" transform="translate(-215.1 -154.42)"/><path class="cls-11" d="M2434.93,1067.94l-4.94,14.5c-56.06,39-116.87,44.8-116.87,44.8-11.7,0-59.33-9.53-85.78-13.79,1,.08,72,5.63,87.7,4s89.38-65.4,89.38-65.4Z" transform="translate(-215.1 -154.42)"/><path class="cls-2" d="M2371.55,1798.11h107.3c7.68-5.22-2.08-56.19-2.08-56.19s-29.28-11.11-34.34,11.49-37.3,29.76-54.35,32.51C2376.41,1787.82,2372.72,1794.23,2371.55,1798.11Z" transform="translate(-215.1 -154.42)"/><path class="cls-2" d="M2530.68,1798.11H2638c7.69-5.22-2.07-56.19-2.07-56.19s-29.28-11.11-34.34,11.49-37.3,29.76-54.35,32.51C2535.53,1787.82,2531.85,1794.23,2530.68,1798.11Z" transform="translate(-215.1 -154.42)"/><path class="cls-14" d="M2400.42,1278.14s4.82,60.17,10.49,132.49c7.7,98.25,28.48,341.85,28.48,341.85s13.63,11.62,43.8,5.26c0,0,25.68-84,33.36-180q.18-2.36.36-4.74c7.15-97.64,18.26-303.25,18.26-303.25Z" transform="translate(-215.1 -154.42)"/><path class="cls-2" d="M2398.77,1257.34s6.47,81,12.14,153.29l105.64,167.16q.18-2.36.36-4.74c7.15-97.64,18.26-303.25,18.26-303.25Z" transform="translate(-215.1 -154.42)"/><path class="cls-14" d="M2429.56,1257.34s76.62,190.73,101.12,263c17.45,51.5,66.65,232.16,66.65,232.16s21.4,6.51,39.38-6.08c0,0,18.31-184.57-18.67-236.61-19.62-27.61-4.87-287-84.42-289.25S2429.56,1257.34,2429.56,1257.34Z" transform="translate(-215.1 -154.42)"/><path class="cls-5" d="M2463.79,976.19a47.84,47.84,0,0,0,33,4.44,68.6,68.6,0,0,0,22.36-9.44,66.08,66.08,0,0,0,9-6.79s-.39-.58-1.06-1.7c-3.45-5.91-13.93-27.16-9.27-61.31.06-.44-3.32.19-8.43,1.4-15.2,3.6-45.77,12.27-47.12,12.65h-.05s-.38,7.18-1.63,20.06c-.11,1.13-.22,2.32-.35,3.54-.15,1.51-.31,3.12-.5,4.76C2458.36,957.18,2463.79,976.19,2463.79,976.19Z" transform="translate(-215.1 -154.42)"/><path class="cls-13" d="M2460.62,935.5c22.69,5.2,56.56-28.31,56.56-28.31a35.4,35.4,0,0,0-7.76-4.4c-15.2,3.6-45.77,12.27-47.12,12.65h-.05S2461.87,922.62,2460.62,935.5Z" transform="translate(-215.1 -154.42)"/><path class="cls-5" d="M2452.9,913.63a115.63,115.63,0,0,0,21.23,5c17.41,2.35,40.28,1,47.47-20.09,12.11-35.43,27.57-56.68-8-71.15-19.07-7.75-31.28-8.16-39.56-5.2-7.2,2.55-11.45,7.65-14.66,12.69C2452.41,845.67,2438.49,907.43,2452.9,913.63Z" transform="translate(-215.1 -154.42)"/><path class="cls-21" d="M2431.29,837.63c20.63,14.82,49.16.25,58,4.19s10.45,18.8,10.61,23.52.78,8.71,12.82,5.88a5.89,5.89,0,0,1,4.37.26c5,3-1.39,17.32-3.32,20.43,0,0-2.76,10.28,3.38,15.28.74.6,12.81,5.88,41.9-38.64,4.57-7,8.94-22.72,1.88-37.88s-36.54-29.8-61.53-37.57c-9.37-2.91-16.31-2.8-21.75-.81-9.06,3.32-13.89,11.88-18.69,20.48C2451,827.23,2431.29,837.63,2431.29,837.63Z" transform="translate(-215.1 -154.42)"/><path class="cls-4" d="M2564,1270.68s-10,2.16-22.6,4.29c-12.35,2.07-27.24,4.11-37.76,4-53.79-.42-98.82-16.26-98.82-16.26-10.11,0-14.74-15.66-16.39-37.51-1.12-14.8-.88-32.45-.08-50,.26-5.69.59-11.37.94-16.94.71-11.06,1.54-21.66,2.29-31,.71-8.8,1.35-16.52,1.73-22.5,0,0-1.44-41.88-.87-78.72.4-26.44,15.24-50.5,19-54.43,10.77-11.39,42-18.59,48.22-19.58l.73-.11c25.66,14.41,60.21-5.06,60.21-5.06.78.13,1.55.32,2.31.48,2.54-.54,28.47,3.3,34.51,6.59,14.92,8.14,23.58,98.36,23.58,98.36,2.49,61.28-.64,159.43,4.21,196.89C2586.77,1261.5,2574.83,1268.18,2564,1270.68Z" transform="translate(-215.1 -154.42)"/><path class="cls-11" d="M2522.69,947.36s-38.23,39.43-65.56,31.35c0,0-3.64-5.32,8.67-7S2491.4,970.67,2522.69,947.36Z" transform="translate(-215.1 -154.42)"/><path class="cls-8" d="M2452.63,890.75s-.74,4.59,9.92,8.25c0,0,9,3.07,10.59-1.63C2473.14,897.37,2466,890.6,2452.63,890.75Z" transform="translate(-215.1 -154.42)"/><path class="cls-11" d="M2543.65,1096.53s-55.52,92.86-87,109.21c-21.29,11-51.11,16.87-68.19,19.49-1.12-14.8-.88-32.45-.08-50,22.56-2.73,56.93-7.09,56.93-7.09Z" transform="translate(-215.1 -154.42)"/><path class="cls-11" d="M2470.52,1049.87l-29.59,106.82s-34.82,2.21-51.63,1.6c.71-11.06.73-11.43,1.48-20.81C2390.78,1137.48,2430.76,1116.64,2470.52,1049.87Z" transform="translate(-215.1 -154.42)"/><path class="cls-5" d="M2292.33,1164.6s-9.95-12.06-15.29-13.76-15.7-9.7-17.05-6.4,7,8.39,6.52,12.16-26.4,9.83-26.24,13.82,6.11,13.64,16,12.54,35-7.07,40.18-4.5S2292.33,1164.6,2292.33,1164.6Z" transform="translate(-215.1 -154.42)"/><path class="cls-4" d="M2584.05,1016.4s1.75,56.58-127.21,170.09L2431,1140.11c-4.77-2.78,83.3-192.22,108.62-190.7C2588.61,952.33,2584.05,1016.4,2584.05,1016.4Z" transform="translate(-215.1 -154.42)"/><path class="cls-4" d="M2446.37,1134.58s-146.66,16.76-152.08,19.68-17.08,14.26-13.2,28.49c0,0,75.91,9.54,117.68,9.37,36-.16,59.34-5.93,59.34-5.93Z" transform="translate(-215.1 -154.42)"/><path class="cls-22" d="M3.38,1643.24H2758.73a3.39,3.39,0,0,1,3.39,3.39v1.8a3.39,3.39,0,0,1-3.39,3.39H3.38A3.38,3.38,0,0,1,0,1648.43v-1.8a3.38,3.38,0,0,1,3.38-3.38Z"/></svg>