<svg width="150" height="150" viewBox="0 0 150 150" fill="none" xmlns="http://www.w3.org/2000/svg">
<circle cx="75" cy="75" r="74" fill="#F39369" stroke="black" stroke-width="2"/>
<path d="M47.3419 76.7038C46.6622 76.8538 46.0533 77.2297 45.6147 77.7702C45.1761 78.3108 44.9337 78.984 44.9269 79.6801C44.9145 80.3469 45.1239 80.9989 45.5222 81.5338L44.2467 89.0509C44.2206 89.2095 44.2283 89.3717 44.2693 89.5271C44.3103 89.6824 44.3838 89.8273 44.4848 89.9523C44.59 90.0748 44.7205 90.1732 44.8672 90.2407C45.014 90.3082 45.1736 90.3433 45.3351 90.3434H50.6243C50.782 90.3452 50.9382 90.3126 51.0821 90.248C51.226 90.1834 51.3541 90.0883 51.4576 89.9693C51.5642 89.8503 51.6437 89.7096 51.6907 89.557C51.7376 89.4043 51.751 89.2432 51.7297 89.0849L50.6243 81.2447C50.901 80.7696 51.0477 80.2299 51.0495 79.6801C51.05 79.1595 50.9155 78.6477 50.6592 78.1946C50.4028 77.7415 50.0334 77.3626 49.5869 77.095V73.0133L56.3896 75.9895V92.9965C56.3941 94.0055 56.7969 94.9719 57.5104 95.6854C58.2239 96.3988 59.1902 96.8016 60.1992 96.8061H91.441C92.4514 96.8061 93.4204 96.4047 94.1348 95.6903C94.8492 94.9759 95.2506 94.0069 95.2506 92.9965V74.9521L111.577 67.8772C111.782 67.7855 111.955 67.6344 112.073 67.4434C112.192 67.2523 112.25 67.0302 112.241 66.8058C112.234 66.5818 112.159 66.3653 112.025 66.1857C111.891 66.0062 111.705 65.8723 111.492 65.8024L74.4341 53.0641C74.192 52.9785 73.9278 52.9785 73.6858 53.0641C60.9475 57.9451 40.0629 65.6323 38.1241 65.7513C37.8607 65.7475 37.6045 65.838 37.4018 66.0064C37.1991 66.1748 37.0633 66.41 37.0187 66.6697C36.973 66.9191 37.0117 67.1765 37.1287 67.4014C37.2458 67.6263 37.4345 67.8057 37.665 67.9112L47.3249 72.0949L47.3419 76.7038ZM46.6787 88.1325L47.8351 81.3297C47.8702 81.1351 47.8525 80.9345 47.7837 80.7491C47.7149 80.5636 47.5976 80.4 47.444 80.2753C47.2962 80.1129 47.217 79.8996 47.2229 79.6801C47.2229 79.4545 47.3125 79.2382 47.4719 79.0788C47.6314 78.9193 47.8477 78.8297 48.0732 78.8297C48.2988 78.8297 48.515 78.9193 48.6745 79.0788C48.834 79.2382 48.9236 79.4545 48.9236 79.6801C48.9216 79.8798 48.8493 80.0725 48.7195 80.2243C48.6148 80.3445 48.5365 80.4853 48.4896 80.6376C48.4428 80.7899 48.4284 80.9504 48.4474 81.1087L49.4168 88.1325H46.6787ZM93.1417 93.0135C93.1373 93.4346 92.9669 93.8368 92.6675 94.133C92.3682 94.4291 91.9641 94.5952 91.5431 94.5952H60.2162C59.7967 94.5952 59.3944 94.4286 59.0978 94.1319C58.8012 93.8353 58.6346 93.433 58.6346 93.0135V76.9589L74.213 83.7617C74.3594 83.7859 74.5087 83.7859 74.6552 83.7617C74.8014 83.7875 74.9511 83.7875 75.0973 83.7617L93.1417 75.9215V93.0135ZM41.4915 67.1119C49.5188 64.5949 68.8048 57.3499 74.0769 55.3601L108.091 66.9758L74.6552 81.4998L52.5461 71.9079L71.2538 69.4419C72.2938 70.0142 73.4686 70.2962 74.6552 70.2582C77.2232 70.2582 79.179 69.2378 79.179 67.8772C79.179 66.5167 77.2232 65.4962 74.6552 65.4962C72.4442 65.4962 70.6925 66.2616 70.2503 67.333L48.6005 70.1902L41.4915 67.1119ZM71.2538 67.8772C71.2538 67.35 72.5803 66.6017 74.6552 66.6017C76.73 66.6017 78.0565 67.35 78.0565 67.8772C78.0565 68.4044 76.73 69.1527 74.6552 69.1527C72.5803 69.1527 71.2538 68.3704 71.2538 67.8772V67.8772Z" fill="#272525"/>
</svg>
