<svg width="150" height="150" viewBox="0 0 150 150" fill="none" xmlns="http://www.w3.org/2000/svg">
<circle cx="75" cy="75" r="74" fill="#F39369" stroke="black" stroke-width="2"/>
<path d="M60.7266 67.3402H87.9387C88.125 67.3027 88.2926 67.2019 88.413 67.0549C88.5334 66.9079 88.5992 66.7237 88.5992 66.5336C88.5992 66.3436 88.5334 66.1594 88.413 66.0124C88.2926 65.8654 88.125 65.7646 87.9387 65.7271H60.7266C60.5403 65.7646 60.3727 65.8654 60.2523 66.0124C60.1318 66.1594 60.066 66.3436 60.066 66.5336C60.066 66.7237 60.1318 66.9079 60.2523 67.0549C60.3727 67.2019 60.5403 67.3027 60.7266 67.3402V67.3402Z" fill="#272525"/>
<path d="M87.9387 87.9872H60.7266C60.5403 88.0247 60.3727 88.1255 60.2523 88.2725C60.1318 88.4195 60.066 88.6037 60.066 88.7938C60.066 88.9838 60.1318 89.168 60.2523 89.315C60.3727 89.462 60.5403 89.5628 60.7266 89.6003H87.9387C88.125 89.5628 88.2926 89.462 88.413 89.315C88.5334 89.168 88.5992 88.9838 88.5992 88.7938C88.5992 88.6037 88.5334 88.4195 88.413 88.2725C88.2926 88.1255 88.125 88.0247 87.9387 87.9872V87.9872Z" fill="#272525"/>
<path d="M116.296 51.855C115.863 51.3621 115.333 50.9642 114.739 50.6866C114.145 50.4089 113.5 50.2575 112.844 50.242C111.573 50.2865 110.365 50.8042 109.457 51.6937L98.8912 62.1785C98.8137 62.2505 98.7522 62.3379 98.7105 62.4352C98.6689 62.5324 98.648 62.6373 98.6493 62.7431C98.6403 62.8127 98.6403 62.8831 98.6493 62.9528L98.0202 63.5818L97.7298 63.2915L96.633 64.4045V50H52V100.617H96.6652V78.2444L104.73 70.1792L104.44 69.8889L105.069 69.2598L105.231 69.3565C105.448 69.356 105.657 69.269 105.811 69.1146L116.167 58.7588C117.12 57.8192 117.694 56.5619 117.78 55.2263C117.776 54.5928 117.642 53.967 117.386 53.3873C117.131 52.8075 116.76 52.2861 116.296 51.855V51.855ZM95.0522 79.8575V99.0043H53.613V51.613H95.0522V66.0175L86.0191 75.0345L86.6805 75.6797L86.4547 76.9379H60.7266C60.5403 76.9753 60.3727 77.0761 60.2522 77.2231C60.1318 77.3702 60.066 77.5543 60.066 77.7444C60.066 77.9344 60.1318 78.1186 60.2522 78.2656C60.3727 78.4127 60.5403 78.5135 60.7266 78.5509H86.1804L85.4868 82.5029L92.3261 81.3415L92.9552 81.9544L95.0522 79.8575L95.8587 79.051L95.0522 79.8575ZM87.5999 81.7125L86.0998 82.0028H85.9869L86.2772 80.3898L86.616 80.7447L87.3741 76.3733L91.6325 80.6479L87.2612 81.406L87.5999 81.7125ZM92.9552 79.68L88.3097 75.0345L97.7621 65.582L102.408 70.2276L92.9552 79.68ZM103.617 69.6469L98.3428 64.5174L98.8751 63.9851L104.085 69.1952L103.617 69.6469ZM115.102 57.5974L105.231 67.3886L100.601 62.7431L110.537 52.8228C111.157 52.2509 111.954 51.9092 112.796 51.855C113.231 51.8713 113.658 51.9755 114.051 52.1612C114.445 52.3469 114.797 52.6104 115.086 52.9357C115.086 52.9357 115.086 52.9357 115.086 52.9357C115.399 53.215 115.652 53.5549 115.829 53.9348C116.007 54.3146 116.105 54.7266 116.119 55.1456C116.053 56.0635 115.671 56.9302 115.038 57.5974H115.102Z" fill="#272525"/>
<path d="M98.8589 60.0975C98.9224 60.1669 98.9997 60.2224 99.0858 60.2603C99.1719 60.2983 99.2649 60.3179 99.359 60.3179C99.4531 60.3179 99.5461 60.2983 99.6322 60.2603C99.7183 60.2224 99.7956 60.1669 99.859 60.0975L107.311 52.6613C107.444 52.5257 107.519 52.3432 107.519 52.1532C107.519 51.9632 107.444 51.7808 107.311 51.6451V51.6451C107.248 51.5757 107.171 51.5202 107.084 51.4823C106.998 51.4443 106.905 51.4247 106.811 51.4247C106.717 51.4247 106.624 51.4443 106.538 51.4823C106.452 51.5202 106.375 51.5757 106.311 51.6451L98.7783 59.0813C98.6453 59.217 98.5708 59.3994 98.5708 59.5894C98.5708 59.7794 98.6453 59.9618 98.7783 60.0975H98.8589Z" fill="#272525"/>
</svg>
