<svg width="150" height="150" viewBox="0 0 150 150" fill="none" xmlns="http://www.w3.org/2000/svg">
<circle cx="75" cy="75" r="74" fill="#F3D468" stroke="black" stroke-width="2"/>
<path d="M67.2315 63.3865C67.2741 63.5782 67.3645 63.756 67.4943 63.9034C67.6242 64.0508 67.7892 64.1629 67.974 64.2294C68.1614 64.2961 68.3626 64.3145 68.559 64.283C68.7555 64.2514 68.9408 64.1708 69.0978 64.0487L72.1683 61.6004V76.732H68.3152C68.1618 76.7285 68.0095 76.7571 67.8678 76.8159C67.7261 76.8746 67.5983 76.9622 67.4924 77.0731C67.2655 77.2954 67.1356 77.5984 67.1311 77.916V81.7089C67.1364 82.0225 67.258 82.3229 67.4723 82.5518C67.5834 82.6614 67.715 82.748 67.8597 82.8065C68.0043 82.8651 68.1591 82.8944 68.3152 82.893H84.3699C84.6785 82.8928 84.9745 82.7701 85.1927 82.5518C85.3023 82.4407 85.3888 82.3091 85.4474 82.1644C85.5059 82.0198 85.5353 81.865 85.5338 81.7089V77.916C85.5353 77.76 85.5059 77.6052 85.4474 77.4605C85.3888 77.3159 85.3023 77.1842 85.1927 77.0731C85.0674 76.9425 84.913 76.8435 84.742 76.7842C84.5711 76.7249 84.3885 76.707 84.2093 76.732H80.3963V53.854C80.3974 53.701 80.3677 53.5494 80.3091 53.408C80.2505 53.2667 80.1642 53.1386 80.0552 53.0312C79.9441 52.9216 79.8124 52.835 79.6678 52.7765C79.5231 52.7179 79.3683 52.6886 79.2123 52.69H74.1751C73.9325 52.6854 73.6943 52.7555 73.4928 52.8907L66.6696 57.6269C66.4768 57.7552 66.3276 57.9391 66.2416 58.1541C66.1556 58.3691 66.1369 58.6051 66.1879 58.831L67.2315 63.3865ZM74.1751 54.0547H79.0116V78.1367H84.2093V81.6889H68.4556V78.1367H73.5129V58.8912L68.4556 62.9048L67.5325 58.6704L74.1751 54.0547Z" fill="#272525"/>
<path d="M36.0452 98.3256C36.1124 98.5392 36.242 98.7278 36.4172 98.8672C36.5924 99.0067 36.8053 99.0906 37.0285 99.1083L47.0627 99.911L47.3637 109.163C47.3537 109.396 47.4182 109.627 47.5481 109.822C47.678 110.017 47.8664 110.166 48.0862 110.246C48.2318 110.277 48.3821 110.277 48.5277 110.246C48.805 110.246 49.0714 110.138 49.2702 109.945L67.8536 93.2081L68.7366 95.6565C68.8834 96.1797 69.1911 96.6434 69.6161 96.982C70.0411 97.3205 70.5619 97.5168 71.1046 97.5429C71.52 97.5234 71.926 97.4126 72.2937 97.2183C72.6613 97.0241 72.9817 96.7512 73.2319 96.4191L76.5231 92.4054C76.6557 92.2457 76.8211 92.1164 77.0081 92.0264C77.1951 91.9364 77.3993 91.8877 77.6068 91.8836C77.9655 91.8792 78.3116 92.0161 78.5701 92.2649L82.4232 95.7568C82.9555 96.2904 83.6764 96.5932 84.43 96.5997C84.9327 96.6 85.4208 96.4302 85.8148 96.1181L99.2405 111.009C99.3467 111.128 99.4765 111.223 99.6217 111.288C99.7668 111.354 99.9241 111.389 100.083 111.39C100.196 111.411 100.312 111.411 100.425 111.39C100.631 111.323 100.814 111.199 100.953 111.032C101.091 110.865 101.18 110.662 101.207 110.447L102.271 101.296L112.205 100.393C112.417 100.374 112.619 100.296 112.789 100.168C112.959 100.041 113.09 99.8682 113.168 99.6702C113.239 99.4742 113.256 99.2627 113.217 99.058C113.178 98.8532 113.085 98.6627 112.947 98.5062L96.3507 80.1436V80.0232C96.4507 79.8613 96.5821 79.721 96.7372 79.6107C96.8923 79.5004 97.068 79.4223 97.2537 79.381L102.331 78.197C102.818 78.1478 103.279 77.9552 103.656 77.6435C104.033 77.3318 104.309 76.9151 104.448 76.4464C104.588 75.9776 104.586 75.4779 104.441 75.0107C104.296 74.5434 104.016 74.1297 103.635 73.8221L100.083 70.1094C99.9486 69.9722 99.8435 69.8088 99.7744 69.6293C99.7054 69.4498 99.6739 69.258 99.682 69.0659C99.7085 68.8742 99.7738 68.6899 99.8739 68.5243C99.9739 68.3587 100.107 68.2152 100.264 68.1026L104.278 64.691C104.65 64.3789 104.929 63.9704 105.085 63.5103C105.241 63.0502 105.267 62.5561 105.161 62.0821C105.042 61.5957 104.793 61.1512 104.439 60.7973C104.085 60.4433 103.64 60.1935 103.154 60.0752L98.2572 58.53C98.0714 58.4743 97.9 58.3791 97.7545 58.2509C97.609 58.1228 97.4929 57.9647 97.4143 57.7874C97.3345 57.6108 97.2932 57.4193 97.2932 57.2255C97.2932 57.0317 97.3345 56.8402 97.4143 56.6636L99.3208 51.8271C99.5127 51.4166 99.5985 50.9645 99.5705 50.5122C99.5424 50.06 99.4014 49.622 99.1602 49.2383C98.8595 48.8275 98.4426 48.5162 97.9633 48.3445C97.484 48.1728 96.9643 48.1486 96.4711 48.275L91.3135 49.1179C91.1243 49.149 90.9307 49.141 90.7446 49.0945C90.5586 49.048 90.384 48.9638 90.2317 48.8472C90.0794 48.7307 89.9526 48.5841 89.8591 48.4167C89.7656 48.2493 89.7073 48.0645 89.688 47.8736L89.1261 42.696C89.1264 42.055 88.8774 41.439 88.4317 40.9784C87.986 40.5177 87.3786 40.2484 86.7379 40.2276C86.0863 40.2477 85.4591 40.4803 84.9518 40.8898L80.7977 44.0205C80.643 44.1308 80.4678 44.209 80.2824 44.2506C80.097 44.2922 79.9052 44.2963 79.7182 44.2626C79.5312 44.2289 79.3528 44.1582 79.1936 44.0546C79.0343 43.951 78.8974 43.8166 78.7908 43.6593L75.8608 39.3446C75.634 38.9543 75.3133 38.6269 74.9278 38.3921C74.5423 38.1572 74.1042 38.0225 73.6533 38C73.1435 38.0247 72.652 38.1972 72.2386 38.4966C71.8252 38.7959 71.5079 39.2091 71.3254 39.6857L69.0978 44.3817C69.0153 44.5621 68.8961 44.7233 68.7477 44.8549C68.5994 44.9866 68.4252 45.0858 68.2363 45.1462C68.0474 45.2067 67.8479 45.227 67.6507 45.206C67.4535 45.1849 67.2628 45.1229 67.091 45.0239L62.5555 42.5555C62.0776 42.238 61.5066 42.0911 60.9348 42.1384C60.363 42.1858 59.8239 42.4246 59.4048 42.8164C59.1475 43.1076 58.9525 43.4482 58.8317 43.8175C58.7109 44.1868 58.6669 44.5768 58.7024 44.9637L58.9031 50.1614C58.9143 50.3534 58.8854 50.5455 58.8184 50.7257C58.7513 50.9058 58.6474 51.07 58.5134 51.2078C58.3793 51.3456 58.2181 51.454 58.0398 51.5261C57.8616 51.5982 57.6704 51.6323 57.4782 51.6264H52.2203C51.7482 51.5957 51.2764 51.691 50.8532 51.9026C50.4301 52.1142 50.0708 52.4344 49.8121 52.8305C49.5881 53.2571 49.4848 53.7366 49.513 54.2175C49.5413 54.6984 49.7002 55.1625 49.9726 55.5598L52.5614 60.0752C52.6623 60.2385 52.727 60.4215 52.7512 60.6119C52.7754 60.8023 52.7586 60.9956 52.7019 61.179C52.6475 61.3649 52.5552 61.5375 52.4309 61.686C52.3066 61.8345 52.1529 61.9557 51.9795 62.0419L47.3437 64.3297C46.9056 64.5266 46.5258 64.8333 46.241 65.22C45.9562 65.6068 45.7761 66.0605 45.7181 66.5373C45.7207 67.0185 45.8525 67.4903 46.0996 67.9033C46.3467 68.3163 46.7001 68.6554 47.1229 68.8853L51.538 71.6748C51.7013 71.7779 51.8422 71.9127 51.9525 72.0713C52.0628 72.2299 52.1402 72.4089 52.1801 72.5979C52.243 72.9767 52.1567 73.3651 51.9393 73.6816L48.909 77.9361C48.5728 78.3008 48.3542 78.7583 48.2818 79.2491C48.2095 79.7398 48.2866 80.241 48.5032 80.6872C48.7199 81.1335 49.0659 81.5041 49.4963 81.7508C49.9266 81.9975 50.4213 82.1088 50.9158 82.0702L52.9227 82.2307L36.4265 97.1415C36.2513 97.2777 36.1212 97.4635 36.0531 97.6747C35.9851 97.8859 35.9823 98.1128 36.0452 98.3256V98.3256ZM96.6517 89.3751L96.8323 89.1343C97.0284 89.0074 97.2043 88.8518 97.3541 88.6727C97.6114 88.3145 97.7802 87.9003 97.8465 87.4643C97.9128 87.0282 97.8747 86.5826 97.7354 86.1641L97.2738 84.5587L109.676 98.3256L101.067 99.1083C100.809 99.1373 100.568 99.2519 100.382 99.4337C100.197 99.6156 100.077 99.8542 100.043 100.112L99.1803 107.597L86.8182 93.9306L87.7815 89.2346C87.808 89.0634 87.8695 88.8994 87.9621 88.753C88.2709 88.5906 88.6307 88.5546 88.9655 88.6526L94.0027 89.9571C94.4653 90.1086 94.96 90.1346 95.436 90.0323C95.912 89.9301 96.3523 89.7033 96.7119 89.3751H96.6517ZM51.0162 79.8627C50.8373 79.8568 50.6635 79.8012 50.5145 79.7021C50.5518 79.5432 50.6199 79.3932 50.7152 79.2606L53.7455 75.0061C53.8875 74.7908 54.0085 74.5623 54.1067 74.3238C54.4606 73.5309 54.5153 72.6367 54.2607 71.8065C54.0062 70.9764 53.4595 70.2666 52.722 69.8084L48.3069 67.0189L48.0862 66.7781V66.6577C48.0862 66.6577 48.0862 66.477 48.4876 66.3165L50.8757 65.0923L53.1234 63.9484C53.566 63.7266 53.9582 63.4162 54.2758 63.0365C54.5934 62.6567 54.8296 62.2157 54.9697 61.7409C55.1034 61.293 55.1474 60.8232 55.0992 60.3583C55.051 59.8934 54.9115 59.4426 54.6887 59.0317V58.9113L51.8791 54.3959C51.7946 54.2546 51.74 54.0975 51.7186 53.9343V53.9343C51.871 53.905 52.0277 53.905 52.1801 53.9343H53.5247H57.4381C57.9464 53.9377 58.4495 53.832 58.9134 53.6242C59.3773 53.4165 59.7912 53.1116 60.1272 52.7302C60.472 52.3823 60.7388 51.965 60.9099 51.506V51.3856C61.0613 50.9542 61.1294 50.4979 61.1106 50.041L60.9099 44.8233C60.9099 44.4821 60.9099 44.3215 61.0504 44.3015C61.2148 44.3177 61.373 44.3727 61.5119 44.462L65.2647 46.4689L66.0875 46.9104H66.2682C66.755 47.1501 67.2908 47.2737 67.8335 47.2716C68.5093 47.2768 69.1729 47.0912 69.748 46.7362C70.323 46.3812 70.7863 45.8712 71.0846 45.2648L73.3322 40.5487L73.4526 40.3279L73.6132 40.1473C73.703 40.225 73.7838 40.3125 73.854 40.4082L75.8608 43.3583L76.8041 44.743C77.0234 45.072 77.2945 45.3634 77.6068 45.6059C78.2328 46.0902 79.0027 46.3516 79.7942 46.3485C80.0279 46.369 80.263 46.369 80.4966 46.3485C81.0997 46.2891 81.6822 46.0972 82.2025 45.7865L83.9083 44.5022L86.2161 42.6559C86.3372 42.5388 86.4913 42.4618 86.6576 42.4351C86.7567 42.5842 86.8123 42.7579 86.8182 42.9368L87.5005 48.0342C87.5745 48.7799 87.8838 49.4827 88.3835 50.041C88.5527 50.2466 88.7484 50.4288 88.9655 50.5829C89.3521 50.8719 89.7932 51.0797 90.2623 51.1935C90.7314 51.3073 91.2187 51.3249 91.6948 51.2451L96.8323 50.4023C97.005 50.3731 97.1814 50.3731 97.3541 50.4023V50.4023C97.3871 50.5679 97.3871 50.7384 97.3541 50.904L95.3472 55.7405L95.2268 56.1017C95.0467 56.7585 95.0467 57.4517 95.2268 58.1085C95.2715 58.2522 95.3251 58.393 95.3874 58.53C95.3874 58.6905 95.568 58.8511 95.6683 59.0116C96.1133 59.6822 96.7705 60.184 97.5347 60.4365L101.227 61.6606L102.472 62.0821C102.619 62.1268 102.756 62.202 102.873 62.3028V62.3028C102.845 62.3823 102.804 62.4568 102.752 62.5236C102.702 62.605 102.633 62.6737 102.552 62.7243L100.264 65.1124L98.799 66.3767C98.4233 66.6963 98.117 67.0894 97.8991 67.5318C97.6811 67.9742 97.556 68.4566 97.5316 68.9492C97.5071 69.4419 97.5838 69.9343 97.7569 70.3961C97.9301 70.8579 98.1959 71.2794 98.5381 71.6346L102.15 75.3874C102.29 75.5081 102.388 75.6695 102.431 75.849V75.849C102.298 75.938 102.148 75.9994 101.99 76.0296L96.9126 77.2136C96.4322 77.3263 95.9798 77.5357 95.583 77.829C95.1863 78.1222 94.8534 78.4933 94.6047 78.9194C94.4991 79.1074 94.4053 79.3018 94.3238 79.5014C94.2514 79.7103 94.1977 79.9252 94.1632 80.1436C93.9439 80.4239 93.7889 80.7489 93.7092 81.0957C93.6294 81.4425 93.6268 81.8026 93.7016 82.1505L95.1466 87.1475L90.1696 85.8631C89.9662 85.8086 89.7577 85.7749 89.5475 85.7628H89.2465H88.6845H88.5641L88.0825 85.8832H87.9019L87.6209 86.0036L87.2597 86.2243C87.0838 86.347 86.9162 86.481 86.758 86.6257V86.6257C85.9707 87.1512 85.4226 87.9661 85.2328 88.8934L84.2093 93.6496C84.1296 93.8701 84.1296 94.1115 84.2093 94.332H84.0688L83.8882 94.1915L80.0351 90.6795C79.7551 90.4195 79.4282 90.2152 79.0718 90.0775C78.6086 89.8539 78.1011 89.7373 77.5867 89.7363C76.9743 89.7344 76.3722 89.8936 75.8408 90.1979C75.6547 90.2997 75.4798 90.4208 75.319 90.5591C75.1163 90.7016 74.9397 90.8782 74.7972 91.0809L71.4859 95.0946L71.3655 95.2351L71.225 95.3354H71.1046C70.9863 95.2285 70.9024 95.0888 70.8638 94.934L69.6597 91.6428C69.8078 91.4885 69.9105 91.2963 69.9565 91.0874C70.0025 90.8786 69.9901 90.661 69.9206 90.4588L69.7601 90.1778C69.5921 89.7054 69.3267 89.2737 68.9809 88.9106C68.6352 88.5476 68.2169 88.2614 67.7532 88.0706C67.4474 87.9349 67.1225 87.8469 66.7899 87.8097C66.6024 87.7352 66.4072 87.6813 66.208 87.6492V87.6492C66.0078 87.6295 65.8061 87.6295 65.6059 87.6492C65.3593 87.6186 65.1099 87.6186 64.8634 87.6492V87.6492C64.6214 87.6951 64.3857 87.7692 64.161 87.87V87.87L59.5653 89.8768V89.7564L60.2677 84.5787C60.3759 83.6329 60.1085 82.6824 59.523 81.9318C58.9375 81.1812 58.0807 80.6904 57.137 80.5651L56.7557 80.4647C56.5752 80.4007 56.3854 80.3668 56.1938 80.3644L54.4679 80.1436L51.0162 79.8627ZM55.5918 82.8729L56.7357 82.7324C56.849 82.8032 56.9505 82.8912 57.0367 82.9933C57.1564 83.1445 57.2432 83.3189 57.2916 83.5055C57.34 83.6921 57.3488 83.8868 57.3177 84.077L56.6353 89.2547C56.5634 89.6509 56.5764 90.0579 56.6732 90.4488C56.7701 90.8396 56.9487 91.2056 57.1972 91.5224C57.5587 91.9196 58.0494 92.1756 58.582 92.2449C58.9605 92.4279 59.3756 92.5229 59.7961 92.5229C60.2166 92.5229 60.6317 92.4279 61.0102 92.2449L65.7865 90.238C65.9682 90.1822 66.159 90.1617 66.3484 90.1778C66.6132 90.343 66.8174 90.5894 66.9304 90.8802V91.0408L49.5512 106.654L49.2903 98.8273C49.2856 98.5482 49.1754 98.2812 48.9818 98.0801C48.7881 97.879 48.5255 97.7588 48.2467 97.7436L39.8782 97.0613L55.5918 82.8729Z" fill="#272525"/>
</svg>
