<svg width="150" height="150" viewBox="0 0 150 150" fill="none" xmlns="http://www.w3.org/2000/svg">
<circle cx="75" cy="75" r="74" fill="#F39369" stroke="black" stroke-width="2"/>
<path d="M58.0006 69.7461L42.0222 82.6073C41.865 82.7366 41.7383 82.899 41.6512 83.0829C41.564 83.2668 41.5186 83.4678 41.5182 83.6713V98.6044C41.5231 98.9675 41.6708 99.3141 41.9293 99.5691C42.1878 99.8241 42.5364 99.9671 42.8995 99.9671H58.878C59.2394 99.9671 59.5859 99.8235 59.8415 99.5679C60.097 99.3124 60.2406 98.9658 60.2406 98.6044V70.8288C60.2416 70.5675 60.1684 70.3113 60.0297 70.09C59.8909 69.8686 59.6922 69.6911 59.4566 69.5781C59.2216 69.4709 58.9618 69.4299 58.7053 69.4595C58.4487 69.4892 58.205 69.5882 58.0006 69.7461ZM57.4966 97.2791H44.2622V84.3619L57.4966 73.6847V97.2791Z" fill="#272525"/>
<path d="M69.4804 61.4209L65.3551 63.9409C65.16 64.0642 64.9993 64.2351 64.8883 64.4375C64.7773 64.64 64.7196 64.8673 64.7205 65.0982V98.6977C64.7205 99.0591 64.864 99.4057 65.1196 99.6613C65.3751 99.9168 65.7217 100.06 66.0831 100.06H82.0616C82.4247 100.06 82.7733 99.9174 83.0318 99.6624C83.2903 99.4074 83.438 99.0608 83.4429 98.6977V74.954C83.4398 74.5981 83.2993 74.257 83.0509 74.0021L71.1977 61.6262C70.9795 61.3985 70.689 61.2536 70.3758 61.2162C70.0626 61.1787 69.7462 61.2511 69.4804 61.4209V61.4209ZM80.6803 97.2791H67.4644V65.9195L69.9844 64.3329L80.6989 75.5327L80.6803 97.2791Z" fill="#272525"/>
<path d="M98.7867 64.4264L88.3148 74.9169C88.2237 75.0031 88.1517 75.1074 88.1035 75.2232C88.0552 75.339 88.0318 75.4636 88.0348 75.5889V99.0713C88.0348 99.1963 88.0594 99.3201 88.1073 99.4356C88.1551 99.5511 88.2252 99.656 88.3136 99.7444C88.402 99.8328 88.507 99.903 88.6225 99.9508C88.738 99.9986 88.8618 100.023 88.9868 100.023H99.4586C99.5852 100.026 99.711 100.003 99.8287 99.9562C99.9464 99.9095 100.054 99.8398 100.144 99.7511C100.234 99.6625 100.306 99.5567 100.355 99.4399C100.404 99.3232 100.429 99.1979 100.429 99.0713V65.1171C100.427 64.9276 100.37 64.7429 100.264 64.5856C100.159 64.4284 100.01 64.3054 99.8349 64.232C99.6603 64.1586 99.468 64.1379 99.2817 64.1724C99.0954 64.2069 98.9233 64.2952 98.7867 64.4264V64.4264ZM98.5067 98.026H89.9574V75.9809L98.5067 67.4317V98.026Z" fill="#272525"/>
<path d="M107.784 49.3064L85.1229 65.9755L71.9444 52.1623C71.6866 51.9175 71.3572 51.7618 71.0044 51.7182C70.6516 51.6745 70.2941 51.7451 69.9844 51.9197L40.6968 72.2847C39.0168 73.4607 40.6968 76.2607 42.3395 75.066L70.5817 55.429L83.7976 69.2421C84.0482 69.4982 84.3774 69.663 84.7325 69.7104C85.0877 69.7577 85.4485 69.6849 85.7575 69.5034L109.427 52.1063C111.069 50.8744 109.464 48.0744 107.784 49.3064Z" fill="#272525"/>
</svg>
