<svg id="Layer_1" data-name="Layer 1" xmlns="http://www.w3.org/2000/svg" viewBox="0 0 1731.85 1158.6"><defs><style>.cls-1{fill:#184655;}.cls-2{fill:#f7cc7f;}.cls-3{fill:#b75742;}.cls-4{fill:#355389;}.cls-5{fill:#466eb6;}.cls-6{fill:#9bc1f9;}.cls-7{fill:#86b1f2;}.cls-8{fill:#f47458;}.cls-9{fill:#13375b;}.cls-10{fill:#fae0b2;}.cls-11{fill:#96d9c9;}.cls-12{fill:#f48c7f;}.cls-13{fill:#f7a491;}.cls-14{fill:#3c8f7c;}.cls-15{fill:#50bfa5;}</style></defs><path class="cls-1" d="M1483.41,728.06a4.89,4.89,0,0,1-2.05-9.33l174.78-80.48a4.89,4.89,0,0,1,4.09,8.89l-174.78,80.47A4.76,4.76,0,0,1,1483.41,728.06Z" transform="translate(-895.84 -468.78)"/><path class="cls-1" d="M1469.72,1042.92a4.4,4.4,0,0,1-.62,0,4.89,4.89,0,0,1-4.23-5.47l46.93-367.66a4.89,4.89,0,0,1,9.7,1.24l-46.93,367.66A4.89,4.89,0,0,1,1469.72,1042.92Z" transform="translate(-895.84 -468.78)"/><path class="cls-2" d="M1723.42,669.38c-15.7-37.31-49-58.88-74.46-48.18s-33.3,49.62-17.59,86.93a103.47,103.47,0,0,0,14.47,24.5l85-35.78A103.08,103.08,0,0,0,1723.42,669.38Z" transform="translate(-895.84 -468.78)"/><path class="cls-1" d="M1530.43,709.29a19.23,19.23,0,1,1-19.23-19.23A19.23,19.23,0,0,1,1530.43,709.29Z" transform="translate(-895.84 -468.78)"/><path class="cls-3" d="M2124.92,1047.94c-32.13-4.16-67.34-13.72-67.34-13.72s-5.74-64.74-6-67.14c-2.07-33.24-6.19-55.4,15.31-79.09,10.22-11.24,57.69-4.34,65.62,35.68,7.36,37.1-.4,89.71-5.44,122.63l-.28,1.89Z" transform="translate(-895.84 -468.78)"/><path class="cls-4" d="M1232.58,1458.62s-166.54-119.52-190-171.34,22.83-46.85,22.83-46.85-67.88-92.15-51-123.4,45.82-16,45.82-16-24.87-102.35,1.6-109.93c49.31-14.11,92.75,121.18,92.75,121.18s5.21-53.9,26.38-49.45c47.16,9.91,24.75,132.7,24.75,132.7s13.15-46.08,39.23-26.08C1291.75,1205.3,1232.58,1458.62,1232.58,1458.62Z" transform="translate(-895.84 -468.78)"/><path class="cls-5" d="M1250,1162.67c-24.73-17.15-41.56,9.13-41.56,9.13s19.48-98.06-27.45-109c-24.65-5.76-26.38,49.45-26.38,49.45S1111.16,977,1061.85,991.06l171.27,465.61C1239.76,1427.24,1289.44,1190,1250,1162.67Z" transform="translate(-895.84 -468.78)"/><path class="cls-6" d="M1186.87,1421.49s-171.29.07-195.11-2.7,2.49-24,2.49-24-53.3,1.94-61.42-11,13.64-18.07,13.64-18.07-53.08-15.39-50.54-26.67c4.72-21,63.34-7.32,63.34-7.32s-21.77-10.57-12.92-20.4c13.34-14.82,70.34,25.47,70.34,25.47s-17.51-35.15-8.77-45.6C1042,1250.34,1186.87,1421.49,1186.87,1421.49Z" transform="translate(-895.84 -468.78)"/><path class="cls-7" d="M1229.34,1462.47s164-31.84,200.3-62.29-8.22-32.82-8.22-32.82,97.25-36.83,96-66.55-43-31.47-43-31.47,58-52,46.12-77.18c-18.31-38.73-101.31,34.71-101.31,34.71s2-63.95-23.73-70.11c-38.82-9.28-72.35,110.81-72.35,110.81s-5.93-29-32.59-23.46C1242.76,1254,1229.34,1462.47,1229.34,1462.47Z" transform="translate(-895.84 -468.78)"/><path class="cls-8" d="M1139,1614.3h230.21c29.32-33.16,32.26-82.15,31.6-132.25-.32-25.3,10.39-44,1.62-65.71l-296.81,4.13a197.14,197.14,0,0,0-12.27,71.48C1094,1539.68,1111.28,1582.71,1139,1614.3Z" transform="translate(-895.84 -468.78)"/><path class="cls-9" d="M2551.88,1609H950.27a9.18,9.18,0,0,0-9.19,9.18h0a9.19,9.19,0,0,0,9.19,9.19H2552.14a9.18,9.18,0,0,0,9.17-9.63A9.35,9.35,0,0,0,2551.88,1609Z" transform="translate(-895.84 -468.78)"/><path class="cls-2" d="M1934.07,520.82c34.17-10.59,64.26,26.15,47.28,57.81a26.88,26.88,0,0,0-2.39,18.62l4.86,21.66a11.74,11.74,0,0,1-8,13.78l-12.94,4a11.75,11.75,0,0,1-14.38-6.85c-8.29-20.73-9.84-29-20.75-34.61C1895.87,578.73,1899.9,531.41,1934.07,520.82Z" transform="translate(-895.84 -468.78)"/><path class="cls-10" d="M1971.16,607.31c-6.08-17-12.11-35.88-14.14-43a54.39,54.39,0,0,1-19.45,3.65c5.72,13.81,11.13,27.9,16.12,41.95l-1.82.64c-5.06-14.28-10.57-28.6-16.4-42.63-4-.15-8.81-.54-11.71-3.29a7.16,7.16,0,0,1-2.13-5.15c.12-5,5.82-6.47,9.63-3.29,2.52,2.1,3.7,5.49,5.51,9.84a52.14,52.14,0,0,0,19.75-3.6c-.9-3.65-1.27-7.21,0-10.61,4.48-11.93,20.89,3.7,2.29,11.75,1.58,5.6,7.69,25,14.16,43.11Zm-12.84-54.84c-1.06,2.85-.77,6,0,9.2,4-1.79,6.34-3.9,7.08-6.44C1966.64,551,1960.73,546.05,1958.32,552.47Zm-33.75,4.68c-1.68,1.46-1.11,4.51.52,6.06,2.32,2.21,6.24,2.55,9.56,2.73-1.44-3.44-2.51-6.53-4.63-8.3C1928.54,556.4,1924.75,557,1924.57,557.15Z" transform="translate(-895.84 -468.78)"/><path class="cls-11" d="M1978.86,596.7c0,.18.06.37.1.55l4.86,21.66a11.74,11.74,0,0,1-8,13.78l-12.94,4a11.75,11.75,0,0,1-14.38-6.85c-3.68-9.22-6-16-8.48-21.12Z" transform="translate(-895.84 -468.78)"/><path class="cls-10" d="M1950.28,494.72l.82-22a3.85,3.85,0,1,0-7.69-.29l-.83,21.95a3.85,3.85,0,0,0,7.7.29Z" transform="translate(-895.84 -468.78)"/><path class="cls-10" d="M1991.75,526.09,2011.43,514a3.85,3.85,0,1,0-4-6.56l-19.68,12.09a3.85,3.85,0,0,0,4,6.56Z" transform="translate(-895.84 -468.78)"/><path class="cls-10" d="M2043.7,579a3.84,3.84,0,0,0-2.46-4.85A125.41,125.41,0,0,0,2018,568.9a3.85,3.85,0,0,0-1,7.64,117.81,117.81,0,0,1,21.85,4.9A3.84,3.84,0,0,0,2043.7,579Z" transform="translate(-895.84 -468.78)"/><path class="cls-10" d="M1899,519.21a3.85,3.85,0,0,0,.33-5.43,146.41,146.41,0,0,1-17.62-24.62A3.85,3.85,0,0,0,1875,493a154.33,154.33,0,0,0,18.54,25.91A3.86,3.86,0,0,0,1899,519.21Z" transform="translate(-895.84 -468.78)"/><path class="cls-10" d="M1891,556.26a3.85,3.85,0,0,0-4.45-3.14l-24.61,4.25a3.85,3.85,0,0,0,1.31,7.59l24.61-4.25A3.85,3.85,0,0,0,1891,556.26Z" transform="translate(-895.84 -468.78)"/><path class="cls-10" d="M1884.32,630.76a3.86,3.86,0,0,0,.87-.6,120.42,120.42,0,0,0,17.13-19.3,3.85,3.85,0,0,0-6.27-4.46,112.86,112.86,0,0,1-16,18.06,3.85,3.85,0,0,0,4.31,6.3Z" transform="translate(-895.84 -468.78)"/><rect class="cls-9" x="1659.73" y="1102.22" width="354.4" height="116.77" transform="translate(2778.01 1852.42) rotate(180)"/><rect class="cls-10" x="1512.87" y="1095.54" width="265.06" height="455.58" transform="translate(2394.97 2177.88) rotate(180)"/><rect class="cls-1" x="1622.94" y="1549.99" width="26.9" height="59.56" transform="translate(2376.93 2690.77) rotate(180)"/><rect class="cls-1" x="1473.84" y="1550.91" width="26.89" height="58.61" transform="translate(2078.72 2691.66) rotate(180)"/><path class="cls-4" d="M2383,1609.13h28.37c-38.92-25.28-61.24-90.91-72.86-134.86-22.5-84.63-27.59-167.13-27.67-167.79l-38.54,5.62C2284.39,1392.18,2317.29,1548.25,2383,1609.13Z" transform="translate(-895.84 -468.78)"/><rect class="cls-4" x="1367.42" y="1095.54" width="431.04" height="455.58" transform="translate(2270.03 2177.88) rotate(180)"/><rect class="cls-1" x="1368" y="1085.43" width="31.72" height="524.33" transform="translate(1871.88 2226.42) rotate(180)"/><path class="cls-3" d="M1361.79,1072.81H1636c10.47,0,19-8.81,19-19.67v-11.7c0-10.86-8.49-19.67-19-19.67H1361.79a38.86,38.86,0,0,1,.51,50.45Z" transform="translate(-895.84 -468.78)"/><path class="cls-10" d="M1366,1027.62h152.1c10.48,0,19,8.81,19,19.67h0c0,10.87-8.49,19.67-19,19.67H1366A39,39,0,0,0,1366,1027.62Z" transform="translate(-895.84 -468.78)"/><path class="cls-8" d="M1441.43,986h228.43a12.85,12.85,0,0,1,12.85,12.85v10.8a12.85,12.85,0,0,1-12.85,12.85H1441.43l.12-.13A26.16,26.16,0,0,0,1441.43,986Z" transform="translate(-895.84 -468.78)"/><path class="cls-10" d="M1445.47,991.45h122.12a12.84,12.84,0,0,1,12.84,12.84h0a12.84,12.84,0,0,1-12.84,12.84H1445.48A26.19,26.19,0,0,0,1445.47,991.45Z" transform="translate(-895.84 -468.78)"/><path class="cls-12" d="M2091.76,900.27c-17.2-21.84-53.65-8-40.12,64.31.07.41,3.76,56.82,2.11,78.63-17.34-4-48.92-14.51-72-15.69,0,0-28.2-27.48-39.29-32.48-8.22-3.7-30.52-1.83-30.52-1.83s-32.5,17.17-30,22.71c3.44,7.58,22.18-13.94,32.42-10.44,0,0-23.71,13.29-18.06,15.69s15.11-.75,19.72-1.07,21.24,13.39,34.2,20.2c2.14,1.13,7.14,5.52,16.91,10.88s20.34,14.62,33.88,20.2c36.4,15,76.85,34.89,90.85,24.22l-.07-.16C2107.81,1076.53,2120.43,936.68,2091.76,900.27Z" transform="translate(-895.84 -468.78)"/><path class="cls-9" d="M2424.4,944.84h0c-19.42-4.16-38.88,6.72-43.82,24.48l-72.52,260.77c-2.58,9.27-11.65,15.75-22,15.75H2064.49a33.42,33.42,0,0,0-33.42,33.42h0a33.42,33.42,0,0,0,32.21,33.39l266.33,9.68c17.73,0,37.51-23.93,41.79-39.76l80.25-296.76C2456.59,967.55,2444.32,949.11,2424.4,944.84Z" transform="translate(-895.84 -468.78)"/><path class="cls-9" d="M2067.79,1609.13h14.34c12.95-89.07,15.57-193.45,1.1-328.23l-34.71.71C2071.56,1415.38,2075.35,1519.84,2067.79,1609.13Z" transform="translate(-895.84 -468.78)"/><rect class="cls-1" x="1983.84" y="1080.6" width="37.48" height="530.25" transform="translate(3109.31 2222.67) rotate(180)"/><path class="cls-13" d="M1910.92,1499.84c-9.74,18.12-33.56,77.85-34.46,82.38-.26,1.31-3.64,5.66-4.76,6.49-30.76,3.08-53.26-13.44-70.34-29.72,16.13,1.13,40.78-3,44.37-3.65,9.36-1.59,8.36-30,13.7-62C1867.72,1497.12,1898.84,1488.9,1910.92,1499.84Z" transform="translate(-895.84 -468.78)"/><path class="cls-4" d="M1876.56,1581.83c-2.55,10-13.13,28.43-15.17,27.9-2.45-.63-93.23-33.22-101-46.23-4.82-8,20-8.41,40-7.39C1817.41,1572.39,1871.31,1584.42,1876.56,1581.83Z" transform="translate(-895.84 -468.78)"/><path class="cls-14" d="M2204.24,1244.32,2016.73,1265l-100.68,258.15-61.18-12s34.34-275.85,54.34-298.93c54.56-63,245.18-55.51,245.18-55.51Z" transform="translate(-895.84 -468.78)"/><path class="cls-13" d="M2041.29,1514.18c-.79,12.28-3.6,27.16-3,41.5.37,9.62,3.94,21.32,4.37,23.13.31,1.3-.94,6.66-1.62,7.88-26.67,15.62-54,10-76.32,2.32,15.13-5.7,25.67-17,29.47-21.17,6.43-7,1.84-27.92-6.63-59.2C1996.64,1508.64,2025.75,1509.27,2041.29,1514.18Z" transform="translate(-895.84 -468.78)"/><path class="cls-15" d="M2181.7,1131.05s-196.3,10.63-245.79,83.07c-37,54.21,55.19,321.57,55.19,321.57l55.49-10.23s-12.79-181.16-22-240.94c-1.57-10.13-8.78-40-8.78-40s210.3,20.68,244.42,2.94,48.42-65.86,33.41-97.25S2181.7,1131.05,2181.7,1131.05Z" transform="translate(-895.84 -468.78)"/><path class="cls-4" d="M2042.51,1578.4c3.47,6.34,5.25,30.9,3.18,31.27-2.49.44-106.82,6.29-119.34-2.28-7.73-5.29,19.74-11,38.32-18.38C1987,1596.68,2041.39,1585.19,2042.51,1578.4Z" transform="translate(-895.84 -468.78)"/><path class="cls-8" d="M2072.44,851.81C2055,854.86,2053.89,869,2053.89,869L2036,943.62s-1.65,31.61,2,43.71c7.06,23.53,21.33,32.81,44.71,40.81,31,10.6,43.23,37.32,56.6,52.9,23.18,27,4.31,59.41,4.31,59.41l61.65,19.46,92.24-12.38s10.36-16-26.35-104.83C2239.25,965.53,2162.85,836,2072.44,851.81Z" transform="translate(-895.84 -468.78)"/><path class="cls-4" d="M2120.78,1609.13h14.09c18.23-134.38,12.72-284.1-5.29-418a25.62,25.62,0,0,1,24.17-29l212-10v-14.64c-.09,0-179.27-11-259.77-15.59a23,23,0,0,0-23.73,28c2.36,10.47,5.18,23.63,8.26,39.39C2117,1323.58,2131.59,1472.44,2120.78,1609.13Z" transform="translate(-895.84 -468.78)"/><path class="cls-13" d="M2140.91,868c-19.89-21.84-55.08-7.83-39.44,64.53.09.4,0,70.09-2,91.9-20-4-63.22-23.46-90.6-30,0,0-27.78-26.69-40.6-31.68-9.5-3.71-35.29-1.83-35.29-1.83s-37.58,17.16-34.67,22.71c4,7.57,25.64-13.94,37.48-10.44,0,0-27.41,13.28-20.88,15.69s17.47-.75,22.8-1.07,19.93,15.41,34.92,22.22c2.47,1.13,12.88,3.49,24.18,8.86,11.46,5.44,125.43,85.06,135.91,68.75C2160.52,1044.46,2174.05,904.41,2140.91,868Z" transform="translate(-895.84 -468.78)"/><path class="cls-3" d="M2158.16,1014.7c-32.13-4.16-67.34-13.72-67.34-13.72s-5.74-64.74-6-67.14c-2.07-33.24-6.19-55.4,15.32-79.09,10.21-11.24,57.68-4.34,65.61,35.68,7.36,37.1-.4,89.71-5.44,122.63l-.28,1.89Z" transform="translate(-895.84 -468.78)"/><path class="cls-3" d="M2057.89,728.72c2.47-21.44,2.45-102.91,52-101.23s49.81,56.18,89.91-9.49c37.16-60.84,105.78-21.52,99.4,28.82a44.81,44.81,0,0,1,20.29,7.26c21.66,14.39,26.89,44.61,11.68,67.5-2.42,3.64-2.22,7.74-5.28,10.54,1.52,22.75-7.08,46.79-28.59,68.78-58.75,60.06-90.85-21-122.49-23s-16.08,26-46.43,39.75-51,4.74-84.76-55l-8.07-16.22S2055.42,750.16,2057.89,728.72Z" transform="translate(-895.84 -468.78)"/><path class="cls-3" d="M2029.34,714c34.84,24.31,42.54,86.23,10.47,115.8-20.85,19.21-61.91,22.56-84.71,3.5-37-30.92-41.1-65.9-28-93.37C1944,704.45,2000.59,693.9,2029.34,714Z" transform="translate(-895.84 -468.78)"/><path class="cls-13" d="M2040.22,797.85s10.73,33.33,48.54,52.56c4.65,2.36-52.75,94.68-52.77,93.58-.17-7.12,9.92-48.71,7.47-53.82-6.72-14-45.69-77.76-45.69-77.76Z" transform="translate(-895.84 -468.78)"/><path class="cls-8" d="M2018.54,805.29l-20.77,7.12h0c0,.06,17.13,28,30.61,51,4.78-3.92,9-9.61,12.4-17.4,5.41-12.47,6.22-25.45,4.15-37.79a66.54,66.54,0,0,1-4.71-10.33Z" transform="translate(-895.84 -468.78)"/><path class="cls-13" d="M1962.88,735.3s18.6-7.86,38.83-.29,56.57,56.75,37.84,99.89-63.51,21.7-83.38-5.66S1916.51,760.63,1962.88,735.3Z" transform="translate(-895.84 -468.78)"/><path class="cls-3" d="M2043.46,759.73c-16-27.83-33.61-44.15-58.32-37.82s-46.87,10.57-48.54,39.57l-1.78,4.95s35.79-17.48,50.63-3.8,45.92,18.15,50,27.63,14.36,26.66,14.36,26.66l1.84-10.66S2059.49,787.56,2043.46,759.73Z" transform="translate(-895.84 -468.78)"/><path class="cls-13" d="M2005.73,776.78c3.34,8.63,10.9,13.62,16.88,11.13s8.12-11.5,4.77-20.13-10.9-13.62-16.88-11.13S2002.38,768.15,2005.73,776.78Z" transform="translate(-895.84 -468.78)"/><rect class="cls-1" x="1792.44" y="1085.43" width="35.61" height="524.33" transform="translate(2724.66 2226.42) rotate(180)"/><path class="cls-10" d="M1593.7,809.34s25.53,8.63,35.85,35.53c14,36.5-7.66,95-1.46,111.29s35.36,34.06,35.36,34.06l66.16-23.46s-23.14-43.67-22.49-58.67-1.63-85.71-29.33-98.75Z" transform="translate(-895.84 -468.78)"/><path class="cls-9" d="M1681.05,824.34H1627.6a1.31,1.31,0,1,1,0-2.61h53.45a1.31,1.31,0,0,1,0,2.61Z" transform="translate(-895.84 -468.78)"/><path class="cls-9" d="M1690.5,834.44h-54.75a1.31,1.31,0,1,1,0-2.61h54.75a1.31,1.31,0,0,1,0,2.61Z" transform="translate(-895.84 -468.78)"/><path class="cls-9" d="M1693.1,845.84h-37.47a1.3,1.3,0,1,1,0-2.6h37.47a1.3,1.3,0,1,1,0,2.6Z" transform="translate(-895.84 -468.78)"/><rect class="cls-9" x="735.88" y="588.91" width="59.1" height="14.56"/><rect class="cls-9" x="937.95" y="585.87" width="63.01" height="17.49"/><polygon class="cls-9" points="736.1 487.23 715.68 487.23 715.68 452.68 733.71 452.68 736.1 487.23"/><path class="cls-5" d="M1645.63,900.16a26.51,26.51,0,1,1-26.51-26.5A26.51,26.51,0,0,1,1645.63,900.16Z" transform="translate(-895.84 -468.78)"/><path class="cls-9" d="M1633,900.16a13.91,13.91,0,1,1-13.91-13.9A13.91,13.91,0,0,1,1633,900.16Z" transform="translate(-895.84 -468.78)"/><path class="cls-9" d="M1667.47,867.25A10.43,10.43,0,1,1,1657,856.82,10.43,10.43,0,0,1,1667.47,867.25Z" transform="translate(-895.84 -468.78)"/><path class="cls-9" d="M1629.43,954.87l-5-6.86c.29-.21,28.31-20.62,34-37.37,5.58-16.46-1.78-34.64-1.86-34.82l7.82-3.25c.36.86,8.69,21.25,2.06,40.8C1659.93,932.68,1630.67,954,1629.43,954.87Z" transform="translate(-895.84 -468.78)"/><path class="cls-9" d="M1735.26,867.25a10.43,10.43,0,1,1-10.43-10.43A10.43,10.43,0,0,1,1735.26,867.25Z" transform="translate(-895.84 -468.78)"/><path class="cls-9" d="M1697.22,954.87l-5-6.86c.29-.21,28.31-20.62,34-37.37,5.58-16.46-1.79-34.64-1.86-34.82l7.82-3.25c.36.86,8.69,21.25,2.06,40.8C1727.72,932.68,1698.46,954,1697.22,954.87Z" transform="translate(-895.84 -468.78)"/><rect class="cls-9" x="763.15" y="394.56" width="61.6" height="5.21"/><path class="cls-5" d="M1762.47,902.72c0,13-9.14,23.46-20.42,23.46s-20.43-10.5-20.43-23.46,9.15-23.47,20.43-23.47S1762.47,889.76,1762.47,902.72Z" transform="translate(-895.84 -468.78)"/><rect class="cls-5" x="796.34" y="410.58" width="50.41" height="47.64"/><path class="cls-9" d="M1717.82,902.93c0,13-11.09,23.47-24.77,23.47s-24.77-10.51-24.77-23.47,11.09-23.46,24.77-23.46S1717.82,890,1717.82,902.93Z" transform="translate(-895.84 -468.78)"/><path class="cls-9" d="M1861,986.64c0,2.7-5,4.89-11.24,4.89s-11.25-2.19-11.25-4.89,5-4.89,11.25-4.89S1861,983.94,1861,986.64Z" transform="translate(-895.84 -468.78)"/><path class="cls-9" d="M1883.76,998.94c0,2.57-4.08,4.64-9.12,4.64s-9.13-2.07-9.13-4.64,4.09-4.64,9.13-4.64S1883.76,996.38,1883.76,998.94Z" transform="translate(-895.84 -468.78)"/><path class="cls-9" d="M1912.44,998.94c0,2.57-4.08,4.64-9.12,4.64s-9.13-2.07-9.13-4.64,4.09-4.64,9.13-4.64S1912.44,996.38,1912.44,998.94Z" transform="translate(-895.84 -468.78)"/><path class="cls-9" d="M1898.43,988.51c0,2.57-4.09,4.65-9.13,4.65s-9.12-2.08-9.12-4.65,4.08-4.64,9.12-4.64S1898.43,986,1898.43,988.51Z" transform="translate(-895.84 -468.78)"/><rect class="cls-9" x="976.68" y="532.04" width="4.56" height="34.06"/><ellipse class="cls-9" cx="965.76" cy="539.29" rx="9.13" ry="4.64"/><rect class="cls-9" x="963.64" y="541.16" width="4.56" height="34.06"/><rect class="cls-9" x="951.58" y="520.96" width="4.56" height="34.06"/><rect class="cls-9" x="1005.36" y="531.88" width="4.56" height="34.06"/><rect class="cls-9" x="991.18" y="523.24" width="4.56" height="36.01"/><path class="cls-9" d="M1919,1022.25v39.35H1595V955.35h49.32l19.12-34.55,119.5-.57,11.77-.05C1789.77,989,1854.78,1039.85,1919,1022.25Z" transform="translate(-895.84 -468.78)"/><path class="cls-5" d="M1919,1022.25v12.13c-72.22,17.52-140.71-40-136-114.15l11.77-.05C1789.77,989,1854.78,1039.85,1919,1022.25Z" transform="translate(-895.84 -468.78)"/><path class="cls-5" d="M1840.09,1044H1611.3V965.13a2,2,0,1,0-3.91,0V1046a2,2,0,0,0,2,2h230.74a2,2,0,1,0,0-3.91Z" transform="translate(-895.84 -468.78)"/><rect class="cls-1" x="1274.09" y="1072.1" width="803.81" height="32.27" rx="13.76" transform="translate(2456.16 1707.69) rotate(180)"/><polygon class="cls-3" points="499.71 551.13 484.66 552.54 470.93 425.85 475.64 401.3 485.99 424.43 499.71 551.13"/><path class="cls-2" d="M1381.85,893.44l0-.23-7.19-16.06-4.59.39-3.2,16.67C1371.55,894.23,1377,894.59,1381.85,893.44Z" transform="translate(-895.84 -468.78)"/><path class="cls-9" d="M1398.28,1025.82l-15-1.47L1397.12,911c.47-4.1,3.68-13,7.79-12.61h0c4.2.41,4.63,9.86,4.16,14.05Z" transform="translate(-895.84 -468.78)"/><path class="cls-9" d="M1404.21,908.83h-.11a.86.86,0,0,1-.75-1l2-16.12a.86.86,0,1,1,1.71.22l-2,16.11A.87.87,0,0,1,1404.21,908.83Z" transform="translate(-895.84 -468.78)"/><path class="cls-15" d="M453.94,496.8h67.2a0,0,0,0,1,0,0V591a12.38,12.38,0,0,1-12.38,12.38H466.32A12.38,12.38,0,0,1,453.94,591V496.8A0,0,0,0,1,453.94,496.8Z"/><path class="cls-11" d="M1389.93,1059.83V965.57h-40.15v94.26a12.38,12.38,0,0,0,12.38,12.37h15.39A12.37,12.37,0,0,0,1389.93,1059.83Z" transform="translate(-895.84 -468.78)"/><path class="cls-11" d="M1878.36,933.05l-3.13,6.66a4.5,4.5,0,0,1-4.81,2.52h0a4.49,4.49,0,0,1-3.26-6.44l16.24-32.35,11.82,2,4.77,35.91a4.48,4.48,0,0,1-5.2,5l-.4-.06a4.5,4.5,0,0,1-3.7-3.88l-.92-7.43Zm11.25-5-1-8.87c-.31-2.49-.51-5.56-.7-8l-.12,0c-1,2.27-2.1,5.18-3.14,7.37l-3.8,8.06Z" transform="translate(-895.84 -468.78)"/><path class="cls-10" d="M1804.19,864a94.58,94.58,0,0,1,13.33-7.59c6.52-3.13,10.81-4.41,15.22-4a11.38,11.38,0,0,1,10.1,6.52c2,4.21,1.44,9.31-2.94,13.82l.07.14c6.1-1.12,12,1,15,7.13a14,14,0,0,1-.1,12.37c-2.13,4.37-7.13,8.67-16.52,13.17a93.92,93.92,0,0,1-11.89,4.84Zm19.24,13,3.5-1.68c5.61-2.69,7.51-6.45,5.83-9.95s-5.35-4.15-10.18-1.84a31.89,31.89,0,0,0-4.42,2.47Zm10,20.94a37,37,0,0,0,4.2-1.84c4.83-2.32,8.24-6.19,5.85-11.16-2.28-4.76-7.46-4.61-12.79-2.06l-3.64,1.75Z" transform="translate(-895.84 -468.78)"/><path class="cls-10" d="M1894.79,830a5.25,5.25,0,0,1-3.28,6.62,49.76,49.76,0,0,1-9.51,2.14c-19.62,2.53-31.3-8.39-33.38-24.56-2.5-19.37,9.92-31.93,27.11-34.14a43.74,43.74,0,0,1,9-.27,5.22,5.22,0,0,1,4.73,5.87l0,.2a5.25,5.25,0,0,1-5.65,4.58,28.74,28.74,0,0,0-6.08.16c-10.19,1.31-17.31,8.48-15.69,21.11,1.47,11.37,9.13,17.66,20.58,16.19a34.25,34.25,0,0,0,5.73-1.29,5.23,5.23,0,0,1,6.49,3.39Z" transform="translate(-895.84 -468.78)"/><path class="cls-11" d="M1763.45,712a147.33,147.33,0,0,1,20.79-8.47c13.21-4.37,22.56-4.82,30.94-2,9,3,16.37,10,20.43,22.32,4.39,13.32,2.58,24.11-2.25,32-5.32,8.51-15.51,15.08-29.13,19.58a143,143,0,0,1-18.2,4.87ZM1798,763.57a30.9,30.9,0,0,0,5.57-1.5c14.28-4.61,21-15.52,15.49-32.13-4.67-14.49-15.66-19.33-29.18-14.86a34.73,34.73,0,0,0-6.92,3Z" transform="translate(-895.84 -468.78)"/><path class="cls-10" d="M2556.79,1348.46a7.15,7.15,0,1,1-7.93-6.27A7.15,7.15,0,0,1,2556.79,1348.46Z" transform="translate(-895.84 -468.78)"/><path class="cls-8" d="M2546.16,1353.22a4.62,4.62,0,1,0,3.33-7.12,4.63,4.63,0,0,0-3.33,7.12Z" transform="translate(-895.84 -468.78)"/><path class="cls-10" d="M2592.63,1359.25a7.15,7.15,0,1,0,10.07-.85A7.15,7.15,0,0,0,2592.63,1359.25Z" transform="translate(-895.84 -468.78)"/><path class="cls-8" d="M2594.06,1368.38a4.63,4.63,0,0,0,6-7.07,4.63,4.63,0,0,0-6,7.07Z" transform="translate(-895.84 -468.78)"/><path class="cls-10" d="M2560.39,1348.26a7.15,7.15,0,1,0,7.17-7.13A7.15,7.15,0,0,0,2560.39,1348.26Z" transform="translate(-895.84 -468.78)"/><path class="cls-8" d="M2567.35,1354.33a4.63,4.63,0,1,0-4.61-4.64A4.63,4.63,0,0,0,2567.35,1354.33Z" transform="translate(-895.84 -468.78)"/><path class="cls-10" d="M2528.63,1360.56a7.15,7.15,0,1,0,.91-10.07A7.14,7.14,0,0,0,2528.63,1360.56Z" transform="translate(-895.84 -468.78)"/><path class="cls-8" d="M2531.35,1360.15a4.62,4.62,0,1,0,.59-6.52A4.64,4.64,0,0,0,2531.35,1360.15Z" transform="translate(-895.84 -468.78)"/><path class="cls-10" d="M2582.69,1443.07a7.15,7.15,0,1,1,9.6,3.18A7.16,7.16,0,0,1,2582.69,1443.07Z" transform="translate(-895.84 -468.78)"/><path class="cls-8" d="M2584.43,1441.21a4.63,4.63,0,1,0,1.79-6.68,4.63,4.63,0,0,0-1.79,6.68Z" transform="translate(-895.84 -468.78)"/><path class="cls-10" d="M2606.65,1418.85a7.15,7.15,0,1,1,9.4-3.73A7.14,7.14,0,0,1,2606.65,1418.85Z" transform="translate(-895.84 -468.78)"/><path class="cls-8" d="M2604.25,1414.42a4.62,4.62,0,1,0,5.69-6.78,4.62,4.62,0,0,0-5.69,6.78Z" transform="translate(-895.84 -468.78)"/><path class="cls-10" d="M2609.44,1384.91a7.15,7.15,0,1,1,4.8-8.9A7.15,7.15,0,0,1,2609.44,1384.91Z" transform="translate(-895.84 -468.78)"/><path class="cls-8" d="M2610.15,1380.82a4.62,4.62,0,1,0-8.5-.87A4.63,4.63,0,0,0,2610.15,1380.82Z" transform="translate(-895.84 -468.78)"/><path class="cls-10" d="M2605,1422.07a7.15,7.15,0,1,0,2.58,9.77A7.15,7.15,0,0,0,2605,1422.07Z" transform="translate(-895.84 -468.78)"/><path class="cls-8" d="M2601.47,1431.85a4.62,4.62,0,1,0-5.18-6.79A4.63,4.63,0,0,0,2601.47,1431.85Z" transform="translate(-895.84 -468.78)"/><path class="cls-10" d="M2589.76,1357.11a7.15,7.15,0,1,1-2.05-9.91A7.17,7.17,0,0,1,2589.76,1357.11Z" transform="translate(-895.84 -468.78)"/><path class="cls-8" d="M2580.6,1358.32a4.62,4.62,0,1,0-1.32-1.32A4.76,4.76,0,0,0,2580.6,1358.32Z" transform="translate(-895.84 -468.78)"/><path class="cls-10" d="M2610.26,1388.41a7.15,7.15,0,1,0,8.27,5.83A7.14,7.14,0,0,0,2610.26,1388.41Z" transform="translate(-895.84 -468.78)"/><path class="cls-8" d="M2610.84,1400.09a4.62,4.62,0,1,0-5.34-3.77A4.63,4.63,0,0,0,2610.84,1400.09Z" transform="translate(-895.84 -468.78)"/><path class="cls-8" d="M2538.39,1361.61l-1.13.74,47.24,72.08,1.13-.73-21-32.23,30.88,23,.8-1.09-32.17-23.92,38.36,11.66.39-1.29-36.81-11.19,38.41-2.26-.08-1.34-40,2.35,36.87-15.73-.53-1.24-35.39,15.09,28-26.42-.93-1-29.13,27.53,18.13-35.75-1.2-.61-17.41,34.31,4.44-38.21-1.34-.16-4.63,39.82-9.09-39-1.31.3,8.72,37.47Z" transform="translate(-895.84 -468.78)"/><rect class="cls-8" x="2398.36" y="1442.42" width="180.65" height="5.78" transform="translate(-1280.92 1131.24) rotate(-33.23)"/><path class="cls-10" d="M2484.05,1165.74a12.1,12.1,0,1,1-16.89-2.78A12.1,12.1,0,0,1,2484.05,1165.74Z" transform="translate(-895.84 -468.78)"/><path class="cls-8" d="M2472.2,1181.5c7.29,3.84,14.8-4.81,10-11.48a7.82,7.82,0,1,0-10,11.48Z" transform="translate(-895.84 -468.78)"/><path class="cls-10" d="M2546,1152.33a12.11,12.11,0,1,0,14.23-9.52A12.11,12.11,0,0,0,2546,1152.33Z" transform="translate(-895.84 -468.78)"/><path class="cls-8" d="M2555.57,1164.66a7.83,7.83,0,0,0,5.17-14.6,7.94,7.94,0,0,0-2.13-.75,7.82,7.82,0,1,0-3,15.35Z" transform="translate(-895.84 -468.78)"/><path class="cls-10" d="M2489.21,1162.49a12.1,12.1,0,1,0,4.77-16.44A12.1,12.1,0,0,0,2489.21,1162.49Z" transform="translate(-895.84 -468.78)"/><path class="cls-8" d="M2504.49,1165.76a7.83,7.83,0,0,0-.11-13.77c-6.93-3.65-14.19,4-10.52,10.68A7.81,7.81,0,0,0,2504.49,1165.76Z" transform="translate(-895.84 -468.78)"/><path class="cls-10" d="M2452.26,1206.75a12.1,12.1,0,1,0-6.91-15.66A12.1,12.1,0,0,0,2452.26,1206.75Z" transform="translate(-895.84 -468.78)"/><path class="cls-8" d="M2456,1203.9a7.82,7.82,0,1,0-4.47-10.12A7.83,7.83,0,0,0,2456,1203.9Z" transform="translate(-895.84 -468.78)"/><path class="cls-10" d="M2600,1284.59a12.1,12.1,0,1,1,16.82-3.16A12.1,12.1,0,0,1,2600,1284.59Z" transform="translate(-895.84 -468.78)"/><path class="cls-8" d="M2601,1280.41a7.83,7.83,0,1,0-2.82-11.35,7.84,7.84,0,0,0,2.82,11.35Z" transform="translate(-895.84 -468.78)"/><path class="cls-10" d="M2615.61,1229.08a12.1,12.1,0,1,1,10.85-13.23A12.1,12.1,0,0,1,2615.61,1229.08Z" transform="translate(-895.84 -468.78)"/><path class="cls-8" d="M2608.41,1224.49a7.82,7.82,0,1,0,2.87-14.71,7.84,7.84,0,0,0-2.87,14.71Z" transform="translate(-895.84 -468.78)"/><path class="cls-10" d="M2591.89,1176.52a12.1,12.1,0,1,1-.19-17.11A12.09,12.09,0,0,1,2591.89,1176.52Z" transform="translate(-895.84 -468.78)"/><path class="cls-8" d="M2589.59,1169.9a7.83,7.83,0,1,0-13.29,5.68A7.78,7.78,0,0,0,2589.59,1169.9Z" transform="translate(-895.84 -468.78)"/><path class="cls-10" d="M2615.84,1235.17a12.1,12.1,0,1,0,11.84,12.36A12.11,12.11,0,0,0,2615.84,1235.17Z" transform="translate(-895.84 -468.78)"/><path class="cls-8" d="M2618.6,1252.58a7.82,7.82,0,1,0-13.24-5.81A7.84,7.84,0,0,0,2618.6,1252.58Z" transform="translate(-895.84 -468.78)"/><path class="cls-10" d="M2540,1151.5a12.11,12.11,0,1,1-11.15-13A12.11,12.11,0,0,1,2540,1151.5Z" transform="translate(-895.84 -468.78)"/><path class="cls-8" d="M2527.39,1160.81a7.82,7.82,0,1,0-3-.88A8,8,0,0,0,2527.39,1160.81Z" transform="translate(-895.84 -468.78)"/><path class="cls-10" d="M2596,1181a12.1,12.1,0,1,0,17,1.85A12.09,12.09,0,0,0,2596,1181Z" transform="translate(-895.84 -468.78)"/><path class="cls-8" d="M2606.42,1197.86a7.83,7.83,0,1,0-11-1.2A7.84,7.84,0,0,0,2606.42,1197.86Z" transform="translate(-895.84 -468.78)"/><path class="cls-8" d="M2467.58,1200.29l-1.06,2,129.07,68,1.07-2-57.54-30.49,64.54,8.67.3-2.26-67.25-9,66.35-14.2-.47-2.23-63.68,13.62,55-34.83-1.22-1.93-57.33,36.3,41.71-53.53-1.8-1.4-40,51.37,19.74-62.06-2.18-.7-20.56,64.66-2.46-67.8-2.29.08,2.36,65.08-24.77-60.23-2.11.87,25.81,62.76-45.48-50.36-1.7,1.53,43.65,48.33Z" transform="translate(-895.84 -468.78)"/><rect class="cls-8" x="2309.72" y="1360.11" width="305.79" height="9.78" transform="translate(-788.97 2438.35) rotate(-62.21)"/><path class="cls-5" d="M2402.77,1505.64s-99-73.51-112.61-105.19,14.41-28.11,14.41-28.11-40-56.66-29.38-75.39,32.7,5.19,32.7,5.19-18.55-76.65-2.42-80.92c30.05-7.94,54.7,74.56,54.7,74.56s-2.21-34.25,16.6-29.64c28.36,7,13.35,80.7,13.35,80.7s9.05-13.08,24.6-.64C2442.62,1368.52,2402.77,1505.64,2402.77,1505.64Z" transform="translate(-895.84 -468.78)"/><path class="cls-4" d="M2418.91,1348.11c-15.55-12.44-28.79-1.27-28.79-1.27s15-73.74-13.35-80.7c-18.81-4.61-16.6,29.64-16.6,29.64s-24.65-82.5-54.7-74.56l98,284.19C2407.89,1487.66,2445,1369,2418.91,1348.11Z" transform="translate(-895.84 -468.78)"/><path class="cls-7" d="M2402.64,1503.09s-101.5-.11-122.44-17.7,4.74-19,4.74-19-48.5-25.75-47.79-42.92,17.15-13.71,17.15-13.71-33.53-30-26.64-44.59c10.57-22.37,58.52,20.06,58.52,20.06s-3.67-17,11.2-20.57c22.43-5.36,45.18,58.4,45.18,58.4s-10.72-28.72,4.68-25.53C2374.89,1403.29,2402.64,1503.09,2402.64,1503.09Z" transform="translate(-895.84 -468.78)"/><path class="cls-4" d="M2406.85,1508.74s90.08-76.87,101.08-107.84-15.42-25.87-15.42-25.87,34.61-56.33,23.38-73.5-27.15-7-27.15-7,9.35-60.12-6.25-63.2c-29.07-5.73-47.52,74.25-47.52,74.25s0-32.72-17.59-27.19c-26.56,8.34-7.82,77.59-7.82,77.59s-9.8-25.89-23.84-13.11C2360.52,1365.78,2406.85,1508.74,2406.85,1508.74Z" transform="translate(-895.84 -468.78)"/><path class="cls-5" d="M2379.63,1337.32c16.29-9.77,26.08,3.26,26.08,3.26s-14.89-53.87,11.67-62.21c17.61-5.53,17.59,27.19,17.59,27.19s18.45-80,47.52-74.25l-76,276.33C2401.2,1491,2360.24,1349,2379.63,1337.32Z" transform="translate(-895.84 -468.78)"/><path class="cls-6" d="M2415.92,1497.7s99,0,112.72-1.56-1.44-13.89-1.44-13.89,30.79,1.12,35.48-6.37-7.88-10.44-7.88-10.44,30.67-8.88,29.2-15.4c-2.72-12.15-36.59-4.23-36.59-4.23s12.58-6.11,7.47-11.78c-7.71-8.57-40.64,14.71-40.64,14.71s12.36-23.38,5.07-26.34C2506.22,1417.08,2415.92,1497.7,2415.92,1497.7Z" transform="translate(-895.84 -468.78)"/><path class="cls-8" d="M2487.36,1609.09h-164.7c-21-19.16-33.75-45.55-33.29-74.49a89.35,89.35,0,0,1,9.52-39.88l212.35,2.39a94.55,94.55,0,0,1,8.78,41.29C2519.57,1566,2507.19,1590.84,2487.36,1609.09Z" transform="translate(-895.84 -468.78)"/></svg>