<svg width="129" height="100" viewBox="0 0 129 100" fill="none" xmlns="http://www.w3.org/2000/svg">
<path d="M66.1522 1.42196C71.0432 5.19953 113.216 20.1256 113.493 23.0739C116.631 29.7998 128.535 52.7417 127.981 57.2564C127.428 61.771 68.5516 99.5468 63.3838 98.994C58.216 98.4412 0.72415 61.034 1.001 57.2564C1.22247 54.2343 11.1213 33.2089 16.043 23.0739C16.043 20.402 61.2613 -2.35562 66.1522 1.42196Z" fill="#EEEEEE"/>
<path d="M16.043 23.0739C30.3775 32.9018 59.914 52.281 63.3838 51.1754M16.043 23.0739C16.043 20.402 61.2613 -2.35562 66.1522 1.42196C71.0432 5.19953 113.216 20.1256 113.493 23.0739M16.043 23.0739C11.1213 33.2089 1.22247 54.2343 1.001 57.2564C0.72415 61.034 58.216 98.4412 63.3838 98.994M63.3838 51.1754C67.721 49.7934 113.77 26.0223 113.493 23.0739M63.3838 51.1754C62.9227 65.6586 62.2772 95.4987 63.3838 98.994M113.493 23.0739C116.631 29.7998 128.535 52.7417 127.981 57.2564C127.428 61.771 68.5516 99.5468 63.3838 98.994" stroke="#646464" stroke-width="2"/>
</svg>
