<svg id="objects" xmlns="http://www.w3.org/2000/svg" viewBox="0 0 558 231"><defs><style>.cls-1{fill:#bebfc2;}.cls-2{fill:#a0a0a0;}.cls-3{fill:#fff;}.cls-4{fill:#ddd;}.cls-5{fill:none;stroke:#383838;stroke-miterlimit:10;stroke-width:2px;}</style></defs><rect class="cls-1" x="1" y="1" width="556" height="229" rx="17"/><path class="cls-2" d="M578,102.5v195a17,17,0,0,1-17,17h-5a17,17,0,0,0,17-17v-195a17,17,0,0,0-17-17h5A17,17,0,0,1,578,102.5Z" transform="translate(-21 -84.5)"/><rect class="cls-3" x="64" y="7" width="32" height="32" rx="4"/><path class="cls-3" d="M42,81.5H66a4,4,0,0,1,4,4v44a4,4,0,0,1-4,4H50a12,12,0,0,1-12-12v-36A4,4,0,0,1,42,81.5Z" transform="translate(140.5 -31) rotate(90)"/><rect class="cls-3" x="123" y="91.5" width="32" height="32" rx="4" transform="translate(225.5 -116) rotate(90)"/><rect class="cls-3" x="161" y="91.5" width="32" height="32" rx="4" transform="translate(263.5 -154) rotate(90)"/><rect class="cls-3" x="199" y="91.5" width="32" height="32" rx="4" transform="translate(301.5 -192) rotate(90)"/><rect class="cls-3" x="237" y="91.5" width="32" height="32" rx="4" transform="translate(339.5 -230) rotate(90)"/><rect class="cls-3" x="275" y="91.5" width="32" height="32" rx="4" transform="translate(377.5 -268) rotate(90)"/><rect class="cls-3" x="313" y="91.5" width="32" height="32" rx="4" transform="translate(415.5 -306) rotate(90)"/><rect class="cls-3" x="351" y="91.5" width="32" height="32" rx="4" transform="translate(453.5 -344) rotate(90)"/><rect class="cls-3" x="389" y="91.5" width="32" height="32" rx="4" transform="translate(491.5 -382) rotate(90)"/><rect class="cls-3" x="427" y="91.5" width="32" height="32" rx="4" transform="translate(529.5 -420) rotate(90)"/><rect class="cls-3" x="465" y="91.5" width="32" height="32" rx="4" transform="translate(567.5 -458) rotate(90)"/><rect class="cls-3" x="503" y="91.5" width="32" height="32" rx="4" transform="translate(605.5 -496) rotate(90)"/><rect class="cls-3" x="66" y="128.5" width="32" height="32" rx="4" transform="translate(205.5 -22) rotate(90)"/><rect class="cls-3" x="28" y="128.5" width="32" height="32" rx="4" transform="translate(167.5 16) rotate(90)"/><rect class="cls-3" x="104" y="128.5" width="32" height="32" rx="4" transform="translate(243.5 -60) rotate(90)"/><rect class="cls-3" x="142" y="128.5" width="32" height="32" rx="4" transform="translate(281.5 -98) rotate(90)"/><rect class="cls-3" x="180" y="128.5" width="32" height="32" rx="4" transform="translate(319.5 -136) rotate(90)"/><rect class="cls-3" x="218" y="128.5" width="32" height="32" rx="4" transform="translate(357.5 -174) rotate(90)"/><rect class="cls-3" x="256" y="128.5" width="32" height="32" rx="4" transform="translate(395.5 -212) rotate(90)"/><rect class="cls-3" x="294" y="128.5" width="32" height="32" rx="4" transform="translate(433.5 -250) rotate(90)"/><rect class="cls-3" x="332" y="128.5" width="32" height="32" rx="4" transform="translate(471.5 -288) rotate(90)"/><rect class="cls-3" x="370" y="128.5" width="32" height="32" rx="4" transform="translate(509.5 -326) rotate(90)"/><rect class="cls-3" x="408" y="128.5" width="32" height="32" rx="4" transform="translate(547.5 -364) rotate(90)"/><rect class="cls-3" x="446" y="128.5" width="32" height="32" rx="4" transform="translate(585.5 -402) rotate(90)"/><rect class="cls-3" x="484" y="128.5" width="32" height="32" rx="4" transform="translate(623.5 -440) rotate(90)"/><rect class="cls-3" x="531" y="118.5" width="32" height="52" rx="4" transform="translate(670.5 -487) rotate(90)"/><rect class="cls-3" x="503" y="165.5" width="32" height="32" rx="4" transform="translate(1017 278.5) rotate(-180)"/><rect class="cls-3" x="541" y="165.5" width="32" height="32" rx="4" transform="translate(1093 278.5) rotate(-180)"/><rect class="cls-3" x="465" y="165.5" width="32" height="32" rx="4" transform="translate(941 278.5) rotate(-180)"/><rect class="cls-3" x="427" y="165.5" width="32" height="32" rx="4" transform="translate(865 278.5) rotate(-180)"/><rect class="cls-3" x="389" y="165.5" width="32" height="32" rx="4" transform="translate(789 278.5) rotate(-180)"/><rect class="cls-3" x="351" y="165.5" width="32" height="32" rx="4" transform="translate(713 278.5) rotate(-180)"/><rect class="cls-3" x="313" y="165.5" width="32" height="32" rx="4" transform="translate(637 278.5) rotate(-180)"/><rect class="cls-3" x="275" y="165.5" width="32" height="32" rx="4" transform="translate(561 278.5) rotate(-180)"/><rect class="cls-3" x="237" y="165.5" width="32" height="32" rx="4" transform="translate(485 278.5) rotate(-180)"/><rect class="cls-3" x="199" y="165.5" width="32" height="32" rx="4" transform="translate(409 278.5) rotate(-180)"/><rect class="cls-3" x="161" y="165.5" width="32" height="32" rx="4" transform="translate(333 278.5) rotate(-180)"/><rect class="cls-3" x="123" y="165.5" width="32" height="32" rx="4" transform="translate(257 278.5) rotate(-180)"/><rect class="cls-3" x="85" y="165.5" width="32" height="32" rx="4" transform="translate(181 278.5) rotate(-180)"/><rect class="cls-3" x="512" y="202.5" width="61" height="32" rx="4" transform="translate(1064 352.5) rotate(-180)"/><rect class="cls-3" x="28" y="202.5" width="61" height="32" rx="4" transform="translate(96 352.5) rotate(-180)"/><rect class="cls-3" x="474" y="202.5" width="32" height="32" rx="4" transform="translate(959 352.5) rotate(-180)"/><rect class="cls-3" x="436" y="202.5" width="32" height="32" rx="4" transform="translate(883 352.5) rotate(-180)"/><rect class="cls-3" x="398" y="202.5" width="32" height="32" rx="4" transform="translate(807 352.5) rotate(-180)"/><rect class="cls-3" x="360" y="202.5" width="32" height="32" rx="4" transform="translate(731 352.5) rotate(-180)"/><rect class="cls-3" x="322" y="202.5" width="32" height="32" rx="4" transform="translate(655 352.5) rotate(-180)"/><rect class="cls-3" x="284" y="202.5" width="32" height="32" rx="4" transform="translate(579 352.5) rotate(-180)"/><rect class="cls-3" x="246" y="202.5" width="32" height="32" rx="4" transform="translate(503 352.5) rotate(-180)"/><rect class="cls-3" x="208" y="202.5" width="32" height="32" rx="4" transform="translate(427 352.5) rotate(-180)"/><rect class="cls-3" x="170" y="202.5" width="32" height="32" rx="4" transform="translate(351 352.5) rotate(-180)"/><rect class="cls-3" x="132" y="202.5" width="32" height="32" rx="4" transform="translate(275 352.5) rotate(-180)"/><rect class="cls-3" x="94" y="202.5" width="32" height="32" rx="4" transform="translate(199 352.5) rotate(-180)"/><rect class="cls-3" x="494" y="239.5" width="79" height="32" rx="4" transform="translate(1046 426.5) rotate(-180)"/><rect class="cls-3" x="456" y="239.5" width="32" height="32" rx="4" transform="translate(923 426.5) rotate(-180)"/><rect class="cls-3" x="418" y="239.5" width="32" height="32" rx="4" transform="translate(847 426.5) rotate(-180)"/><rect class="cls-3" x="380" y="239.5" width="32" height="32" rx="4" transform="translate(771 426.5) rotate(-180)"/><rect class="cls-3" x="342" y="239.5" width="32" height="32" rx="4" transform="translate(695 426.5) rotate(-180)"/><rect class="cls-3" x="304" y="239.5" width="32" height="32" rx="4" transform="translate(619 426.5) rotate(-180)"/><rect class="cls-3" x="266" y="239.5" width="32" height="32" rx="4" transform="translate(543 426.5) rotate(-180)"/><rect class="cls-3" x="228" y="239.5" width="32" height="32" rx="4" transform="translate(467 426.5) rotate(-180)"/><rect class="cls-3" x="190" y="239.5" width="32" height="32" rx="4" transform="translate(391 426.5) rotate(-180)"/><rect class="cls-3" x="152" y="239.5" width="32" height="32" rx="4" transform="translate(315 426.5) rotate(-180)"/><rect class="cls-3" x="114" y="239.5" width="32" height="32" rx="4" transform="translate(239 426.5) rotate(-180)"/><rect class="cls-3" x="28" y="239.5" width="80" height="32" rx="4" transform="translate(115 426.5) rotate(-180)"/><rect class="cls-3" x="28" y="165.5" width="52" height="32" rx="4" transform="translate(87 278.5) rotate(-180)"/><path class="cls-3" d="M553,91.5h16a4,4,0,0,1,4,4v24a4,4,0,0,1-4,4H545a4,4,0,0,1-4-4v-16A12,12,0,0,1,553,91.5Z" transform="translate(643.5 -534) rotate(90)"/><rect class="cls-3" x="147" y="271.5" width="32" height="42" rx="4" transform="translate(-150.5 371) rotate(-90)"/><rect class="cls-3" x="266" y="200.5" width="32" height="184" rx="4" transform="translate(-31.5 490) rotate(-90)"/><rect class="cls-3" x="104" y="276.5" width="32" height="32" rx="4" transform="translate(-193.5 328) rotate(-90)"/><rect class="cls-3" x="66" y="276.5" width="32" height="32" rx="4" transform="translate(-231.5 290) rotate(-90)"/><rect class="cls-3" x="359" y="192" width="42" height="32" rx="4"/><rect class="cls-3" x="407" y="192" width="32" height="32" rx="4"/><rect class="cls-3" x="445" y="192" width="32" height="32" rx="4"/><rect class="cls-3" x="483" y="192" width="32" height="32" rx="4"/><path class="cls-3" d="M524,192h24a4,4,0,0,1,4,4v16a12,12,0,0,1-12,12H524a4,4,0,0,1-4-4V196a4,4,0,0,1,4-4Z"/><path class="cls-3" d="M40,276.5H56a4,4,0,0,1,4,4v24a4,4,0,0,1-4,4H32a4,4,0,0,1-4-4v-16a12,12,0,0,1,12-12Z" transform="translate(-269.5 252) rotate(-90)"/><line class="cls-3" x1="483" y1="208" x2="515" y2="208"/><path class="cls-4" d="M512,132.5v24a4,4,0,0,1-4,4h4a4,4,0,0,0,4-4v-24a4,4,0,0,0-4-4h-4A4,4,0,0,1,512,132.5Z" transform="translate(-21 -84.5)"/><path class="cls-4" d="M422,234.5h4a4,4,0,0,0,4-4v-24a4,4,0,0,0-4-4h-4a4,4,0,0,1,4,4v24A4,4,0,0,1,422,234.5Z" transform="translate(-21 -84.5)"/><path class="cls-4" d="M527,197.5h4a4,4,0,0,0,4-4v-24a4,4,0,0,0-4-4h-4a4,4,0,0,1,4,4v24A4,4,0,0,1,527,197.5Z" transform="translate(-21 -84.5)"/><path class="cls-4" d="M498,234.5h4a4,4,0,0,0,4-4v-24a4,4,0,0,0-4-4h-4a4,4,0,0,1,4,4v24A4,4,0,0,1,498,234.5Z" transform="translate(-21 -84.5)"/><path class="cls-4" d="M132,132.5v24a4,4,0,0,1-4,4h4a4,4,0,0,0,4-4v-24a4,4,0,0,0-4-4h-4A4,4,0,0,1,132,132.5Z" transform="translate(-21 -84.5)"/><path class="cls-4" d="M455,169.5v24a4,4,0,0,1-4,4h4a4,4,0,0,0,4-4v-24a4,4,0,0,0-4-4h-4A4,4,0,0,1,455,169.5Z" transform="translate(-21 -84.5)"/><path class="cls-4" d="M417,169.5v24a4,4,0,0,1-4,4h4a4,4,0,0,0,4-4v-24a4,4,0,0,0-4-4h-4A4,4,0,0,1,417,169.5Z" transform="translate(-21 -84.5)"/><path class="cls-4" d="M404,271.5h4a4,4,0,0,0,4-4v-24a4,4,0,0,0-4-4h-4a4,4,0,0,1,4,4v24A4,4,0,0,1,404,271.5Z" transform="translate(-21 -84.5)"/><path class="cls-4" d="M170,132.5v24a4,4,0,0,1-4,4h4a4,4,0,0,0,4-4v-24a4,4,0,0,0-4-4h-4A4,4,0,0,1,170,132.5Z" transform="translate(-21 -84.5)"/><path class="cls-4" d="M208,132.5v24a4,4,0,0,1-4,4h4a4,4,0,0,0,4-4v-24a4,4,0,0,0-4-4h-4A4,4,0,0,1,208,132.5Z" transform="translate(-21 -84.5)"/><path class="cls-4" d="M246,132.5v24a4,4,0,0,1-4,4h4a4,4,0,0,0,4-4v-24a4,4,0,0,0-4-4h-4A4,4,0,0,1,246,132.5Z" transform="translate(-21 -84.5)"/><path class="cls-4" d="M284,132.5v24a4,4,0,0,1-4,4h4a4,4,0,0,0,4-4v-24a4,4,0,0,0-4-4h-4A4,4,0,0,1,284,132.5Z" transform="translate(-21 -84.5)"/><path class="cls-4" d="M493,169.5v24a4,4,0,0,1-4,4h4a4,4,0,0,0,4-4v-24a4,4,0,0,0-4-4h-4A4,4,0,0,1,493,169.5Z" transform="translate(-21 -84.5)"/><path class="cls-4" d="M360,132.5v24a4,4,0,0,1-4,4h4a4,4,0,0,0,4-4v-24a4,4,0,0,0-4-4h-4A4,4,0,0,1,360,132.5Z" transform="translate(-21 -84.5)"/><path class="cls-4" d="M322,132.5v24a4,4,0,0,1-4,4h4a4,4,0,0,0,4-4v-24a4,4,0,0,0-4-4h-4A4,4,0,0,1,322,132.5Z" transform="translate(-21 -84.5)"/><path class="cls-4" d="M398,132.5v24a4,4,0,0,1-4,4h4a4,4,0,0,0,4-4v-24a4,4,0,0,0-4-4h-4A4,4,0,0,1,398,132.5Z" transform="translate(-21 -84.5)"/><path class="cls-4" d="M436,132.5v24a4,4,0,0,1-4,4h4a4,4,0,0,0,4-4v-24a4,4,0,0,0-4-4h-4A4,4,0,0,1,436,132.5Z" transform="translate(-21 -84.5)"/><path class="cls-4" d="M474,132.5v24a4,4,0,0,1-4,4h4a4,4,0,0,0,4-4v-24a4,4,0,0,0-4-4h-4A4,4,0,0,1,474,132.5Z" transform="translate(-21 -84.5)"/><path class="cls-4" d="M460,234.5h4a4,4,0,0,0,4-4v-24a4,4,0,0,0-4-4h-4a4,4,0,0,1,4,4v24A4,4,0,0,1,460,234.5Z" transform="translate(-21 -84.5)"/><path class="cls-4" d="M341,169.5v24a4,4,0,0,1-4,4h4a4,4,0,0,0,4-4v-24a4,4,0,0,0-4-4h-4A4,4,0,0,1,341,169.5Z" transform="translate(-21 -84.5)"/><path class="cls-4" d="M189,165.5h-4a4,4,0,0,1,4,4v24a4,4,0,0,1-4,4h4a4,4,0,0,0,4-4v-24A4,4,0,0,0,189,165.5Z" transform="translate(-21 -84.5)"/><path class="cls-4" d="M303,169.5v24a4,4,0,0,1-4,4h4a4,4,0,0,0,4-4v-24a4,4,0,0,0-4-4h-4A4,4,0,0,1,303,169.5Z" transform="translate(-21 -84.5)"/><path class="cls-4" d="M151,165.5h-4a4,4,0,0,1,4,4v24a4,4,0,0,1-4,4h4a4,4,0,0,0,4-4v-24A4,4,0,0,0,151,165.5Z" transform="translate(-21 -84.5)"/><path class="cls-4" d="M56,128.5H52a4,4,0,0,1,4,4v24a4,4,0,0,1-4,4h4a4,4,0,0,0,4-4v-24A4,4,0,0,0,56,128.5Z" transform="translate(-21 -84.5)"/><path class="cls-4" d="M76,169.5v24a4,4,0,0,1-4,4h4a4,4,0,0,0,4-4v-24a4,4,0,0,0-4-4H72A4,4,0,0,1,76,169.5Z" transform="translate(-21 -84.5)"/><path class="cls-4" d="M265,169.5v24a4,4,0,0,1-4,4h4a4,4,0,0,0,4-4v-24a4,4,0,0,0-4-4h-4A4,4,0,0,1,265,169.5Z" transform="translate(-21 -84.5)"/><path class="cls-4" d="M113,165.5h-4a4,4,0,0,1,4,4v24a4,4,0,0,1-4,4h4a4,4,0,0,0,4-4v-24A4,4,0,0,0,113,165.5Z" transform="translate(-21 -84.5)"/><path class="cls-4" d="M81,234.5h4a4,4,0,0,0,4-4v-24a4,4,0,0,0-4-4H81a4,4,0,0,1,4,4v24A4,4,0,0,1,81,234.5Z" transform="translate(-21 -84.5)"/><path class="cls-4" d="M290,271.5h4a4,4,0,0,0,4-4v-24a4,4,0,0,0-4-4h-4a4,4,0,0,1,4,4v24A4,4,0,0,1,290,271.5Z" transform="translate(-21 -84.5)"/><path class="cls-4" d="M379,165.5h-4a4,4,0,0,1,4,4v24a4,4,0,0,1-4,4h4a4,4,0,0,0,4-4v-24A4,4,0,0,0,379,165.5Z" transform="translate(-21 -84.5)"/><path class="cls-4" d="M227,169.5v24a4,4,0,0,1-4,4h4a4,4,0,0,0,4-4v-24a4,4,0,0,0-4-4h-4A4,4,0,0,1,227,169.5Z" transform="translate(-21 -84.5)"/><path class="cls-4" d="M308,234.5h4a4,4,0,0,0,4-4v-24a4,4,0,0,0-4-4h-4a4,4,0,0,1,4,4v24A4,4,0,0,1,308,234.5Z" transform="translate(-21 -84.5)"/><path class="cls-4" d="M346,234.5h4a4,4,0,0,0,4-4v-24a4,4,0,0,0-4-4h-4a4,4,0,0,1,4,4v24A4,4,0,0,1,346,234.5Z" transform="translate(-21 -84.5)"/><path class="cls-4" d="M328,271.5h4a4,4,0,0,0,4-4v-24a4,4,0,0,0-4-4h-4a4,4,0,0,1,4,4v24A4,4,0,0,1,328,271.5Z" transform="translate(-21 -84.5)"/><path class="cls-4" d="M214,271.5h4a4,4,0,0,0,4-4v-24a4,4,0,0,0-4-4h-4a4,4,0,0,1,4,4v24A4,4,0,0,1,214,271.5Z" transform="translate(-21 -84.5)"/><path class="cls-4" d="M232,234.5h4a4,4,0,0,0,4-4v-24a4,4,0,0,0-4-4h-4a4,4,0,0,1,4,4v24A4,4,0,0,1,232,234.5Z" transform="translate(-21 -84.5)"/><path class="cls-4" d="M270,234.5h4a4,4,0,0,0,4-4v-24a4,4,0,0,0-4-4h-4a4,4,0,0,1,4,4v24A4,4,0,0,1,270,234.5Z" transform="translate(-21 -84.5)"/><path class="cls-4" d="M252,271.5h4a4,4,0,0,0,4-4v-24a4,4,0,0,0-4-4h-4a4,4,0,0,1,4,4v24A4,4,0,0,1,252,271.5Z" transform="translate(-21 -84.5)"/><path class="cls-4" d="M265,95.5v24a4,4,0,0,1-4,4h4a4,4,0,0,0,4-4v-24a4,4,0,0,0-4-4h-4A4,4,0,0,1,265,95.5Z" transform="translate(-21 -84.5)"/><path class="cls-4" d="M180,239.5h-4a4,4,0,0,1,4,4v24a4,4,0,0,1-4,4h4a4,4,0,0,0,4-4v-24A4,4,0,0,0,180,239.5Z" transform="translate(-21 -84.5)"/><path class="cls-4" d="M180,276.5h-4a4,4,0,0,1,4,4v24a4,4,0,0,1-4,4h4a4,4,0,0,0,4-4v-24A4,4,0,0,0,180,276.5Z" transform="translate(-21 -84.5)"/><path class="cls-4" d="M138,271.5h4a4,4,0,0,0,4-4v-24a4,4,0,0,0-4-4h-4a4,4,0,0,1,4,4v24A4,4,0,0,1,138,271.5Z" transform="translate(-21 -84.5)"/><path class="cls-4" d="M370,276.5h-4a4,4,0,0,1,4,4v24a4,4,0,0,1-4,4h4a4,4,0,0,0,4-4v-24A4,4,0,0,0,370,276.5Z" transform="translate(-21 -84.5)"/><path class="cls-4" d="M56,276.5H52a4,4,0,0,1,4,4v24a4,4,0,0,1-4,4h4a4,4,0,0,0,4-4v-24A4,4,0,0,0,56,276.5Z" transform="translate(-21 -84.5)"/><path class="cls-4" d="M94,132.5v24a4,4,0,0,1-4,4h4a4,4,0,0,0,4-4v-24a4,4,0,0,0-4-4H90A4,4,0,0,1,94,132.5Z" transform="translate(-21 -84.5)"/><path class="cls-4" d="M94,276.5H90a4,4,0,0,1,4,4v24a4,4,0,0,1-4,4h4a4,4,0,0,0,4-4v-24A4,4,0,0,0,94,276.5Z" transform="translate(-21 -84.5)"/><path class="cls-4" d="M100,271.5h4a4,4,0,0,0,4-4v-24a4,4,0,0,0-4-4h-4a4,4,0,0,1,4,4v24A4,4,0,0,1,100,271.5Z" transform="translate(-21 -84.5)"/><path class="cls-4" d="M132,276.5h-4a4,4,0,0,1,4,4v24a4,4,0,0,1-4,4h4a4,4,0,0,0,4-4v-24A4,4,0,0,0,132,276.5Z" transform="translate(-21 -84.5)"/><path class="cls-4" d="M569,128.5h-4a4,4,0,0,1,4,4v24a4,4,0,0,1-4,4h4a4,4,0,0,0,4-4v-24A4,4,0,0,0,569,128.5Z" transform="translate(-21 -84.5)"/><path class="cls-4" d="M569,202.5h-4a4,4,0,0,1,4,4v24a4,4,0,0,1-4,4h4a4,4,0,0,0,4-4v-24A4,4,0,0,0,569,202.5Z" transform="translate(-21 -84.5)"/><path class="cls-4" d="M569,165.5h-4a4,4,0,0,1,4,4v24a4,4,0,0,1-4,4h4a4,4,0,0,0,4-4v-24A4,4,0,0,0,569,165.5Z" transform="translate(-21 -84.5)"/><path class="cls-4" d="M76,95.5v24a4,4,0,0,1-4,4h4a4,4,0,0,0,4-4v-24a4,4,0,0,0-4-4H72A4,4,0,0,1,76,95.5Z" transform="translate(-21 -84.5)"/><path class="cls-4" d="M561,91.5h-4a12,12,0,0,1,12,12v16a4,4,0,0,1-4,4h4a4,4,0,0,0,4-4v-16A12,12,0,0,0,561,91.5Z" transform="translate(-21 -84.5)"/><path class="cls-4" d="M456,276.5h-4a4,4,0,0,1,4,4v24a4,4,0,0,1-4,4h4a4,4,0,0,0,4-4v-24A4,4,0,0,0,456,276.5Z" transform="translate(-21 -84.5)"/><path class="cls-4" d="M532,276.5h-4a4,4,0,0,1,4,4v24a4,4,0,0,1-4,4h4a4,4,0,0,0,4-4v-24A4,4,0,0,0,532,276.5Z" transform="translate(-21 -84.5)"/><path class="cls-4" d="M494,276.5h-4a4,4,0,0,1,4,4v24a4,4,0,0,1-4,4h4a4,4,0,0,0,4-4v-24A4,4,0,0,0,494,276.5Z" transform="translate(-21 -84.5)"/><path class="cls-4" d="M569,276.5h-4a4,4,0,0,1,4,4v16a12,12,0,0,1-12,12h4a12,12,0,0,0,12-12v-16A4,4,0,0,0,569,276.5Z" transform="translate(-21 -84.5)"/><path class="cls-4" d="M569,239.5h-4a4,4,0,0,1,4,4v24a4,4,0,0,1-4,4h4a4,4,0,0,0,4-4v-24A4,4,0,0,0,569,239.5Z" transform="translate(-21 -84.5)"/><path class="cls-4" d="M418,276.5h-4a4,4,0,0,1,4,4v24a4,4,0,0,1-4,4h4a4,4,0,0,0,4-4v-24A4,4,0,0,0,418,276.5Z" transform="translate(-21 -84.5)"/><path class="cls-4" d="M480,271.5h4a4,4,0,0,0,4-4v-24a4,4,0,0,0-4-4h-4a4,4,0,0,1,4,4v24A4,4,0,0,1,480,271.5Z" transform="translate(-21 -84.5)"/><path class="cls-4" d="M442,271.5h4a4,4,0,0,0,4-4v-24a4,4,0,0,0-4-4h-4a4,4,0,0,1,4,4v24A4,4,0,0,1,442,271.5Z" transform="translate(-21 -84.5)"/><path class="cls-4" d="M531,95.5v24a4,4,0,0,1-4,4h4a4,4,0,0,0,4-4v-24a4,4,0,0,0-4-4h-4A4,4,0,0,1,531,95.5Z" transform="translate(-21 -84.5)"/><path class="cls-4" d="M493,95.5v24a4,4,0,0,1-4,4h4a4,4,0,0,0,4-4v-24a4,4,0,0,0-4-4h-4A4,4,0,0,1,493,95.5Z" transform="translate(-21 -84.5)"/><path class="cls-4" d="M384,234.5h4a4,4,0,0,0,4-4v-24a4,4,0,0,0-4-4h-4a4,4,0,0,1,4,4v24A4,4,0,0,1,384,234.5Z" transform="translate(-21 -84.5)"/><path class="cls-4" d="M113,95.5v24a4,4,0,0,1-4,4h4a4,4,0,0,0,4-4v-24a4,4,0,0,0-4-4h-4A4,4,0,0,1,113,95.5Z" transform="translate(-21 -84.5)"/><path class="cls-4" d="M366,271.5h4a4,4,0,0,0,4-4v-24a4,4,0,0,0-4-4h-4a4,4,0,0,1,4,4v24A4,4,0,0,1,366,271.5Z" transform="translate(-21 -84.5)"/><path class="cls-4" d="M156,234.5h4a4,4,0,0,0,4-4v-24a4,4,0,0,0-4-4h-4a4,4,0,0,1,4,4v24A4,4,0,0,1,156,234.5Z" transform="translate(-21 -84.5)"/><path class="cls-4" d="M194,234.5h4a4,4,0,0,0,4-4v-24a4,4,0,0,0-4-4h-4a4,4,0,0,1,4,4v24A4,4,0,0,1,194,234.5Z" transform="translate(-21 -84.5)"/><path class="cls-4" d="M118,234.5h4a4,4,0,0,0,4-4v-24a4,4,0,0,0-4-4h-4a4,4,0,0,1,4,4v24A4,4,0,0,1,118,234.5Z" transform="translate(-21 -84.5)"/><path class="cls-4" d="M189,95.5v24a4,4,0,0,1-4,4h4a4,4,0,0,0,4-4v-24a4,4,0,0,0-4-4h-4A4,4,0,0,1,189,95.5Z" transform="translate(-21 -84.5)"/><path class="cls-4" d="M227,95.5v24a4,4,0,0,1-4,4h4a4,4,0,0,0,4-4v-24a4,4,0,0,0-4-4h-4A4,4,0,0,1,227,95.5Z" transform="translate(-21 -84.5)"/><path class="cls-4" d="M303,95.5v24a4,4,0,0,1-4,4h4a4,4,0,0,0,4-4v-24a4,4,0,0,0-4-4h-4A4,4,0,0,1,303,95.5Z" transform="translate(-21 -84.5)"/><path class="cls-4" d="M151,95.5v24a4,4,0,0,1-4,4h4a4,4,0,0,0,4-4v-24a4,4,0,0,0-4-4h-4A4,4,0,0,1,151,95.5Z" transform="translate(-21 -84.5)"/><path class="cls-4" d="M417,95.5v24a4,4,0,0,1-4,4h4a4,4,0,0,0,4-4v-24a4,4,0,0,0-4-4h-4A4,4,0,0,1,417,95.5Z" transform="translate(-21 -84.5)"/><path class="cls-4" d="M455,95.5v24a4,4,0,0,1-4,4h4a4,4,0,0,0,4-4v-24a4,4,0,0,0-4-4h-4A4,4,0,0,1,455,95.5Z" transform="translate(-21 -84.5)"/><path class="cls-4" d="M341,95.5v24a4,4,0,0,1-4,4h4a4,4,0,0,0,4-4v-24a4,4,0,0,0-4-4h-4A4,4,0,0,1,341,95.5Z" transform="translate(-21 -84.5)"/><path class="cls-4" d="M379,95.5v24a4,4,0,0,1-4,4h4a4,4,0,0,0,4-4v-24a4,4,0,0,0-4-4h-4A4,4,0,0,1,379,95.5Z" transform="translate(-21 -84.5)"/><rect class="cls-5" x="1" y="1" width="556" height="229" rx="17"/><rect class="cls-5" x="64" y="7" width="32" height="32" rx="4"/><path class="cls-5" d="M19,7H55a4,4,0,0,1,4,4V35a4,4,0,0,1-4,4H11a4,4,0,0,1-4-4V19A12,12,0,0,1,19,7Z"/><rect class="cls-5" x="102" y="7" width="32" height="32" rx="4"/><rect class="cls-5" x="140" y="7" width="32" height="32" rx="4"/><rect class="cls-5" x="178" y="7" width="32" height="32" rx="4"/><rect class="cls-5" x="216" y="7" width="32" height="32" rx="4"/><rect class="cls-5" x="254" y="7" width="32" height="32" rx="4"/><rect class="cls-5" x="292" y="7" width="32" height="32" rx="4"/><rect class="cls-5" x="330" y="7" width="32" height="32" rx="4"/><rect class="cls-5" x="368" y="7" width="32" height="32" rx="4"/><rect class="cls-5" x="406" y="7" width="32" height="32" rx="4"/><rect class="cls-5" x="444" y="7" width="32" height="32" rx="4"/><rect class="cls-5" x="482" y="7" width="32" height="32" rx="4"/><rect class="cls-5" x="45" y="44" width="32" height="32" rx="4"/><rect class="cls-5" x="7" y="44" width="32" height="32" rx="4"/><rect class="cls-5" x="83" y="44" width="32" height="32" rx="4"/><rect class="cls-5" x="121" y="44" width="32" height="32" rx="4"/><rect class="cls-5" x="159" y="44" width="32" height="32" rx="4"/><rect class="cls-5" x="197" y="44" width="32" height="32" rx="4"/><rect class="cls-5" x="235" y="44" width="32" height="32" rx="4"/><rect class="cls-5" x="273" y="44" width="32" height="32" rx="4"/><rect class="cls-5" x="311" y="44" width="32" height="32" rx="4"/><rect class="cls-5" x="349" y="44" width="32" height="32" rx="4"/><rect class="cls-5" x="387" y="44" width="32" height="32" rx="4"/><rect class="cls-5" x="425" y="44" width="32" height="32" rx="4"/><rect class="cls-5" x="463" y="44" width="32" height="32" rx="4"/><rect class="cls-5" x="500" y="44" width="52" height="32" rx="4"/><rect class="cls-5" x="503" y="165.5" width="32" height="32" rx="4" transform="translate(1017 278.5) rotate(-180)"/><rect class="cls-5" x="541" y="165.5" width="32" height="32" rx="4" transform="translate(1093 278.5) rotate(-180)"/><rect class="cls-5" x="465" y="165.5" width="32" height="32" rx="4" transform="translate(941 278.5) rotate(-180)"/><rect class="cls-5" x="427" y="165.5" width="32" height="32" rx="4" transform="translate(865 278.5) rotate(-180)"/><rect class="cls-5" x="389" y="165.5" width="32" height="32" rx="4" transform="translate(789 278.5) rotate(-180)"/><rect class="cls-5" x="351" y="165.5" width="32" height="32" rx="4" transform="translate(713 278.5) rotate(-180)"/><rect class="cls-5" x="313" y="165.5" width="32" height="32" rx="4" transform="translate(637 278.5) rotate(-180)"/><rect class="cls-5" x="275" y="165.5" width="32" height="32" rx="4" transform="translate(561 278.5) rotate(-180)"/><rect class="cls-5" x="237" y="165.5" width="32" height="32" rx="4" transform="translate(485 278.5) rotate(-180)"/><rect class="cls-5" x="199" y="165.5" width="32" height="32" rx="4" transform="translate(409 278.5) rotate(-180)"/><rect class="cls-5" x="161" y="165.5" width="32" height="32" rx="4" transform="translate(333 278.5) rotate(-180)"/><rect class="cls-5" x="123" y="165.5" width="32" height="32" rx="4" transform="translate(257 278.5) rotate(-180)"/><rect class="cls-5" x="85" y="165.5" width="32" height="32" rx="4" transform="translate(181 278.5) rotate(-180)"/><rect class="cls-5" x="512" y="202.5" width="61" height="32" rx="4" transform="translate(1064 352.5) rotate(-180)"/><rect class="cls-5" x="28" y="202.5" width="61" height="32" rx="4" transform="translate(96 352.5) rotate(-180)"/><rect class="cls-5" x="474" y="202.5" width="32" height="32" rx="4" transform="translate(959 352.5) rotate(-180)"/><rect class="cls-5" x="436" y="202.5" width="32" height="32" rx="4" transform="translate(883 352.5) rotate(-180)"/><rect class="cls-5" x="398" y="202.5" width="32" height="32" rx="4" transform="translate(807 352.5) rotate(-180)"/><rect class="cls-5" x="360" y="202.5" width="32" height="32" rx="4" transform="translate(731 352.5) rotate(-180)"/><rect class="cls-5" x="322" y="202.5" width="32" height="32" rx="4" transform="translate(655 352.5) rotate(-180)"/><rect class="cls-5" x="284" y="202.5" width="32" height="32" rx="4" transform="translate(579 352.5) rotate(-180)"/><rect class="cls-5" x="246" y="202.5" width="32" height="32" rx="4" transform="translate(503 352.5) rotate(-180)"/><rect class="cls-5" x="208" y="202.5" width="32" height="32" rx="4" transform="translate(427 352.5) rotate(-180)"/><rect class="cls-5" x="170" y="202.5" width="32" height="32" rx="4" transform="translate(351 352.5) rotate(-180)"/><rect class="cls-5" x="132" y="202.5" width="32" height="32" rx="4" transform="translate(275 352.5) rotate(-180)"/><rect class="cls-5" x="94" y="202.5" width="32" height="32" rx="4" transform="translate(199 352.5) rotate(-180)"/><rect class="cls-5" x="494" y="239.5" width="79" height="32" rx="4" transform="translate(1046 426.5) rotate(-180)"/><rect class="cls-5" x="456" y="239.5" width="32" height="32" rx="4" transform="translate(923 426.5) rotate(-180)"/><rect class="cls-5" x="418" y="239.5" width="32" height="32" rx="4" transform="translate(847 426.5) rotate(-180)"/><rect class="cls-5" x="380" y="239.5" width="32" height="32" rx="4" transform="translate(771 426.5) rotate(-180)"/><rect class="cls-5" x="342" y="239.5" width="32" height="32" rx="4" transform="translate(695 426.5) rotate(-180)"/><rect class="cls-5" x="304" y="239.5" width="32" height="32" rx="4" transform="translate(619 426.5) rotate(-180)"/><rect class="cls-5" x="266" y="239.5" width="32" height="32" rx="4" transform="translate(543 426.5) rotate(-180)"/><rect class="cls-5" x="228" y="239.5" width="32" height="32" rx="4" transform="translate(467 426.5) rotate(-180)"/><rect class="cls-5" x="190" y="239.5" width="32" height="32" rx="4" transform="translate(391 426.5) rotate(-180)"/><rect class="cls-5" x="152" y="239.5" width="32" height="32" rx="4" transform="translate(315 426.5) rotate(-180)"/><rect class="cls-5" x="114" y="239.5" width="32" height="32" rx="4" transform="translate(239 426.5) rotate(-180)"/><rect class="cls-5" x="28" y="239.5" width="80" height="32" rx="4" transform="translate(115 426.5) rotate(-180)"/><rect class="cls-5" x="28" y="165.5" width="52" height="32" rx="4" transform="translate(87 278.5) rotate(-180)"/><path class="cls-5" d="M524,7h16a12,12,0,0,1,12,12V35a4,4,0,0,1-4,4H524a4,4,0,0,1-4-4V11A4,4,0,0,1,524,7Z"/><rect class="cls-5" x="142" y="276.5" width="42" height="32" rx="4" transform="translate(305 500.5) rotate(180)"/><rect class="cls-5" x="190" y="276.5" width="184" height="32" rx="4" transform="translate(543 500.5) rotate(180)"/><rect class="cls-5" x="104" y="276.5" width="32" height="32" rx="4" transform="translate(219 500.5) rotate(180)"/><rect class="cls-5" x="66" y="276.5" width="32" height="32" rx="4" transform="translate(143 500.5) rotate(180)"/><rect class="cls-5" x="359" y="192" width="42" height="32" rx="4"/><rect class="cls-5" x="407" y="192" width="32" height="32" rx="4"/><rect class="cls-5" x="445" y="192" width="32" height="32" rx="4"/><rect class="cls-5" x="483" y="192" width="32" height="32" rx="4"/><path class="cls-5" d="M524,192h24a4,4,0,0,1,4,4v16a12,12,0,0,1-12,12H524a4,4,0,0,1-4-4V196a4,4,0,0,1,4-4Z"/><path class="cls-5" d="M32,276.5H48a12,12,0,0,1,12,12v16a4,4,0,0,1-4,4H32a4,4,0,0,1-4-4v-24A4,4,0,0,1,32,276.5Z" transform="translate(67 500.5) rotate(180)"/><line class="cls-5" x1="483" y1="208" x2="515" y2="208"/></svg>